<?xml version="1.0" standalone="no"?>
<!DOCTYPE svg PUBLIC "-//W3C//DTD SVG 1.1//EN" "http://www.w3.org/Graphics/SVG/1.1/DTD/svg11.dtd" >
<svg xmlns="http://www.w3.org/2000/svg">
<metadata></metadata>
<defs>
<font id="rouge_scriptregular" horiz-adv-x="756" >
<font-face units-per-em="2048" ascent="1638" descent="-410" />
<missing-glyph horiz-adv-x="491" />
<glyph horiz-adv-x="2048" />
<glyph horiz-adv-x="2048" />
<glyph unicode="&#xd;" horiz-adv-x="681" />
<glyph unicode=" "  horiz-adv-x="491" />
<glyph unicode="&#x09;" horiz-adv-x="491" />
<glyph unicode="&#xa0;" horiz-adv-x="491" />
<glyph unicode="!" horiz-adv-x="489" d="M143 -10q15 0 21 32t20 64t45 32q38 0 38 -51t-49 -82q-25 -16 -43 -16q-26 0 -32 21zM223 323q0 16 7.5 65t61.5 428.5t67 469.5q5 34 33.5 34.5t45.5 -35t17 -64t-4 -51.5q-10 -54 -164 -887q-7 -32 -28 -32q-36 0 -36 72z" />
<glyph unicode="&#x22;" horiz-adv-x="555" d="M241 1043q0 35 3 65q8 79 28 147q11 48 51 48q20 0 28.5 -14t5.5 -36q-18 -77 -49 -161t-51 -84q-16 0 -16 35zM436 1043q0 35 3 65q8 79 28 147q11 48 51 48q36 0 36 -38q0 -7 -10 -48t-41 -125t-51 -84q-16 0 -16 35z" />
<glyph unicode="#" horiz-adv-x="1096" d="M0 351q0 26 52 36q13 2 38 1.5t172 -3.5l30 216h-236q-20 0 -18 15q3 36 82 36q34 0 178 -3q29 208 44 300q5 34 33 34t41 -43q7 -21 7 -49t-5 -59l-35 -185q74 -2 220 -8l46 310q7 34 33.5 34t40.5 -43q7 -21 6.5 -49t-5.5 -59l-36 -195q88 -3 236 -3q16 0 16 -8 q0 -23 -68 -25h-190q-7 -38 -22.5 -114.5t-22.5 -112.5q190 -3 249 -4q18 0 17 -10q-7 -23 -69 -22h-203q-61 -333 -67.5 -367.5t-28 -34.5t-21.5 36t48 366h-238q-61 -333 -67 -367.5t-27.5 -34.5t-21.5 36t48 366h-238q-18 0 -18 13zM334 383l233 -8l31 226h-223 q-34 -185 -41 -218z" />
<glyph unicode="$" horiz-adv-x="768" d="M-25 156q0 26 25 37.5t49.5 -1t24.5 -43.5q0 -79 36.5 -124t131.5 -46l73 501q-51 49 -78 78.5t-53.5 83.5t-26.5 113q0 92 61.5 156t169.5 70l23 148q3 18 13 18q3 0 7 -3q25 -10 24 -56q0 -13 -1 -28l-13 -79q75 -7 119.5 -46.5t44.5 -98.5q0 -20 -25.5 -28t-50 0 t-24.5 28q0 90 -71 104l-59 -365q36 -36 54 -52.5t38.5 -37.5t29.5 -33.5t25.5 -34t23 -38.5t14.5 -38q16 -36 17 -90q0 -123 -83.5 -211t-218.5 -99l-16 -111q-3 -16 -8 -17q-23 0 -23 44q0 13 1 28l7 54q-128 2 -194.5 63.5t-66.5 153.5zM252 779q0 -73 84 -163 q8 51 23.5 163t23.5 163q-59 -5 -95 -47.5t-36 -115.5zM280 -20q92 11 143.5 80.5t51.5 157.5q0 111 -121 226q-15 -100 -43 -269.5t-31 -194.5z" />
<glyph unicode="%" horiz-adv-x="1220" d="M74 552.5q0 68.5 14.5 130.5t57 116.5t95.5 68.5q8 2 13 -5.5t4 -16.5t-6 -10q-51 -18 -80 -120q-21 -69 -21 -136q0 -156 78.5 -156t132.5 130q48 115 48 228q0 164 -82 163q-51 0 -90 -42q-21 -21 -45 -17q-8 2 -3 10q59 87 156 87q106 0 131 -129q7 -34 6 -72 q0 -98 -47 -209q-64 -149 -166 -178q-20 -7 -41 -7q-70 0 -111 45q-44 51 -44 119.5zM242.5 -142.5q-0.5 24.5 31 90t140.5 302.5t230 503t139 305q20 34 41 34.5t30 -17.5q16 -41 -32 -133q-5 -11 -242.5 -484t-296.5 -601q-11 -24 -24 -24q-16 0 -16.5 24.5zM613 96.5 q0 68.5 14.5 131t57 116.5t95.5 69q8 2 13 -5.5t4 -16.5t-6 -11q-51 -18 -82 -119q-20 -69 -19 -136q0 -156 78.5 -156t132.5 129q48 115 48 228q0 164 -82 164q-51 0 -90 -43q-21 -21 -45 -16q-8 2 -3 10q59 87 156 87q106 0 131 -130q7 -34 6 -72q0 -98 -47 -208 q-64 -149 -166 -179q-20 -7 -41 -6q-70 0 -111 44q-44 51 -44 119.5z" />
<glyph unicode="&#x26;" horiz-adv-x="1266" d="M-57 164.5q0 102.5 69.5 188.5t190.5 173q-33 105 -33 183.5t20 139t79 97.5t142.5 37t122.5 -38.5t39 -102.5q0 -44 -14.5 -70.5t-23.5 -41t-29.5 -34t-32 -30.5t-39.5 -32t-39.5 -29.5t-45 -31t-43.5 -31.5q64 -249 213 -424q93 111 110 269q-113 33 -113 116 q0 34 33 52q16 10 45 10t50 -41t21 -106q26 -5 61 -5q223 0 324 160q53 82 53 164q0 129 -84 138q10 28 39 28q75 0 100 -89q8 -33 9 -65q0 -79 -46 -162q-90 -164 -290 -202q-49 -10 -99 -10t-68 3q-15 -165 -120 -288q149 -157 306 -157q95 0 142.5 37.5t47.5 85.5 q0 7 7.5 10t14 -0.5t6.5 -13.5q0 -54 -56.5 -106t-162.5 -52q-170 0 -343 155q-125 -110 -296 -110q-133 0 -200 61.5t-67 164zM31 149q0 -75 43.5 -122.5t140.5 -47.5q156 0 263 96q-170 169 -258 403q-188 -152 -189 -329zM282 721q0 -61 13 -131q113 79 170.5 137 t57.5 128q-1 89 -86 89q-156 0 -155 -223zM557 493q0 -38 74 -67q-3 102 -44 102q-29 0 -30 -35z" />
<glyph unicode="'" horiz-adv-x="561" d="M401 1052q32 0 50 62t18 124.5t45.5 62.5t45.5 -57q0 -13 -1 -28q-13 -90 -69 -151q-31 -33 -53 -34q-33 0 -34 16z" />
<glyph unicode="(" horiz-adv-x="499" d="M21 283q0 264 92 569q59 195 159 332.5t206 150.5q16 0 16.5 -15.5t-11.5 -15.5q-98 -15 -190.5 -219t-137 -430t-44.5 -416q0 -297 97 -357q11 -8 7 -18t-8.5 -10t-11.5 3q-105 57 -146 225q-28 106 -28 201z" />
<glyph unicode=")" horiz-adv-x="638" d="M-23 -136.5q0 15.5 12 15.5q98 15 190.5 218.5t136.5 430t44 416.5q0 297 -96 357q-11 8 -7 18t8.5 10t11.5 -4q105 -57 147 -224q26 -106 27 -202q0 -264 -92 -568q-59 -195 -159.5 -332.5t-206.5 -150.5q-16 0 -16 15.5z" />
<glyph unicode="*" horiz-adv-x="1073" d="M221 1088q0 28 21.5 39.5t39.5 6.5q143 -51 201 -92q-23 69 -23 220q0 20 13.5 32.5t32 12.5t32.5 -13t14 -32q0 -133 -23 -213q62 44 192 91q18 7 36 -3q26 -13 26 -41q0 -31 -31 -43q-129 -48 -208 -52q61 -41 154 -152q11 -16 11 -32.5t-18 -31.5q-36 -28 -65 5 q-90 110 -120 186q-23 -70 -113 -190q-13 -20 -32.5 -19.5t-32.5 11t-16.5 29.5t7.5 33q87 115 150 161q-72 0 -215 44q-33 11 -33 43z" />
<glyph unicode="+" horiz-adv-x="1102" d="M123 477q0 26 52 36q13 2 46 1.5t236 -6.5q21 208 36 321q2 18 12 18q3 0 8 -3q25 -10 24.5 -64t-34.5 -274q210 -7 318 -6q16 0 16 -8q0 -23 -69 -25q-175 0 -270 -2q-36 -245 -51 -391q-3 -16 -8 -16.5t-13 6t-8 35.5t36 366q-115 -2 -313 -1q-18 0 -18 13z" />
<glyph unicode="," horiz-adv-x="352" d="M48 -131q31 0 49 62t18 124.5t45.5 62.5t45.5 -57q0 -13 -1 -28q-13 -90 -69 -151q-31 -33 -52 -34q-33 0 -35 16z" />
<glyph unicode="-" horiz-adv-x="999" d="M156 477q0 26 52 36q13 2 30 1l507 -14q16 0 17 -8q0 -23 -69 -25l-519 -3q-18 0 -18 13z" />
<glyph unicode="." horiz-adv-x="342" d="M77 -10q15 0 21.5 32t20.5 64t45 32q38 0 38 -51t-50 -82q-25 -16 -42 -16q-26 0 -33 21z" />
<glyph unicode="/" horiz-adv-x="832" d="M33 -142.5q0 24.5 31 90t140 302.5t230 503t139 305q20 34 45 35q29 0 29 -41q0 -44 -34 -110q-5 -11 -242.5 -484t-296.5 -601q-12 -24 -25 -24q-16 0 -16 24.5z" />
<glyph unicode="0" horiz-adv-x="824" d="M7 309q0 83 19.5 160t54 151.5t90 130t119.5 73.5q10 3 15.5 -5t4 -19.5t-8.5 -13.5q-52 -15 -96 -98q-87 -157 -87 -414q0 -103 37.5 -176t108.5 -73q139 0 236 227q85 198 85 395q0 292 -151 292q-102 0 -169 -80q-29 -34 -57 -35q-16 0 -8 15q100 144 261.5 144 t211.5 -179q20 -70 20 -170t-44 -241q-72 -234 -215 -342q-80 -62 -166 -62t-146 41.5t-84 108.5q-31 87 -31 170z" />
<glyph unicode="1" horiz-adv-x="630" d="M-25 394q0 58 34.5 122t101.5 116q110 87 266 163q106 228 205 227q51 0 50 -52q0 -46 -45 -84.5t-138 -90.5q-82 -223 -116 -503q-11 -102 -12 -167q0 -118 39 -125q-16 -33 -47 -33q-97 0 -97 203q0 103 33.5 256.5t102.5 314.5q-139 -79 -221.5 -169t-82.5 -220 q0 -29 11 -37.5t15 -8.5q-3 -20 -28 -19.5t-48 25t-23 82.5zM469 842q133 70 132 120q1 21 -19 21q-54 0 -113 -141z" />
<glyph unicode="2" horiz-adv-x="801" d="M-70 15q0 54 155 178q157 126 289 269q67 70 111 158.5t44 172.5q0 149 -142 149q-123 0 -190 -133q-38 -79 -38 -152q0 -29 6 -59q18 -85 82 -85q0 -23 -36 -23q-102 0 -131 100q-10 33 -10 65q0 74 45 154q97 174 296 174q111 0 168.5 -53t57.5 -137t-36.5 -158.5 t-105.5 -145t-131.5 -123.5t-149 -119.5t-122.5 -99.5q11 2 19 2q39 0 119 -42.5t152 -42.5q121 0 175 100q23 43 23 70q0 67 -41 67q4 22 25 22q59 0 59 -95t-56 -174q-74 -106 -202 -106q-59 0 -104.5 24.5t-70.5 53.5q-64 77 -107.5 77t-66.5 -32t-23 -56 q0 -20 -31.5 -21t-31.5 21z" />
<glyph unicode="3" horiz-adv-x="815" d="M-49 161.5q0 56.5 34 113.5q66 113 199 113q20 0 32 -10.5t15 -30.5q-21 7 -47 7q-90 0 -136 -93q-25 -49 -25 -96t21 -93q43 -93 169 -93q103 0 182 64q141 116 141 321q0 106 -48 168q-84 -51 -182 -50.5t-98 54.5q0 39 47.5 63.5t108 24.5t109.5 -19q69 87 69 183 q0 54 -26 97q-38 59 -123 59q-105 0 -149 -97q-18 -39 -18 -69.5t13 -53.5q15 -25 38 -26q0 -23 -36 -23q-64 0 -82 67q-3 20 -3 38q0 59 44 115q72 88 205.5 88t192.5 -72q44 -56 44 -125q0 -121 -103 -216q54 -39 80.5 -100.5t26.5 -131t-31.5 -142.5t-83 -129.5 t-135 -92.5t-183.5 -36q-172 0 -233 113q-29 54 -29 110.5zM247 542q0 -26 66.5 -26t130.5 56q-38 23 -101.5 23t-88.5 -38q-7 -8 -7 -15z" />
<glyph unicode="4" horiz-adv-x="842" d="M-82 287q0 33 38.5 53t75.5 20t83 -6q54 92 84 237.5t30 268.5t-39 123q17 33 48 33q95 0 95 -177q0 -103 -43 -245.5t-121 -251.5q7 -2 96 -29.5t143 -35.5q29 192 109.5 365.5t150.5 173.5q11 0 18 -5t7 -10v-5q-51 0 -106 -169.5t-79 -359.5h16q87 0 115 62 q8 16 8 32.5t-10.5 25t-20.5 8.5q7 23 34 23q43 0 43 -56.5t-46.5 -94.5t-120.5 -38h-23q-7 -69 -7 -116q0 -113 38 -113q-16 -33 -47 -33q-92 0 -92 172q0 46 8 102q-61 11 -158.5 41.5t-98.5 30.5q-72 -84 -144 -84t-82 45q-2 7 -2 13zM-43 287q0 -23 47 -23t91 62 q-25 5 -47 5q-75 0 -89 -34q-2 -5 -2 -10z" />
<glyph unicode="5" horiz-adv-x="815" d="M-51 166.5q0 56.5 26 108.5q57 113 176 113q16 0 17 -17t-17 -17q-79 0 -117 -90q-20 -46 -19.5 -92t23.5 -92q48 -102 175 -101q149 0 242 147q70 111 71 238q0 195 -138 252q-44 20 -86.5 20t-72.5 -8q-33 -169 -109 -169q-54 0 -54 51q0 56 65 104q31 23 67 36 q5 31 12.5 88.5t12.5 93t15 74.5q16 77 54 77h1q18 0 41 -20q69 -62 163 -62t129 82q10 26 10 47.5t-11 34.5t-24 13q-2 0 0 7q5 16 28 16q39 0 39 -78t-58 -140t-155 -62q-56 0 -103 16q-64 23 -87 51q-5 -28 -14 -106.5t-17 -119.5q41 8 79 8q220 0 296 -156 q33 -66 33 -139.5t-31 -154.5q-62 -161 -208 -236q-87 -46 -188 -46q-170 0 -233 113q-33 59 -33 115.5zM102 510q0 -16 18 -18q48 0 73 124q-67 -31 -87 -85q-4 -11 -4 -21z" />
<glyph unicode="6" horiz-adv-x="786" d="M-2 274q0 125 56 273q85 233 241 354q108 82 219 82q62 0 93.5 -32.5t31.5 -75.5t-31 -51q-29 -5 -31 18v10q0 36 -21.5 62t-67.5 26q-152 0 -264.5 -229t-112.5 -452q0 -270 156 -270q116 0 197 150q64 121 64 246q0 165 -97 182q-8 2 -18 2q-87 0 -146 -94.5 t-62 -202.5q0 -23 -17.5 -16.5t-15.5 27.5q5 123 78.5 226.5t191.5 103.5q134 0 172 -133q11 -43 12 -88q0 -93 -49 -200q-72 -162 -203 -218q-51 -21 -107 -22q-197 0 -251 186q-18 64 -18 136z" />
<glyph unicode="7" horiz-adv-x="602" d="M-2 918.5q0 30.5 29 65.5t75 35q13 0 22.5 -6.5t14.5 -17.5q-31 0 -44 -40q-3 -13 -3 -24q0 -36 34.5 -57.5t88.5 -21.5q95 0 244 65.5t183 65.5q10 0 10 -19.5t-10 -19.5q-100 0 -231.5 -236t-200.5 -472q-41 -138 -41 -187t19 -49q-16 -33 -47 -33q-77 0 -77 102 q0 43 13 103q49 211 210 470q88 144 177 235q-197 -92 -315 -92t-144 82q-7 21 -7 51.5z" />
<glyph unicode="8" horiz-adv-x="752" d="M-25 156q0 125 94 218q49 49 88.5 78.5t107.5 75.5q-108 111 -108 218.5t70 172t191 64.5q85 0 136 -42t51 -118t-54.5 -138t-155.5 -130q139 -129 169 -214q13 -41 13 -90q0 -131 -94.5 -221.5t-233 -90.5t-206.5 61.5t-68 155.5zM56 149q0 -75 45.5 -122.5t149 -47.5 t164 70.5t60.5 168.5q0 46 -10.5 70.5t-15.5 38.5t-19.5 32.5t-21.5 27.5t-26 29l-26 26q-7 7 -29 27.5t-27 25.5q-116 -75 -180 -153t-64 -193zM252 788q0 -90 107 -197q80 61 122.5 117.5t42.5 116.5t-33.5 89.5t-95.5 29.5t-102.5 -43.5t-40.5 -112.5z" />
<glyph unicode="9" horiz-adv-x="817" d="M-46 78.5q0 44.5 35 49.5q29 -2 34 -25q0 -44 30 -76t96 -32q169 0 292 218t123 477q0 175 -77 234q-29 23 -69 23q-121 0 -205 -154q-67 -123 -67 -251q0 -162 96 -178q8 -2 19 -2q85 0 145.5 96.5t63.5 205.5q0 23 17.5 16t15.5 -28q-5 -123 -78.5 -226t-191.5 -103 q-136 0 -177 132q-13 48 -13 117.5t41 168.5q70 162 208 219q56 23 116 23q184 0 246 -175q26 -74 26 -171.5t-43 -225.5q-77 -234 -242 -362q-126 -97 -272 -97q-82 0 -125.5 41t-43.5 85.5z" />
<glyph unicode=":" horiz-adv-x="480" d="M62 -10q23 0 30 64q2 25 14.5 44.5t37.5 19.5q39 0 39.5 -51t-47.5 -82q-23 -16 -41 -16q-26 0 -33 21zM129 449q23 0 28 64q3 25 16 44.5t38 19.5q39 0 39.5 -51t-47.5 -82q-23 -16 -41 -16q-26 0 -33 21z" />
<glyph unicode=";" horiz-adv-x="385" d="M34 -131q31 0 46 58t15 92.5v41.5q-3 57 44.5 57t47.5 -62q0 -100 -64 -174q-31 -34 -53 -34q-33 0 -34 16zM115 449q21 0 26 64q2 25 14.5 44.5t37.5 19.5q41 0 41 -52t-44 -81q-23 -16 -41 -16q-28 0 -34 21z" />
<glyph unicode="&#x3c;" horiz-adv-x="832" d="M66 341q0 13 18 28q33 26 70 26q149 0 275 102.5t126 190.5q28 -5 28 -60.5t-113.5 -151.5t-220.5 -106q92 -46 169 -144t77 -165q0 -43 -20 -51l-8 -2q0 103 -125.5 218t-275.5 115z" />
<glyph unicode="=" horiz-adv-x="1186" d="M129 351q0 26 53 36q13 2 29 1l674 -14q16 0 16 -9q0 -22 -69 -24l-685 -3q-18 0 -18 13zM167 616q3 26 53 34l29 2l673 -15q16 0 17 -8q0 -22 -69 -24l-685 -4q-20 0 -18 15z" />
<glyph unicode="&#x3e;" horiz-adv-x="897" d="M151 61q0 64 114.5 159t222.5 104q-93 44 -171 143.5t-78 166.5q0 21 6.5 35t19.5 19q0 -103 125.5 -217.5t276.5 -114.5q-5 -20 -30.5 -37.5t-56.5 -17.5q-151 0 -276 -101.5t-125 -191.5q-28 5 -28 53z" />
<glyph unicode="?" horiz-adv-x="948" d="M229 -10q23 0 30 64q2 25 14.5 44.5t37.5 19.5q39 0 39.5 -51t-47.5 -82q-23 -16 -41 -16q-26 0 -33 21zM290 264q0 149 172 316l141.5 141.5t121.5 165t50 194.5q0 149 -143 149q-123 0 -190 -132q-38 -79 -37 -153q0 -29 6 -59q18 -85 82 -85q0 -23 -36 -23 q-102 0 -131 100q-10 33 -10 66q0 74 44 154q97 174 297 173q111 0 168.5 -53t57.5 -136t-29.5 -151t-76 -122t-102.5 -106.5t-112.5 -103t-103.5 -101.5q-105 -114 -105 -234q0 -21 -32 -21.5t-32 21.5z" />
<glyph unicode="@" horiz-adv-x="1299" d="M87 258.5q0 93.5 21 174.5q57 213 228 339q149 108 346 108q257 0 340 -187q33 -74 33 -153.5t-28 -162.5q-49 -147 -146 -200q-36 -20 -73 -20q-128 0 -128 154q0 34 6 76q-124 -226 -203 -226q-105 0 -105 145q0 95 56 199q85 154 210 154q33 0 51.5 -19t18.5 -34 t-9.5 -19.5t-18.5 -4t-9 7.5q0 28 -33 28q-67 0 -123 -108q-57 -115 -57 -205t28 -103q33 0 77 65q66 95 98 164l59 121q11 28 20 32t17 4q18 0 25.5 -23t-0.5 -64.5t-13 -66t-11.5 -69t-6.5 -70t3 -53.5q7 -54 51 -54q106 0 169 166q28 74 28 155.5t-41 172.5 q-75 164 -313.5 163.5t-379.5 -198.5q-105 -151 -105 -336q0 -216 128 -319q75 -61 183 -61q116 0 179 49q52 44 64 77l4 15l27 -2q-7 -26 -28 -58.5t-50 -55.5t-84 -42t-125 -19q-231 0 -328 175q-52 95 -52 188.5z" />
<glyph unicode="A" horiz-adv-x="1728" d="M-10 172q0 46 10 93q34 159 156 227q64 36 142 36q169 0 228 -132q25 -54 25 -110.5t-23 -113.5q-56 -138 -182 -138q-20 0 -33 9t-20 27q44 0 84 23q66 39 103 143q10 34 10 56.5t-3.5 51t-21.5 66t-62 60.5t-105 23q-156 0 -229 -137q-43 -79 -43 -149.5t15 -126.5 q43 -156 179 -214q64 -28 140 -28q221 0 400 200q-79 84 -108 201q-18 69 -18 123q0 170 98 270q72 72 176 72q1 0 3 1q103 0 185 -51q146 339 236 470q-11 3 -84 31t-93 34l-79 27q-138 46 -242 46q-213 0 -315 -161q-59 -90 -59 -187q0 -28 7 -57q18 -106 95 -128 q15 -5 31 -5q-10 -36 -54 -36q-100 0 -141 107q-20 51 -20 113t33 139q69 165 243 226q82 28 153 28t118 -7.5t112.5 -28t95.5 -30t118 -43.5t101 -39q141 187 308 187q13 0 19.5 -8t8.5 -23q-170 0 -299 -169q85 -31 166 -49q88 115 162 115q16 0 27.5 -9t16.5 -27 q-64 0 -132 -90q11 -2 34 -2q162 0 228 97q28 38 28 64q0 73 -64 73h-2q15 23 48 23q64 0 83 -64q5 -20 5 -37q0 -54 -46 -107q-80 -88 -247 -88q-49 0 -89 6q-110 -175 -177 -498q-47 -219 -47 -371v-6q0 -66 8 -118q93 72 178.5 182t122.5 184l38 74h44 q-13 -34 -56.5 -109t-83.5 -131.5t-104 -125.5t-129 -116q21 -62 60 -62q-16 -33 -47 -33q-52 0 -87 49q-118 -61 -229 -61q-162 0 -280 86q-172 -197 -414.5 -197t-352.5 172q-61 97 -61 208zM696 356q0 -167 94 -281q105 134 201 343q35 77 89 200q-62 44 -145 44 t-147 -62q-92 -93 -92 -244zM847 21q102 -80 249 -80q105 0 211 57q-28 65 -28 157l1 5q0 93 -40 216q-40 124 -114 202q-149 -393 -279 -557zM1142 619q102 -90 151 -262q26 193 91.5 386t149.5 317q-69 16 -166 51q-77 -115 -154 -303q-23 -59 -72 -189z" />
<glyph unicode="B" horiz-adv-x="1479" d="M-48 129q0 53 16 101t48 95t82.5 76.5t109.5 29.5q33 0 46 -23l3 -8q-143 0 -218 -121q-42 -67 -43 -138q0 -2 1 -3q0 -33 8 -68q36 -127 178 -127h2q121 0 190 91q75 97 108 225q36 134 63 292q-85 28 -112 90q-10 23 -10 54t30 68q44 62 144 87q31 144 77 220.5 t123 76.5q23 0 29 -20l4 -8q-62 0 -95 -66.5t-51 -190.5q10 2 31 1q177 0 308 -75q87 129 87 259q0 95 -65 172t-212 77q-298 0 -472 -215q-133 -162 -133 -354q0 -136 77 -188q33 -23 77 -23q-16 -38 -50 -38q-121 0 -164 127q-20 56 -20 133.5t44 185.5q85 215 287 326 q156 87 354 87q125 0 210 -39q165 -75 165 -264q0 -151 -118 -295q165 -144 166 -408q0 -254 -177 -423q-111 -106 -266 -106t-185 137q-7 31 -6 63q0 106 70 232q90 164 229 228q66 29 130 30q10 0 13 -10t-1 -19t-14 -9q-149 0 -270 -157q-111 -146 -112 -297 q0 -118 89 -144q20 -5 44 -5q85 0 161 61q143 115 190 371q8 49 8 106t-15 119q-25 111 -93 188q-165 -162 -392 -162h-11q-44 -367 -153 -505q-46 -56 -118 -93.5t-159.5 -37.5t-145.5 29.5t-84 75.5q-37 68 -37 126zM472 683q0 -61 80 -90q27 161 38 213 q-118 -39 -118 -123zM654 577h5q200 0 336 170q-109 79 -279 79l-36 -2q-15 -131 -26 -247z" />
<glyph unicode="C" horiz-adv-x="1161" d="M-162 1199q31 87 89 165t156.5 126t216.5 48q233 0 318 -180q10 -20 -23 -26q-39 -3 -49 18q-50 147 -248 147q-125 0 -224 -58q-185 -111 -218 -351q-5 -38 -5 -92t20 -121q28 -100 109 -180.5t202 -109.5q51 187 154 350t260.5 272t330.5 109q151 0 184 -122 q10 -31 10 -65q0 -100 -76 -221q-118 -195 -344 -297q-177 -80 -382 -80h-32q-34 -121 -35 -234q0 -213 108 -295q15 134 69 252t150 198t212 80q134 0 167 -119q8 -33 9 -67q0 -90 -58 -194q-90 -159 -250 -216q-70 -23 -139 -23q-46 0 -92 10q-2 -21 -2 -43 q0 -120 51 -201q57 -97 187 -97q-5 -31 -55 -31q-131 0 -192 108t-61 256v31q-141 61 -187 233q-23 82 -23 173.5t26 194.5q-115 26 -198.5 95t-119.5 158q-48 115 -48 212q0 99 32 187zM298 570h23q321 0 541 205q146 136 178 293q7 34 7 62q0 85 -62 123q-31 20 -79 20 q-93 0 -189 -61.5t-175 -161.5q-167 -213 -244 -480zM431 -34q43 -13 90 -14q180 0 303 158q97 121 97 239t-85 136q-14 3 -30 3q-133 0 -242 -162t-133 -360z" />
<glyph unicode="D" horiz-adv-x="1441" d="M-69 62q0 25 33 56t97 31q18 0 36.5 -2.5t32 -4t36 -9t31.5 -10t36.5 -13t32 -13t36.5 -15.5t34 -15q80 92 136 285q-244 16 -351 197q-57 100 -57 216q0 67 18 139q56 205 231 322q150 99 353 99h4q144 0 258 -47.5t182 -126.5t109 -183q43 -108 43 -224t-19 -227 t-72.5 -214t-122 -182.5t-166 -127t-220.5 -47.5t-270 57q-93 -70 -227 -70q-175 0 -222 82q-12 22 -12 47zM-20 49q0 -31 44.5 -51.5t126.5 -20.5t155 61q-164 70 -235 70t-87 -41q-4 -10 -4 -18zM143 801q0 -223 152 -337q82 -61 188 -72q20 79 47 212t46.5 219t49.5 176 q61 182 182 182q23 0 31 -21l1 -7q-105 0 -145 -170q-21 -84 -33.5 -170.5t-30 -210.5t-36.5 -209q115 16 192.5 87t108.5 170q2 8 11 10t14.5 -3t4.5 -15q-36 -111 -123 -189.5t-218 -96.5q-53 -222 -159 -325q122 -43 226 -43h2q105 0 183.5 44.5t136 120t103 173 t63.5 204.5t18 214.5t-33.5 205t-91 173t-155.5 119.5t-224 44q-269 0 -412 -190q-100 -131 -99 -295z" />
<glyph unicode="E" horiz-adv-x="1156" d="M20 198q0 84 24.5 186.5t108 209.5t201.5 166q-26 56 -26 106t5 84q-74 34 -120 92q-62 80 -62 179q0 110 62 198q39 52 103 85.5t141 33.5q10 0 15.5 -7t5.5 -14v-6q-106 0 -183 -63q-108 -88 -108 -213q0 -54 23 -108q36 -88 132 -136q39 146 163 250t304 104 q136 0 174 -92q11 -28 12 -57q0 -61 -50 -128q-120 -160 -385 -160h-3q-82 0 -142 14q-5 -31 -5 -65.5t11 -68.5q100 36 212 36t137 -57q5 -13 5 -25q0 -34 -52.5 -68.5t-162 -34.5t-177.5 75q-146 -93 -214 -275q-46 -121 -46 -236q0 -57 11 -111q34 -167 161 -225v10 q0 152 50 298t158 251.5t249 105.5t182 -127q15 -46 15 -95q0 -90 -50 -197q-85 -182 -257 -264q-105 -49 -226 -49q-20 0 -52 3q5 -134 60.5 -217.5t160.5 -83.5q-7 -28 -41 -28q-110 0 -173 95t-73 246q-118 29 -190 116q-88 105 -88 267zM364 -152q23 -5 49 -5 q239 0 382 185q105 135 105 276q0 142 -82 178q-24 11 -53 11q-110 0 -204 -102.5t-144 -250t-53 -292.5zM423 962q60 -13 132 -13q190 0 299 118q64 69 64 134q0 15 -2 28q-20 77 -118 78q-134 0 -238.5 -104.5t-136.5 -240.5zM441 747q44 -69 148 -69t134 46q7 11 6 20 q0 21 -29 32.5t-68 11.5q-102 0 -191 -41z" />
<glyph unicode="F" horiz-adv-x="1150" d="M10 121q0 61 18 116t50 106.5t84.5 83.5t111.5 32q31 0 44 -23l5 -8q-138 0 -218 -127q-52 -84 -53 -172q0 -28 7 -57q23 -120 131 -144q26 -7 70.5 -7t93.5 24t85 75.5t61.5 104t46.5 137.5q30 128 59 308q-46 10 -75 31v31q33 -21 80 -31q49 301 73.5 358.5t49.5 100.5 q49 80 133 80q23 0 31 -19l1 -9q-39 0 -68.5 -26t-46.5 -63.5t-30 -104.5q-21 -106 -29.5 -193.5t-8.5 -92.5q0 -18 -3 -34q70 10 126 38q10 100 54 176t111 76q41 0 41 -44q0 -87 -98 -174q-21 -20 -46 -36q-5 -34 -5 -62q0 -121 59 -121q-2 -20 -28 -20q-44 0 -67 47.5 t-23 121.5q-59 -26 -128 -33q-41 -349 -104 -470q-31 -59 -76 -113q-87 -106 -257 -107q-84 0 -143.5 32t-85.5 84q-33 67 -33 128zM16 826q0 73 30 154q64 177 228 262q106 54 225 54t295 -53.5t269 -53.5q141 0 163 66q11 31 -7 41q-3 2 -5 2q10 39 46 39q54 0 54 -64 q0 -49 -51.5 -91t-162 -42t-301 61t-288.5 61q-211 0 -329 -169q-80 -115 -80 -246q0 -187 127 -247q44 -21 100 -22q0 -11 -13 -24t-29 -13q-172 0 -239 142q-32 68 -32 143zM908 680q82 66 103 141q3 13 3 24.5t-11 11.5q-28 0 -54.5 -51.5t-40.5 -125.5z" />
<glyph unicode="G" horiz-adv-x="1245" d="M-147 -228q43 147 162 208q57 28 123 28q174 0 237 -134q28 -59 28 -113t-20 -103q-43 -113 -139 -113q-15 0 -26.5 8t-17.5 23q74 0 115 100q20 48 20 97q0 1 -1 2q0 50 -23 102q-44 100 -178.5 100t-211.5 -129q-52 -87 -52 -182q0 -39 10 -81q34 -154 177 -208 q63 -25 158 -25h4q98 1 190.5 46t152.5 113t106.5 173.5t73 200.5t49.5 221q-111 -103 -212 -103t-167.5 60t-84.5 143.5t-18 162.5q0 154 54 326q-95 23 -156.5 84t-78.5 123.5t-17 103.5q0 224 155 324q67 44 150 45q25 0 26 -20l1 -7q-80 0 -145 -39q-126 -75 -151 -236 q-3 -28 -3 -63t14.5 -91t72 -110.5t144.5 -76.5q87 251 244 425.5t337 174.5q136 0 136 -143q0 -102 -83 -224q-120 -179 -318 -251q-98 -34 -203 -34h-14q-64 -213 -63 -339q0 -297 170 -297q106 0 221 131q23 129 31 181t19 105t19 83.5t19.5 70t24.5 60.5t30 43 q29 39 78 39q57 0 58 -79q0 -28 -7 -64q-34 -182 -172 -378q-39 -344 -123 -534q-82 -187 -200 -277q-144 -111 -354 -111q-244 0 -342 168q-48 81 -48 155t19 135zM487 719h1q239 0 407 180q132 145 132 290q0 82 -60 102q-14 3 -30 3q-125 0 -248.5 -168.5t-201.5 -406.5z M913 334q102 177 119 307q3 16 3 27q0 38 -21 38q-41 0 -60.5 -80t-29.5 -179.5t-11 -112.5z" />
<glyph unicode="H" horiz-adv-x="1410" d="M15 690q0 60 34 137q67 154 226 200q56 17 120 17l280 -18q79 178 201 178h1q23 0 31 -21l1 -7q-100 0 -157 -145q165 26 233 140q26 46 26 74q0 66 -46 66q10 28 39 28q56 0 56 -76.5t-61 -148.5q-88 -106 -262 -124q-36 -118 -59 -295t-26 -199q62 44 214.5 146 t198.5 133q74 267 191 442.5t246 175.5q44 0 69.5 -28t25.5 -72q0 -120 -114.5 -244.5t-319.5 -268.5q-73 -293 -73 -567v-7q0 -246 70 -367q56 -95 151 -95q-10 -32 -44 -32h-2q-110 0 -177 88q-102 131 -102 423q0 226 59 475q-370 -246 -401 -267q-49 -329 -126 -449 q-74 -111 -187 -111q-52 0 -83.5 36t-31.5 96q0 165 316 405q70 434 127 578l-244 18q-198 0 -284 -150q-41 -75 -41 -151q0 -39 10 -77q31 -116 123 -116q0 -13 -12.5 -25t-31.5 -12q-105 0 -146 109q-18 48 -18 108zM259 2q0 -90 69.5 -90t112 109.5t80.5 320.5 q-262 -202 -262 -340zM1186 860q175 128 272 233.5t97 200.5q0 62 -53 63q-85 0 -169.5 -138.5t-146.5 -358.5z" />
<glyph unicode="I" horiz-adv-x="1179" d="M22 272q42 154 160 215q54 27 117 27h4q174 0 238 -134q28 -59 28 -113t-20 -103q-43 -113 -139 -113q-29 0 -43 23l-3 8q70 0 109 100q20 49 20 99t-21 102q-41 100 -172 100t-208 -127q-51 -85 -51 -181q0 -39 8 -82q34 -154 177 -209q64 -25 159 -25t178 43.5 t134.5 120.5t87.5 170.5t59.5 209.5t40.5 220q46 293 83 404q-152 11 -159 12q-233 0 -326 -153q-42 -67 -42 -138q0 -37 10 -71q29 -98 108 -99q0 -13 -13.5 -24.5t-32.5 -11.5q-93 0 -133 97q-18 48 -18 103.5t33 124.5q72 156 264 198q61 13 110.5 13t211.5 -15 q74 187 212 187q11 0 20 -7.5t14 -20.5q-120 0 -170 -164h33q169 0 235 107q26 41 27 70q0 77 -54 77q10 29 37 30q48 0 64 -59q5 -21 5 -41q0 -59 -46 -116q-87 -105 -270 -105h-41q-29 -115 -44 -279.5t-32 -272t-39.5 -197.5t-66 -177t-102 -146.5t-152 -96.5t-211.5 -37 q-244 0 -344 170q-50 86 -50 180q1 52 16 107z" />
<glyph unicode="J" horiz-adv-x="1271" d="M-64 -131q0 54 13 111q39 167 164 244q74 46 161 46q177 0 242 -139q26 -59 26 -115.5t-18 -110.5q-44 -121 -144 -121q-28 0 -46 31q67 0 107 95q25 58 25 109q0 53 -15 99q-43 121 -176 121q-156 0 -244 -144q-60 -98 -60 -209q0 -43 8 -83q29 -174 175 -244 q76 -38 192 -38q1 0 3 1q118 0 218 77t155 194t96.5 283t61.5 317q57 411 113 597q-300 -87 -408 -194q-44 -46 -75.5 -115.5t-31.5 -154.5t43 -144t108 -59q0 -13 -13 -24.5t-33 -11.5q-80 0 -131.5 68.5t-51.5 153t20.5 143.5t50.5 102.5t82 83t97.5 65.5t116.5 54 q105 39 241 78q77 215 221 215q11 0 20 -7.5t14 -20.5q-113 0 -169 -160q144 43 217 83.5t73 104.5q0 28 -14.5 45t-35.5 17q10 29 38 30h2q27 0 46 -24t19 -61.5t-20.5 -71t-49.5 -56.5t-80 -44q-70 -31 -209 -71q-39 -144 -58 -348t-39 -340t-44.5 -253t-72 -229.5 t-111.5 -191t-164.5 -126t-230.5 -47.5q-257 0 -367 182q-57 95 -57 208z" />
<glyph unicode="K" horiz-adv-x="1369" d="M-49 126q0 56 16.5 104.5t47.5 95t82.5 76t110.5 29.5q31 0 44 -23l5 -8q-144 0 -219 -121q-43 -70 -43 -141q0 -33 8 -68q36 -127 179 -127h2q116 0 188 86q75 90 118 217q34 102 75 285q-80 29 -101 93q-7 21 -7 51t30 66q46 52 134 54q29 128 54 193l-249 16 q-182 0 -261 -136q-38 -65 -38 -113t12 -85q33 -87 107 -92q0 -13 -13 -24.5t-33 -11.5q-97 0 -131 99q-15 41 -15 95.5t34 125.5q90 182 318 182l279 -18h5q77 178 197 178h1q23 0 31 -21l2 -7q-100 0 -154 -144q162 25 228 139q26 44 26 73q0 67 -46 67q11 29 39 29 q56 0 56 -77t-61 -149q-90 -103 -255 -123q-23 -75 -43 -206q129 -28 203 -143q118 98 254 348q52 95 108 183q125 197 262 197q16 0 25.5 -7.5t11.5 -22.5q-151 0 -248 -216q-43 -95 -86 -196.5t-117.5 -201.5t-173.5 -153q52 -115 97 -399q15 -93 39 -182 q49 -188 192 -189q-3 -29 -43 -29q-103 0 -166 50.5t-87.5 141t-35 183t-22 209.5t-33.5 189q-88 -34 -209 -34h-14q-59 -349 -178 -490q-46 -54 -118 -89.5t-157.5 -35.5t-143.5 29.5t-82 75.5q-38 67 -38 123zM501 670q0 -67 72 -98q15 68 38 183q-59 -5 -84.5 -34.5 t-25.5 -50.5zM675 554h8q98 0 185 55q-54 113 -163 138z" />
<glyph unicode="L" horiz-adv-x="1196" d="M-56 61.5q0 30.5 27 63.5q40 50 114 50h3q123 0 307 -132q74 75 133 224q-16 -2 -48 -2q-267 0 -392 213q-75 131 -75 290q0 54 8 110q29 208 154 318q85 72 193.5 72t167.5 -70.5t62 -173.5q0 -15 -16.5 -24t-33 -5t-16.5 21q-3 98 -39 156t-129 58q-147 0 -238 -162 q-72 -128 -72 -282q0 -282 182 -408q100 -70 242 -70q33 0 68 5q38 102 80 266.5t76 286.5t80 243q94 253 263 253q151 0 151 -227q0 -144 -79 -332q-115 -274 -311 -421q-75 -56 -154 -85q-79 -203 -198 -297q164 -121 237.5 -158t142.5 -37q120 0 157 84q11 26 11.5 49 t-12 38.5t-28.5 15.5q5 20 24 19q56 0 74 -62q7 -21 6 -41q0 -49 -37 -92q-52 -62 -156 -62q-129 0 -249 76q-67 41 -97.5 63.5t-107.5 81.5q-100 -63 -220 -63h-4q-182 0 -236 91q-15 28 -15 58.5zM-6 82q-5 -12 -5 -23q0 -38 50 -74q49 -34 149 -34t177 64 q-161 119 -277 119q-74 0 -94 -52zM675 357q202 103 329 387q103 226 102 416q-5 151 -79 154q-115 0 -175 -221q-29 -106 -52 -220q-67 -346 -125 -516z" />
<glyph unicode="M" horiz-adv-x="2087" d="M2 265q34 159 155 227q64 36 143 36q169 0 228 -132q25 -53 25 -108q-1 0 -1 -2q0 -56 -23 -114q-56 -138 -182 -138q-20 0 -33 9t-19 27q44 0 83 23q66 39 102 143q11 34 11.5 56.5t-3 51t-21.5 66t-62.5 60.5t-104.5 23q-156 0 -230 -137q-43 -78 -42 -148v-2 q0 -70 15 -126q43 -156 178 -214q64 -28 162.5 -28t199 55t173.5 149t132 210.5t107.5 251.5t87.5 256q105 311 182 434q-247 77 -359 77q-211 0 -315 -160q-59 -92 -59 -189q0 -28 7 -57q18 -108 97 -129q15 -3 29 -4q-10 -34 -54 -34q-100 0 -141 106q-20 50 -20 110v4 q0 62 33 139q69 165 243 226q82 28 187.5 28t372.5 -85q79 114 182 114h2q13 0 19.5 -8t7.5 -23q-97 0 -172 -97q74 -23 95 -31q69 120 130 120q28 0 33 -16l1 -5q-46 0 -96 -122l234 -75q110 206 229 206q16 0 26 -8t14 -24q-123 0 -226 -187q88 -23 109 -26 q96 191 173 191h1q28 0 33 -16l1 -5q-54 0 -131 -182q11 -2 31 -1q162 0 228 96q28 38 28 64q0 74 -65 74q15 23 47 23q64 0 84 -64q5 -20 5 -38q0 -54 -46 -106q-80 -88 -248 -89q-39 0 -77 7q-72 -185 -123.5 -427.5t-51.5 -432.5t77 -190q-16 -33 -48 -33 q-127 0 -127 276v4q0 165 52 394t143 424q-43 8 -112 27q-72 -141 -151.5 -412t-141 -444.5t-123.5 -173.5q-124 0 -124 293v5q0 182 53 426t141 416l-99 31q-79 -121 -168 -436q-36 -125 -79 -263t-100 -258.5t-129.5 -218.5t-181 -155.5t-242.5 -57.5q-241 0 -351 172 q-60 95 -60 204q0 50 10 97zM1317 241q0 -138 33.5 -138t83.5 157.5t124.5 403t147.5 388.5q-147 46 -231 74q-72 -193 -120 -500q-38 -247 -38 -385z" />
<glyph unicode="N" horiz-adv-x="1890" d="M2 265q34 159 155 227q64 36 143 36q169 0 228 -132q25 -53 25 -108q-1 0 -1 -2q0 -56 -23 -114q-56 -138 -182 -138q-20 0 -33 9t-19 27q44 0 83 23q66 39 102 143q11 34 11.5 56.5t-3 51t-21.5 66t-62.5 60.5t-104.5 23q-156 0 -230 -137q-43 -78 -42 -148v-2 q0 -70 15 -126q43 -156 178 -214q64 -28 141 -28q141 0 252.5 77t180 194t130 274.5t99.5 301.5q98 365 192 519q-8 2 -43.5 13.5t-48 14.5t-44 11.5t-49.5 11.5t-46 8q-49 8 -108 8q-213 0 -315 -160q-59 -90 -59 -187q0 -28 7 -57q18 -106 95 -128q15 -5 31 -5 q-10 -36 -54 -36q-100 0 -141 106q-20 51 -20 113.5t33 139.5q105 254 439 254q116 0 342 -76q75 105 172 105q13 0 20 -8t8 -23q-90 0 -159 -85q52 -13 105 -20q56 113 113 113q26 0 31 -16l2 -7q-39 0 -74 -93q95 2 130 75q11 23 11 43.5t-14 34.5t-32 14q8 25 35 25 q48 0 62 -56q5 -16 5 -33q0 -49 -47.5 -95.5t-142.5 -46.5h-20q-48 -156 -66.5 -374.5t-18.5 -364.5q0 -369 65 -369q28 0 69 132.5t92.5 321t115 378t156.5 322t200 132.5q23 0 38.5 -11.5t22.5 -35.5q-121 0 -220.5 -137t-163.5 -333.5t-117 -392.5t-106.5 -332.5 t-105.5 -136.5q-82 0 -121.5 134t-39.5 308q0 200 35.5 417t89.5 348q-59 10 -112 25q-92 -141 -175 -521q-33 -149 -88.5 -311.5t-123.5 -285.5t-187 -203t-276 -80q-241 0 -351 172q-60 95 -60 204q0 50 10 97z" />
<glyph unicode="O" horiz-adv-x="1205" d="M111 642q72 300 259 499t418 199q13 0 21.5 -8t9.5 -26q-226 0 -406 -254q-159 -224 -208 -523q-16 -100 -17 -185q0 -165 67.5 -278.5t204.5 -113.5q184 0 348 250q144 220 196 494q20 102 20 179q0 121 -48 183q-38 44 -93 45q-146 0 -242 -199q-86 -173 -86 -347 q0 -244 136 -244q-5 -31 -54 -31q-118 0 -159 149q-16 64 -16 151.5t38 210.5q69 221 214 310q72 44 154 44q157 0 192 -189q10 -52 10 -109q0 -162 -77 -372q-105 -290 -279 -448q-126 -116 -255 -116q-241 0 -333 223q-48 112 -48 239q0 129 33 267z" />
<glyph unicode="P" horiz-adv-x="1196" d="M-49 57q0 56 16.5 104.5t47.5 95t81.5 76t109.5 29.5q34 0 45 -23l5 -8q-143 0 -217 -121q-44 -70 -44 -141q0 -34 10 -67q34 -128 179 -128q64 0 116 32.5t87.5 82.5t64.5 132q44 123 82 331q-139 38 -139 159q0 48 25.5 73t43.5 25q29 0 34 -18l2 -6q-43 0 -59 -48 q-5 -16 -5 -32q0 -43 33.5 -71t72.5 -39q56 331 72 400q62 252 177 278q15 3 30 3q25 0 33 -19l1 -8q-69 0 -106 -76q-36 -75 -50 -167t-20.5 -144.5t-15.5 -138.5t-16 -140q202 7 333 179q110 144 110 313q0 190 -135 273q-79 48 -192 48q-318 0 -483 -226 q-115 -154 -115 -344q0 -187 99 -264q44 -36 101 -36q-15 -38 -50 -38q-138 0 -195 141q-32 76 -32 165q0 86 30 181q70 229 264 355q162 106 381 107q277 0 379 -179q48 -81 48 -165q0 -85 -28 -171q-62 -187 -226 -294q-133 -85 -294 -87q-49 -347 -162 -487 q-44 -56 -113 -90t-152.5 -34t-142.5 29.5t-83 74.5q-38 67 -38 123z" />
<glyph unicode="Q" horiz-adv-x="1205" d="M16 -161q8 39 51 39l1 1q43 0 108 -33q66 -34 125 -73.5t143.5 -73t161.5 -33.5q152 0 202 95q15 29 14.5 53.5t-14.5 44.5q-13 16 -33 18q8 31 41 31q64 0 85 -67q8 -25 8 -47q0 -54 -41 -105q-69 -88 -221 -89q-90 0 -185 38t-161 82q-177 119 -285 119zM111 642 q72 300 259 499t418 199q13 0 21.5 -8t9.5 -26q-226 0 -406 -254q-159 -224 -208 -523q-16 -100 -17 -185q0 -165 67.5 -278.5t204.5 -113.5q184 0 348 250q144 220 196 494q20 102 20 179q0 121 -48 183q-38 44 -93 45q-146 0 -242 -199q-86 -173 -86 -347q0 -244 136 -244 q-5 -31 -54 -31q-118 0 -159 149q-16 64 -16 151.5t38 210.5q69 221 214 310q72 44 154 44q157 0 192 -189q10 -52 10 -109q0 -162 -77 -372q-105 -290 -279 -448q-126 -116 -255 -116q-241 0 -333 223q-48 112 -48 239q0 129 33 267z" />
<glyph unicode="R" horiz-adv-x="1274" d="M-48 129q0 53 16 101t48 95t82.5 76.5t109.5 29.5q33 0 46 -23l3 -8q-143 0 -218 -121q-42 -67 -43 -138q0 -2 1 -3q0 -33 8 -68q36 -127 178 -127h2q69 0 124 34t90 85t65 135q44 129 78 332q-62 21 -88 61.5t-26 61.5v30q8 43 49.5 76t109.5 35q21 111 44 182.5 t65.5 121.5t101.5 50q23 0 29 -20l4 -8q-70 0 -104 -84.5t-52 -248.5q139 -26 213 -163q105 67 163 180t58 222.5t-82.5 190t-236.5 80.5q-297 0 -459 -211q-113 -149 -113 -318t87 -228q36 -23 78 -23q-16 -38 -50 -38q-123 0 -172 130q-25 62 -25 141.5t36 177.5 q75 215 272 325q151 85 346 85q139 0 235.5 -44.5t139.5 -112.5q46 -77 46 -165t-33.5 -168t-103.5 -156.5t-163 -121.5q41 -106 74 -397q11 -93 31 -182q43 -187 182 -187q-3 -29 -43 -29q-200 0 -242 190q-21 90 -27 182t-11 209t-23 189q-90 -33 -192 -33h-14 q-46 -356 -156 -486q-44 -54 -115.5 -90.5t-157.5 -36.5t-144 29.5t-84 75.5q-37 68 -37 126zM472 670q0 -67 77 -98q20 124 31 183q-59 -5 -83.5 -35t-24.5 -50zM652 554h7q92 0 178 39q-49 129 -165 156z" />
<glyph unicode="S" horiz-adv-x="1259" d="M59 220q0 128 43.5 228.5t95 162t126 98t158.5 36.5q118 0 188 -67l215 181q-7 57 -7 113q0 363 191 363h1q49 0 77 -34.5t31 -88.5v-6q0 -76 -50 -152q-52 -78 -152 -171q51 -339 51 -461t-31 -236t-95 -207.5t-175.5 -146t-258.5 -52.5q-211 0 -320 145 q-29 -103 -29 -235t69.5 -238t179.5 -106q8 0 9 -16t-9 -16q-129 0 -213 122t-84 270.5t43 273.5q-54 102 -54 240zM102 213q0 -97 31 -179q112 284 499 612q-52 56 -142 56h-2q-92 0 -165 -45q-136 -82 -195 -275q-26 -82 -26 -169zM162 -25q92 -150 290 -150h3 q123 0 215.5 51.5t145.5 139.5q103 174 103 421q0 61 -29 369l-192 -159q46 -62 46 -140t-24 -139.5t-83.5 -108t-138.5 -46.5q-16 0 -25 8t-13 26q70 0 130 66q85 92 85 206q0 48 -18 92q-184 -157 -310 -308t-185 -328zM962 1055q0 -44 8 -118q162 159 162 269 q0 85 -62 85q-108 0 -108 -236z" />
<glyph unicode="T" horiz-adv-x="987" d="M10 121q0 61 18 116t50 106.5t84.5 83.5t111.5 32q31 0 44 -23l5 -8q-138 0 -218 -127q-52 -84 -53 -172q0 -28 7 -57q23 -120 131 -144q26 -7 54 -7q98 0 167 67.5t105 174.5t60.5 237.5t44.5 260.5t46 237.5t76 174.5t124 67q23 0 31 -19l1 -9q-121 0 -155 -244 q-16 -110 -27.5 -241.5t-34.5 -263.5t-65 -241t-129.5 -177t-215.5 -68q-84 0 -143.5 32t-85.5 84q-33 67 -33 128zM16 826q0 73 30 154q64 177 228 262q106 54 225 54t271 -46.5t246 -46.5q141 0 162 65q11 31 -7 41q-3 2 -4 2q9 39 45 39q54 0 54 -64q0 -49 -51.5 -91 t-162 -42t-277 54.5t-264.5 54.5q-211 0 -329 -169q-80 -115 -80 -246q0 -187 127 -247q44 -21 100 -22q0 -11 -13 -24t-29 -13q-172 0 -239 142q-32 68 -32 143z" />
<glyph unicode="U" horiz-adv-x="1168" d="M-139 855.5q0 80.5 34 179.5q64 188 205 266q70 38 149 38q151 0 231 -102.5t80 -271.5q0 -98 -35 -222t-79 -222q-113 -256 -113 -386t96 -130q111 0 277 215v14q0 129 29.5 260.5t87 222.5t127.5 91q56 0 56 -67q0 -41 -20 -107q-51 -161 -180 -351q-2 -28 -2 -54 q0 -136 28 -232q34 -113 113 -113q-8 -33 -46 -33q-85 0 -132.5 84.5t-57.5 220.5q-164 -192 -278 -192q-203 0 -203 220q0 92 38.5 212t86 219t86 223t38.5 228.5t-60.5 168.5t-167.5 64q-164 0 -267 -167q-80 -133 -80 -280q0 -187 109 -238q31 -14 66 -14h5 q126 0 192 141q3 7 10.5 7.5t13 -4.5t2.5 -12q-31 -77 -87 -123.5t-131 -46.5q-147 0 -200 149q-21 64 -21 144.5zM811 374q151 247 151 352q0 29 -20 29q-43 0 -79.5 -112t-51.5 -269z" />
<glyph unicode="V" horiz-adv-x="1176" d="M-141 855.5q0 80.5 35 179.5q64 188 204 266q70 38 149 38q151 0 231.5 -102.5t80.5 -271.5q0 -123 -42 -285t-84.5 -311t-42.5 -224.5t22 -107.5t80 -32q93 0 180.5 98t159.5 259q-91 96 -91 324q0 215 86 363q57 98 135 98q73 0 73 -162q0 -107 -35 -266.5t-107 -326.5 q43 -48 102 -48q-8 -33 -48.5 -33t-79.5 22q-79 -165 -175.5 -267t-198.5 -102q-208 0 -208 220q0 113 47.5 271.5t95 320t47.5 278.5t-60.5 181t-167.5 64q-164 0 -267 -167q-80 -133 -80 -280q0 -187 110 -238q31 -14 65 -14h5q126 0 192 141q3 7 10.5 7.5t13 -4.5 t2.5 -12q-31 -77 -86.5 -123.5t-131.5 -46.5q-147 0 -200 149q-21 64 -21 144.5zM822 678q0 -154 41 -239q110 282 127 511q1 24 1 45q0 100 -36 100q-37 0 -70 -76q-62 -139 -63 -341z" />
<glyph unicode="W" horiz-adv-x="1577" d="M-141 855.5q0 80.5 35 179.5q64 188 204 266q70 38 149 38q151 0 231.5 -102.5t80.5 -271.5q0 -123 -49.5 -285t-98.5 -311t-49 -224.5t22 -107.5t80 -32q129 0 267 200q-13 87 -13 167q0 262 88 449q64 131 136 131q64 0 64 -113t-52.5 -272t-135.5 -303 q20 -224 124 -225q157 0 292 354q-75 126 -76 357q0 136 35 249q43 143 122 143t79 -195q0 -231 -100 -511q43 -92 110 -92q-8 -33 -54 -33t-87 45q-67 -162 -154.5 -261.5t-184.5 -99.5q-126 0 -179 157q-144 -188 -280 -188q-208 0 -208 220q0 162 110 432q39 98 73.5 222 t34.5 228.5t-60.5 168.5t-167.5 64q-164 0 -267 -167q-80 -133 -80 -280q0 -187 110 -238q31 -14 65 -14h5q126 0 192 141q3 7 10.5 7.5t13 -4.5t2.5 -12q-31 -77 -86.5 -123.5t-131.5 -46.5q-147 0 -200 149q-21 64 -21 144.5zM813 346q64 123 106 255q46 144 46 217 t-31 81q-43 0 -82 -181t-39 -358v-14zM1237 834q0 -216 33 -334q82 266 82 458q0 131 -45 132q-33 0 -51.5 -94.5t-18.5 -161.5z" />
<glyph unicode="X" horiz-adv-x="1512" d="M-11 48.5q0 64.5 40.5 131.5t95.5 119.5t159 120.5t178.5 110t205.5 112q2 7 5 22q61 283 61 401q0 234 -208 234q-154 0 -254 -150q-77 -118 -77 -245q0 -167 115 -206q28 -10 62 -10q126 0 192 139q8 15 18.5 7.5t7.5 -15.5q-31 -77 -87 -123.5t-131 -46.5 q-152 0 -200 141q-20 52 -20 124t41 169q67 165 203 228q62 28 147 28t150.5 -38.5t91.5 -104.5q37 -90 37 -209v-6q0 -57 -9 -121q133 238 258 370t268 132q51 0 79.5 -31.5t28.5 -89.5t-39.5 -123.5t-94.5 -119t-153 -118.5q-154 -102 -377 -223q-5 -29 -20 -111 q-47 -236 -47 -348q0 -62 28 -142q28 -90 149 -90q156 0 264 170q85 136 85 268t-71 143l-14 2q-95 0 -152.5 -95t-57.5 -182.5t36 -106.5q-7 -25 -29 -24q-72 0 -73 129q0 93 55 184q75 133 199 133q157 0 158 -191q0 -103 -61 -222q-85 -169 -224 -226q-56 -23 -136.5 -23 t-146 36.5t-89.5 99.5q-31 80 -31 167t13 159q-126 -228 -240 -353.5t-237 -125.5q-70 0 -111 38t-41 102.5zM43 52q0 -50 26 -75.5t77 -25.5t107.5 37t102 87.5t103.5 144.5q80 129 193 347l5 21q-369 -200 -493 -318q-51 -49 -86 -108.5t-35 -109.5zM791 706 q138 74 227.5 128t180.5 124q185 141 185 281q1 78 -68 78q-56 0 -114 -34.5t-105.5 -85t-105.5 -137.5q-80 -123 -200 -347v-7z" />
<glyph unicode="Y" horiz-adv-x="1263" d="M-126 -228q43 147 162 208q57 28 123 28q174 0 237 -134q28 -59 28 -113t-19 -103q-43 -113 -140 -113q-15 0 -26 8t-18 23q74 0 115 100q20 49 20 99t-23 102q-44 100 -178.5 100t-211.5 -129q-52 -87 -53 -182q0 -39 10 -81q34 -154 177 -208q63 -25 143 -25h4 q82 1 155 26.5t128 66.5t101 104.5t78 129t59 152.5q41 134 79 330q-146 -162 -251 -163q-203 0 -203 220q0 92 37 206.5t80.5 207t80.5 211.5t37 223.5t-61 168.5t-167 64q-164 0 -267 -167q-80 -133 -81 -280q0 -187 110 -238q31 -14 66 -14h5q126 0 191 141q3 7 10.5 7.5 t13.5 -4.5t3 -12q-31 -77 -87 -123.5t-131 -46.5q-147 0 -200 149q-21 64 -21 144.5t34 179.5q64 188 205 266q70 38 149 38q151 0 231 -102.5t80 -271.5q0 -123 -53 -276t-106.5 -294t-53.5 -233q0 -123 97 -123q115 0 267 205q54 313 79 392q51 172 140 172q59 0 59 -71 q0 -39 -18 -98q-44 -151 -162 -331q-46 -377 -124 -570q-84 -205 -204 -302q-66 -54 -159 -88t-204 -34q-244 0 -343 168q-48 81 -48 155t19 135zM949 413q118 208 123 305q-1 35 -22 37q-41 0 -60.5 -80t-40.5 -262z" />
<glyph unicode="Z" horiz-adv-x="1433" d="M-74 203q48 56 131.5 56t159 -33.5t170.5 -97.5q141 116 285 386q-54 -8 -131 -8t-157.5 29t-128 77t-76 110.5t-28.5 131t14.5 137.5t53 131.5t88.5 110.5t119.5 77t151 29t156 -29.5t149 -73t125.5 -60.5q115 186 218 186q81 0 81 -72v-2q0 -64 -69.5 -129t-167.5 -65 q-38 0 -56 4q-41 -75 -123.5 -254t-125.5 -262q200 85 277 313q3 10 18 12t28 -4.5t10 -17.5q-41 -123 -133.5 -218t-223.5 -136q-161 -300 -317 -429q84 -59 130.5 -88t123.5 -58.5t146 -29.5q149 0 252 161q82 125 82 251v6q-11 113 -85 123q-95 0 -157 -97.5t-62 -183.5 t31 -102q-8 -25 -30 -25q-69 0 -69 109t59 204q82 133 215 133q143 0 143 -177q0 -106 -69 -235q-90 -170 -233 -227q-56 -23 -119.5 -23t-125 16t-121.5 52.5t-92.5 61.5t-93.5 76q-100 -60 -209 -60h-4q-179 0 -228 90q-15 25 -15 56q0 33 33 68zM-64 131 q0 -34 47.5 -68.5t146.5 -34.5t186 51q-79 66 -142 99t-135.5 33t-95.5 -50q-7 -15 -7 -30zM185 880q0 -205 166 -290q90 -46 216 -46q69 0 128 15q43 80 133.5 271.5t138.5 275.5q-69 16 -148.5 61t-152.5 79t-143 34q-149 0 -251 -141q-87 -120 -87 -259zM1053 1165 q29 -5 61 -5q75 0 121 67q23 31 23 49q0 38 -36 38q-77 0 -169 -149z" />
<glyph unicode="[" horiz-adv-x="494" d="M-33 -182q51 259 233 1468h283q-5 -15 -41 -28t-86 -13h-77q-13 -84 -113 -689t-115 -697h69q51 0 83.5 -10t38.5 -19l9 -12h-284z" />
<glyph unicode="\" horiz-adv-x="748" d="M151 1076q0 64 31 64q33 0 42.5 -44t118 -571.5t126.5 -603t18 -106.5t-23 -31q-13 0 -20 29q-28 133 -148.5 628.5t-132.5 548t-12 86.5z" />
<glyph unicode="]" horiz-adv-x="537" d="M-33 -182q5 15 41 28t87 13h77q13 84 113 689t115 697h-69q-51 0 -83.5 10t-41.5 20l-6 11h283q-51 -259 -232 -1468h-284z" />
<glyph unicode="^" horiz-adv-x="676" d="M3 634l351 251h74l250 -251h-50l-223 208l-349 -208h-53z" />
<glyph unicode="_" horiz-adv-x="1073" d="M-38 -97q0 26 53 36q13 2 29 2l815 -15q16 0 16 -8q0 -22 -69 -24l-826 -4q-18 0 -18 13z" />
<glyph unicode="`" horiz-adv-x="648" d="M226 1009.5q0 16.5 10 32.5t25.5 16.5t31.5 -14.5q59 -54 112.5 -119t53.5 -80.5t-17.5 -15.5t-74.5 41t-118 100q-23 23 -23 39.5z" />
<glyph unicode="a" d="M-84 193q0 113 59 248q82 182 209 237q44 18 89 18t71 -26t26 -59q0 -15 -15.5 -14t-15.5 16t-15.5 27t-44.5 12q-103 0 -187 -185q-79 -172 -79 -326q0 -95 42 -95t101.5 71t110.5 166q110 200 129.5 257.5t42.5 57.5q41 0 41 -69q0 -21 -5 -49q-54 -262 -58 -303 t-4 -59q0 -79 38 -79q43 0 119.5 113t132.5 226l56 114h44q-10 -20 -25.5 -53.5t-61.5 -119.5t-87.5 -151.5t-93.5 -119t-89 -53.5q-121 0 -122 177q0 59 14 138h-12q-167 -312 -280 -312q-129 0 -130 195z" />
<glyph unicode="b" horiz-adv-x="607" d="M-33 224q0 139 60 400.5t160 486t190 224.5q69 0 69 -85q0 -29 -9 -69q-31 -156 -144 -321q-85 -125 -155 -154q-84 -365 -84 -513.5t79 -148.5q85 0 154.5 146t94.5 311q-52 26 -74 82q-13 33 -13 57t6 42q14 44 50 44q73 0 73 -150q0 -20 -1 -39q20 -7 57.5 -6t67 31.5 t29.5 56.5q0 7 8 9.5t15.5 -1t7.5 -9.5q0 -48 -40 -90.5t-108 -42.5q-18 0 -41 3q-13 -111 -52 -220t-104 -188.5t-134 -79.5q-162 0 -162 224zM149 755q90 59 175.5 236t85.5 256q0 49 -30 51q-51 0 -113 -156t-118 -387z" />
<glyph unicode="c" horiz-adv-x="555" d="M-59 276q0 75 46 183q67 161 183 216q46 21 91 21t72 -24q31 -29 31 -68t-8.5 -71.5t-33.5 -58t-57 -25.5q-13 0 -19 18q13 0 35 46.5t22 92.5t-39 46q-85 0 -155 -142.5t-70 -276.5q0 -192 133 -192q52 0 110.5 46.5t105.5 112.5q105 151 148 246l21 46h44 q-28 -66 -82 -162t-103 -161.5t-116 -118.5t-128 -53q-170 0 -216 155q-15 49 -15 124z" />
<glyph unicode="d" horiz-adv-x="768" d="M-82 193q0 113 59 248q82 182 208 237q44 18 89 18t71.5 -26t26.5 -59q0 -15 -15.5 -14t-15.5 16t-15.5 27t-45.5 12q-103 0 -187 -185q-78 -170 -78 -322q0 -99 41 -99q56 0 139.5 121t146.5 260.5t90 255t82 315.5q36 129 95 129q13 0 20 -9t5 -18t-49.5 -181 t-74.5 -286t-59 -263.5t-32 -240t41 -90.5q44 0 122 113t134 226l54 114h44q-10 -20 -25.5 -53.5t-61 -119.5t-87.5 -151.5t-94.5 -119t-90.5 -53.5q-117 0 -117 171q0 67 18 170h-14q-182 -338 -294 -338q-129 0 -130 195z" />
<glyph unicode="e" horiz-adv-x="565" d="M-61 269q0 126 74 252q102 175 251 175q105 0 105 -114q0 -85 -66 -177q-92 -125 -215 -126q-18 0 -22 16l-2 6q85 0 163 112.5t78 187.5q0 51 -40 51q-87 0 -162 -152q-62 -130 -62 -261q0 -198 141 -198q52 0 110.5 46.5t105.5 112.5q105 151 148 246l21 46h44 q-28 -66 -82 -162t-103 -161.5t-116.5 -118.5t-127.5 -53q-242 0 -243 272z" />
<glyph unicode="f" horiz-adv-x="462" d="M-392 -564q0 41 18 102q51 170 189 356q64 85 111 122q10 62 31.5 197.5t32.5 205.5h-44q-8 0 -8 16t8 16h49q80 513 170 706q34 77 82 127.5t104 50.5q103 0 103 -150q0 -123 -76 -266q-92 -172 -219 -211l-38 -8q-15 -80 -41 -248q69 5 133 36q8 87 40 148.5t81 61.5 q39 0 40 -46q0 -87 -97 -160q-2 -25 -2 -50q0 -145 45 -145h1q-2 -20 -28 -20q-41 0 -61.5 50t-20.5 125q-66 -28 -136 -33q-88 -552 -150 -755q-95 -319 -228 -319q-88 0 -89 91zM-346 -549.5q0 -61.5 36 -61.5q75 0 127.5 150.5t100.5 429.5q-93 -97 -178.5 -277 t-85.5 -241.5zM129 742q119 26 207 200q74 143 74 249.5t-53 106.5q-74 0 -126 -143.5t-102 -412.5zM282 536q29 28 44.5 59t15.5 50t-9 22q-36 0 -51 -131z" />
<glyph unicode="g" horiz-adv-x="635" d="M-262 -495q0 93 70 202q102 159 272 209q61 18 126 18q11 0 11.5 -22.5t-11.5 -22.5q-193 0 -324 -153q-97 -115 -97 -221t82 -123l27 -1q134 0 212 111q80 113 127 285q46 174 118 544h-13q-177 -333 -292 -333q-129 0 -130 195q0 113 59 248q82 182 209 237 q44 18 89 18t71 -26t26 -59q0 -15 -15.5 -14t-15.5 16t-15.5 27t-44.5 12q-103 0 -187 -185q-79 -172 -79 -326q0 -95 41 -95q54 0 141 128q131 193 205 378q19 46 39 46q41 0 41 -69q0 -49 -54 -284t-96.5 -389t-80.5 -228.5t-91 -150t-117 -103.5t-147 -28 q-156 0 -156 159z" />
<glyph unicode="h" horiz-adv-x="671" d="M-82 78q0 22 13 82t43.5 210.5t52 249.5t49 223t53 201.5t58.5 149.5q62 141 142 141q74 0 74 -98q0 -25 -5 -57q-25 -156 -129 -321q-75 -120 -143 -151q-33 -177 -57 -321h11q138 306 279 306q51 0 79.5 -31t28.5 -85t-42.5 -237t-42.5 -255q0 -106 39 -106 q0 -11 -14.5 -23t-34.5 -12q-95 0 -95 149q0 92 48.5 273t48.5 233.5t-41 52.5q-48 0 -105.5 -80t-106.5 -205q-82 -200 -123 -334q-10 -33 -27 -33q-29 0 -45 36q-8 20 -8 42zM136 757q66 46 136 183q93 186 93 294q0 52 -29 64q-97 0 -200 -541z" />
<glyph unicode="i" horiz-adv-x="376" d="M-56 152q0 118 67 384q7 28 11 42.5t9 38.5t10 43q8 34 29 35q29 0 43 -43q7 -20 7 -47.5t-7 -58t-21.5 -89.5t-22.5 -96.5t-18 -91.5q-19 -93 -19 -162q0 -68 38 -68q43 0 120 113t133 226l55 114h45q-10 -20 -25.5 -53.5t-61.5 -119.5t-88 -151.5t-93.5 -119 t-88.5 -53.5q-121 0 -122 157zM88 854q15 0 21.5 32t20.5 63.5t45 31.5q38 0 38 -50.5t-49 -81.5q-25 -16 -43 -17q-26 0 -31 17z" />
<glyph unicode="j" horiz-adv-x="285" d="M-444 -570q0 41 21 105q56 167 200 352q77 102 133 136q28 126 123 637q4 35 29 35q29 0 43 -43q7 -20 6.5 -47.5t-16.5 -94t-48 -209t-55 -242.5t-54 -220.5t-60.5 -200.5t-65.5 -152q-72 -141 -171 -141q-85 0 -85 85zM-398 -564q0 -47 33 -47h1q131 0 264 590 q-92 -80 -195 -272t-103 -271zM56 854q15 0 21.5 32t20.5 63.5t45 31.5q38 0 38 -49q0 -52 -50 -83q-25 -16 -43 -17q-26 0 -31 17z" />
<glyph unicode="k" horiz-adv-x="624" d="M-82 78q0 22 13 82t43.5 210.5t52 249.5t49 223t53 201.5t58.5 149.5q62 141 142 141q74 0 74 -98q0 -25 -5 -57q-25 -156 -129 -321q-75 -120 -143 -151q-11 -61 -31 -174t-28 -157h8q139 316 284 316q108 0 108 -120q0 -79 -66.5 -170.5t-177.5 -117.5 q56 -21 94.5 -74.5t52.5 -102.5q38 -129 76 -129q0 -11 -15 -23t-35 -12q-56 0 -87.5 52.5t-41.5 115t-36 115t-72 52.5h-3q-15 0 -22 22q102 0 187 125q64 93 64 160.5t-44 67.5q-52 0 -114.5 -88t-111.5 -209q-95 -234 -117 -324q-10 -33 -27 -33q-29 0 -45 36 q-8 20 -8 42zM136 757q66 46 136 183q93 186 93 294q0 52 -29 64q-97 0 -200 -541z" />
<glyph unicode="l" horiz-adv-x="388" d="M-38 185q0 88 33 271t85.5 383t136 348t170.5 148q68 0 68 -85q0 -68 -40 -185q-79 -229 -227 -459q-39 -61 -70 -98q-8 -10 -8 6q-2 31 15 55q134 201 234 458q59 154 59 210t-28 59q-77 0 -160 -246.5t-129.5 -511t-46.5 -374.5q0 -185 92 -185q0 -11 -15 -23t-34 -12 q-134 0 -135 241z" />
<glyph unicode="m" horiz-adv-x="1010" d="M21 619q5 34 30 35q29 0 44 -43q8 -23 8 -50t-6 -58l-25 -125h10q144 324 278 325q46 0 73 -33t27 -79q0 -85 -26 -213h7q139 303 273 304q44 0 72 -33t28 -87t-41.5 -229.5t-41.5 -247.5q0 -106 39 -106q0 -11 -14.5 -23t-34.5 -12q-95 0 -95 149q0 93 47.5 269.5 t47.5 226.5t-33 50q-61 0 -142 -146.5t-129 -281t-56.5 -173t-29.5 -38.5q-46 0 -46 70q0 26 28 186q54 292 54 348t-33 56q-44 0 -103 -91t-106 -210q-103 -252 -122 -326q-7 -33 -28 -33q-45 0 -45 67q0 41 91 552z" />
<glyph unicode="n" horiz-adv-x="666" d="M21 619q5 34 30 35q29 0 44 -43q8 -23 8 -50t-6 -58l-27 -131h10q147 331 282 331q52 0 80 -32t28 -87.5t-44 -241t-44 -257.5q0 -106 39 -106q0 -11 -14.5 -23t-34.5 -12q-95 0 -95 149q0 92 50 278t50 237.5t-41 51.5q-59 0 -142 -154t-133 -294t-57.5 -176t-28.5 -36 q-45 0 -45 67q0 41 91 552z" />
<glyph unicode="o" horiz-adv-x="643" d="M-59 242q0 103 48 222q62 154 154 191q28 9 46 9q11 0 19 -4q18 -11 23 -26q-75 0 -134 -141t-59 -277q0 -172 91 -172q62 0 117 77q103 144 126 380q-57 25 -80 81q-15 34 -15 58t6 42q15 44 54.5 44t60 -50t20.5 -127v-12q20 -7 58 -6t67.5 31.5t29.5 56.5q0 7 8.5 9.5 t16 -1t7.5 -9.5q0 -48 -40.5 -90.5t-107.5 -42.5q-16 0 -42 3q-10 -111 -47 -220t-102.5 -188.5t-140.5 -79.5q-143 0 -176 152q-8 44 -8 90z" />
<glyph unicode="p" horiz-adv-x="663" d="M-323 -575q0 46 20 121q51 182 159 349l44 61q15 74 39 213q49 280 71.5 371t52.5 124.5t52 33.5q41 0 29 -33q-41 -134 -85 -318h11q161 349 290 349q105 0 132 -134q8 -43 8 -87q0 -108 -49 -234q-69 -180 -184 -228q-34 -15 -69 -15q-80 0 -93 89q-2 15 6.5 23t20 4.5 t12.5 -16.5q8 -54 56 -54q62 0 136 169q75 179 75 326q0 102 -52 103q-51 0 -115.5 -82t-117.5 -193q-113 -244 -141 -365q-87 -393 -119 -489q-57 -167 -131 -167q-57 0 -58 79zM-295 -570q0 -39 25 -39q64 0 157 494q-97 -151 -156 -334q-26 -82 -26 -121z" />
<glyph unicode="q" horiz-adv-x="635" d="M-136 -93q7 36 38 36q220 0 359 218q114 175 114 373q0 132 -62 164q-15 8 -31 8q15 44 52 44q95 0 121 -122q10 -44 10 -94q0 -111 -50 -244q-88 -226 -259 -323q-72 -43 -154 -52q5 -2 38.5 -21.5t49.5 -26t51 -18.5q59 -23 151.5 -23t123.5 69q18 38 2 49q-3 2 -7 2 q3 21 25 21q28 0 28 -39q0 -85 -77 -144q-52 -41 -131 -41t-151 41t-131 82t-110 41zM-52 262q0 103 50 221q67 157 171 195q26 8 46 8q36 0 57 -21q-92 0 -161.5 -145.5t-69.5 -290t85 -144.5q-3 -26 -38 -26q-111 0 -136 131q-4 30 -4 60v12z" />
<glyph unicode="r" horiz-adv-x="527" d="M-69 70q0 38 92 549q7 34 29 35q29 0 45 -43q8 -23 8 -50t-7 -58l-26 -134h8q141 327 258 327h1q66 0 87 -64q8 -25 8 -56.5t-18 -69.5q-31 -64 -93 -64q-13 0 -20.5 6.5t-9.5 18.5q13 0 34.5 48.5t25 89.5t-28.5 47q-57 0 -135.5 -149t-126 -285t-56 -177t-29.5 -41 q-46 0 -46 70z" />
<glyph unicode="s" horiz-adv-x="519" d="M-33 83q0 122 87 261q51 80 110 121q16 11 22 -5t-7 -26q-95 -69 -148 -218q-27 -75 -27 -124q0 -39 17 -63q13 -20 38 -19q72 0 113 96.5t41 240.5q0 125 -29.5 231.5t-32.5 122.5q-49 -93 -107 -209h-44q93 185 144 278q7 105 58 105h3q15 -2 23 -13.5t8 -23.5 t-22 -51.5t-22 -63t6.5 -44t40.5 -99.5q76 -173 76 -309q0 -133 -73 -221t-174 -88.5t-101 121.5z" />
<glyph unicode="t" horiz-adv-x="404" d="M-46 716q0 18 23 18h85q8 33 22 82l22 85q10 38 17.5 69t28.5 31q28 0 40 -43q5 -18 5 -44t-10 -67l-31 -113h101q15 0 20.5 -10t0 -19t-20.5 -9h-111q-102 -382 -102 -540q0 -116 53 -117q43 0 119.5 113t132.5 226l56 114h44q-10 -20 -25.5 -53.5t-61.5 -119.5 t-87.5 -151.5t-93.5 -119t-96 -53.5t-76 28.5t-41 82t-9 109.5q0 129 92 481h-74q-13 0 -18 7.5t-5 12.5z" />
<glyph unicode="u" horiz-adv-x="765" d="M18 554q20 70 29.5 105.5t31.5 35.5q29 0 42 -43q7 -18 7 -45t-8.5 -59t-34.5 -122q-70 -242 -70 -326q0 -54 33 -54q41 0 96 74q59 77 97 149t60.5 118t45.5 95.5t37 82.5t27 63.5t13 31.5q15 34 33 35q29 0 43 -43q7 -20 6.5 -47.5t-7 -58t-21 -89.5t-23 -96.5 t-19.5 -91.5q-16 -90 -16 -160q0 -1 -1 -2q0 -68 38 -68q43 0 120 113t132 226l56 114h44q-10 -20 -25.5 -53.5t-61 -119.5t-87.5 -151.5t-93.5 -119t-97.5 -53.5t-75 28q-36 36 -36 126t31 238h-12q-188 -387 -313 -387q-109 0 -109 140q0 106 88 414z" />
<glyph unicode="v" horiz-adv-x="593" d="M-49 282q21 106 88 342q10 34 31 35q29 0 43 -43q7 -18 7 -45t-10 -65q-62 -234 -70.5 -282.5t-8.5 -82.5q0 -97 61 -97q88 0 164.5 147.5t103.5 313.5q-49 26 -64.5 69.5t-15.5 67t7 41.5q13 43 49 43q70 0 70 -136q0 -25 -3 -51q28 -8 64 -8t65.5 31t29.5 57q0 7 8 9.5 t15.5 -1t7.5 -9.5q0 -48 -40 -90.5t-107 -42.5q-26 0 -48 5q-43 -262 -170 -411q-67 -79 -131 -79q-118 0 -145 79q-15 42 -15 87q0 47 14 116z" />
<glyph unicode="w" horiz-adv-x="940" d="M-59 183.5q0 52.5 11 116.5q25 121 96 362q10 34 31 34q29 0 42 -41q7 -20 7 -46.5t-8.5 -56t-20 -72.5t-19.5 -72.5t-18.5 -72t-16.5 -73.5t-10 -67t-0.5 -61.5t11.5 -46.5q16 -43 69 -43q79 0 168 130q-6 34 -6 70v10q0 110 41 234q57 170 116 171q48 0 48 -74 q0 -29 -9 -69q-25 -139 -108 -288q15 -184 89 -184q61 0 116 77q100 141 135 380q-52 26 -69.5 70.5t-17.5 69.5q0 85 55 85q69 0 69 -153v-34q25 -8 61.5 -8t66 31t29.5 57q0 7 7.5 9.5t16 -1t8.5 -9.5q0 -48 -40.5 -90.5t-107.5 -42.5q-25 0 -44 5q-29 -259 -152 -411 q-64 -79 -136 -79q-115 0 -154 121q-97 -121 -186 -121q-125 0 -154 85q-16 46 -16 98.5zM364 311q34 71 57 139.5t25.5 92.5t2.5 40.5t-13 19.5q-28 0 -49.5 -91t-22.5 -201z" />
<glyph unicode="x" horiz-adv-x="642" d="M-74 40q0 12 8.5 23t39.5 55q79 108 182 244q-66 216 -99 252q-18 20 -39 20q13 39 62 39q70 0 148 -222q199 245 264 245h1q16 0 27.5 -10.5t16.5 -31.5q-69 0 -291 -262q7 -21 20.5 -64t21 -66.5t20.5 -61.5t22 -60t22 -51.5t24.5 -46t24.5 -32.5q25 -31 56 -31 q-5 -35 -49 -35h-1q-43 0 -77 29q-35 29 -65 86q-48 92 -91 244q-97 -120 -159.5 -203.5t-65.5 -86.5q-10 -13 -16.5 1t-6.5 26z" />
<glyph unicode="y" horiz-adv-x="661" d="M-177 -293q102 159 272 209q61 18 126 18q11 0 11.5 -22.5t-11.5 -22.5q-193 0 -324 -153q-97 -115 -97 -221t82 -123l26 -1q136 0 218 114q57 82 86 166.5t43 135t32 133.5t28.5 140.5t31 164.5t31.5 170h-9q-198 -415 -326 -415q-110 0 -110 143q0 103 88 411 q20 70 30 105.5t31 35.5q29 0 43 -43q7 -18 6.5 -45t-8.5 -59t-35 -122q-70 -242 -70 -326q0 -54 33 -54q39 0 97 73.5t114 180.5q102 193 166 360q13 34 32 35q28 0 41 -43q7 -23 7 -51t-27 -160.5t-54 -253.5t-70.5 -285t-82 -244.5t-93.5 -164t-122 -115.5t-151 -32 q-155 0 -155 157q0 95 70 204z" />
<glyph unicode="z" horiz-adv-x="670" d="M-93 11q0 5 3 9q221 279 449 519q-49 -13 -98 -13q-143 0 -179 83q-8 21 -8 47t23.5 53t53 27t43.5 -11t19 -32q-25 0 -31 -28q-2 -8 -2 -15q0 -33 46 -50q30 -12 88 -12h2q57 0 112 21q90 87 116 87q13 0 13 -9.5t-24.5 -44t-93.5 -72.5q-121 -134 -383 -445q7 2 27 1.5 t86.5 -31.5t118.5 -31q95 0 128 77q10 25 10 47t-11.5 36.5t-27.5 14.5q3 21 24 22q61 0 61 -96q0 -69 -52.5 -136t-147.5 -67q-46 0 -82 19t-54 40q-52 59 -86 59t-64 -40t-54.5 -40t-24.5 11z" />
<glyph unicode="{" horiz-adv-x="660" d="M85 609q0 22 12 22q62 0 97 73t54 176t44.5 207t88.5 177t166 73q23 0 31 -20l2 -8q-85 0 -136.5 -45t-68 -113t-29.5 -152.5t-21.5 -161.5t-41 -141.5t-90.5 -90.5q36 -34 36 -110t-14 -149q-46 -224 -46 -336q0 -59 29.5 -102.5t99.5 -43.5q-7 -28 -33 -28 q-88 0 -122 77q-26 62 -27 146q0 79 17.5 210.5t17.5 175t-2 65.5q-5 77 -51 77q-13 0 -13 22z" />
<glyph unicode="|" horiz-adv-x="661" d="M234 -198q10 783 27 1212q2 134 60 135q26 0 26 -40q0 -16 -29.5 -576.5t-32.5 -658.5q-3 -105 -34 -105q-13 0 -17 33z" />
<glyph unicode="}" horiz-adv-x="583" d="M-49 -136q100 0 152.5 61.5t67 155t22.5 189.5q23 243 143 297q-38 36 -38 112t15 148q48 231 47.5 313t-30 125.5t-99.5 43.5q7 28 33 28q88 0 123 -77q26 -64 26 -149q0 -84 -16.5 -211.5t-16.5 -171v-64.5q7 -77 53 -77q13 0 13 -22.5t-13 -22.5q-62 0 -97.5 -73 t-54.5 -176t-44.5 -207t-88.5 -177t-164 -73q-23 0 -30 20z" />
<glyph unicode="~" horiz-adv-x="812" d="M143 696h42q28 -38 82 -37.5t157.5 40.5t162.5 40t115.5 -32t83.5 -65l27 -31h-43q-67 61 -157 61h-12q-61 0 -162 -33t-147 -33t-82 23t-53 46z" />
<glyph unicode="&#xa1;" horiz-adv-x="752" d="M-213 -423.5q0 82.5 29.5 150.5t76 122t103 106.5t112.5 103.5t102 102q106 114 106 234q0 21 32 21t32 -21q0 -149 -170 -316q-72 -70 -143.5 -141.5t-121.5 -165t-50 -195.5q0 -149 143 -149q123 0 190 133q38 79 37 152q0 29 -6 59q-18 85 -82 85q0 23 36 23 q102 0 131 -100q10 -33 10 -65q0 -74 -44 -154q-97 -174 -297 -174q-111 0 -168.5 53.5t-57.5 136zM339 570q23 0 28 64q3 25 16 44.5t38 19.5q39 0 39 -51t-47 -82q-23 -16 -41 -16q-26 0 -33 21z" />
<glyph unicode="&#xa2;" horiz-adv-x="555" d="M-62 259q0 98 47 208q70 159 194 211q31 13 65 17l25 162q3 18 11 18q3 0 7 -3q20 -8 19.5 -37t-1.5 -47l-13 -93q52 -10 72 -53q13 -25 13 -44.5t-7 -33.5q-13 -39 -44 -40q-13 0 -20 18q8 0 15 24t-1.5 51t-34.5 33l-97 -607q44 7 87 42.5t63 68.5l21 33h44 q-57 -116 -146 -166q-38 -21 -75 -24q-23 -152 -25.5 -168t-7.5 -16q-23 0 -23 44q0 13 2 28l15 113q-152 13 -192 163q-13 48 -13 98zM36 233q0 -177 113 -192q43 305 89 606q-84 -28 -143 -160.5t-59 -253.5z" />
<glyph unicode="&#xa3;" horiz-adv-x="1141" d="M-18 61q0 33 38.5 64t110 31t207.5 -76q80 90 135 371h-157q-20 0 -18 11q3 23 61 28l21 2h100q49 257 87 347q79 192 242 192q136 0 186 -109q20 -43 19.5 -85t-21.5 -87q-41 -77 -125 -78q-31 0 -44 23l-5 8q43 0 74 29q51 46 51 128q0 64 -38.5 96t-82 32t-69 -8 t-45 -27t-34.5 -37t-28 -54t-21 -60.5t-18 -72t-13 -74.5q-18 -116 -28 -167q57 -2 229 -1q18 0 17 -10q-7 -23 -69 -23q-131 0 -184 -2q-52 -300 -165 -406q170 -93 265 -94q120 0 158 84q11 26 11 49t-12.5 38.5t-28.5 15.5q5 20 25 20q56 0 73 -62q7 -21 7 -41 q0 -49 -38 -92q-52 -62 -155 -62q-62 0 -128.5 19.5t-107 40t-104.5 56.5q-80 -57 -210 -57t-161 68q-7 16 -7 32zM28 57q0 -25 37.5 -41t109.5 -16t131 49q-116 66 -186.5 66t-88.5 -41q-3 -9 -3 -17z" />
<glyph unicode="&#xa4;" horiz-adv-x="943" d="M103 57q0 8 8 18l87 87q-13 34 -13 83.5t31 114.5q52 110 148 133q10 2 14.5 -4.5t3 -15t-6.5 -9.5q-54 -15 -85 -105q-21 -61 -21 -118q0 -141 83.5 -141t136 108t52.5 208q0 146 -86 146q-52 0 -85.5 -29.5t-56.5 -22.5q-8 2 -3 8l-112 111q-10 10 -7.5 21.5t13.5 13 t22 -8.5l110 -111q59 51 125.5 51t103.5 -33l97 97q8 8 16 8q18 0 18 -17q0 -10 -8 -19l-98 -99q28 -46 28 -111q0 -123 -72 -231l108 -108q10 -10 7.5 -20.5t-12.5 -13t-21 7.5l-105 105q-77 -93 -170.5 -93.5t-136.5 60.5l-78 -79q-8 -8 -17 -8q-18 0 -18 16z" />
<glyph unicode="&#xa5;" horiz-adv-x="1025" d="M3.5 766q-0.5 58 35.5 137q77 164 230 164q102 0 157.5 -63.5t55.5 -158.5t-54 -266t-54 -235t55 -64q92 0 207 143q26 188 56.5 289.5t55 128.5t56.5 27q56 0 56 -64q0 -31 -13 -77q-31 -105 -111 -229q-26 -220 -68 -349l84 -2q18 0 16 -8q-3 -20 -68 -19 q-20 -2 -41 -2l-30 -72l90 -2q18 0 17 -8q-3 -20 -69 -20q-25 -2 -54 -1q-108 -203 -316 -203q-156 0 -200 103q-13 31 -13 66t28.5 78t80.5 43q31 0 38 -20l3 -8q-69 0 -93 -64q-10 -23 -10 -53.5t33.5 -68t107.5 -37.5q154 0 244 162h-95q-20 0 -18 10q20 23 82 26h49 q16 38 28 67h-108q-20 0 -18 10q20 23 82 26h55q29 88 51 204q-111 -116 -193 -117q-144 0 -144 139q0 79 55.5 248t55.5 260q0 141 -129 141q-110 0 -176 -113q-44 -75 -44 -152q0 -34 8 -71q31 -111 151 -111q-3 -28 -44 -28q-115 0 -149 115q-11 41 -11.5 99zM744 588 q72 134 72 195q0 33 -19.5 33t-29.5 -50t-16.5 -110.5t-6.5 -67.5z" />
<glyph unicode="&#xa6;" horiz-adv-x="676" d="M234 -198q2 120 12 601h65q-5 -95 -11 -216q-11 -223 -15 -316q-3 -102 -34 -102q-13 0 -17 33zM249 560q10 429 12 454q1 135 60 135q26 0 26 -46t-28 -543h-70z" />
<glyph unicode="&#xa7;" horiz-adv-x="955" d="M-25 156q0 26 25 37.5t49.5 -1t24.5 -43.5q0 -80 37.5 -125t140 -45t163 70.5t60.5 168.5q0 118 -111 219q-48 43 -95 87q-111 103 -112 231q0 88 58.5 150.5t161.5 74.5q-34 64 -35 134q0 98 70 163t191 65q85 0 136 -42t51 -106q0 -31 -50 -31t-50 31q0 108 -107 109 q-66 0 -106 -43.5t-40 -106t34 -115t81.5 -96.5t94.5 -90q115 -113 115 -243q0 -97 -55 -176t-138 -114q8 -36 8 -68q0 -131 -94.5 -221.5t-233 -90.5t-206.5 62.5t-68 154.5zM252 794q0 -63 37 -119.5t85 -97.5q136 -118 178 -213q48 31 78 90t30 120.5t-28.5 114.5 t-64.5 87.5t-87 83t-79 84.5h-3q-65 0 -105.5 -43.5t-40.5 -106.5z" />
<glyph unicode="&#xa8;" horiz-adv-x="496" d="M87 854q15 0 21.5 32t20.5 63.5t45 31.5q38 0 37.5 -50.5t-49.5 -81.5q-25 -16 -42 -17q-26 0 -32 17zM293 854q15 0 21.5 32t20.5 63.5t45 31.5q38 0 38 -50.5t-49 -81.5q-25 -16 -43 -17q-26 0 -31 17z" />
<glyph unicode="&#xa9;" horiz-adv-x="1266" d="M125 338q0 28 3 55q18 190 167 325.5t339 135.5t311 -136q105 -116 105 -277q0 -23 -1 -48q-21 -190 -170.5 -325t-339.5 -135t-311 136q-103 115 -103 269zM157 342q0 -144 95 -250q113 -126 290 -126t317 126q161 144 160 349q0 147 -98 254q-113 126 -290 126 t-315.5 -125.5t-154.5 -302.5q-4 -26 -4 -51zM393 338q0 95 56 191q77 131 187 131q33 0 53 -18.5t22.5 -46.5t-4 -55t-26 -46t-34.5 -19q-20 0 -23 13q10 0 26.5 35.5t16.5 70t-30 34.5q-64 0 -117 -106.5t-53 -206.5q0 -144 102 -145q31 0 63 21.5t46 42.5l17 22l31 -10 q-8 -13 -22 -31t-55 -48.5t-80 -30.5q-175 0 -176 202z" />
<glyph unicode="&#xaa;" horiz-adv-x="955" d="M162 840q0 95 56 199q85 154 210 154q33 0 51.5 -19t18.5 -33.5t-10 -19.5t-19 -4.5t-9 7.5q0 28 -32 28q-67 0 -122 -108q-59 -115 -59 -205t28 -103q66 0 202 281q20 43 33.5 74t34 31t28 -22.5t0.5 -60.5q-36 -169 -36 -242.5t40 -73.5q31 0 72.5 80t66.5 160l26 81 h35q-5 -15 -12.5 -39t-30.5 -84.5t-46 -107t-55 -84.5t-60 -38q-106 0 -106 156q0 26 3 57h-10q-113 -210 -193 -209q-105 0 -105 145z" />
<glyph unicode="&#xab;" horiz-adv-x="879" d="M62 380q0 10 10 16l292 186v-41l-228 -176l143 -209v-45q-216 251 -217 269zM354 380q0 10 10 16l291 186v-41l-227 -176l142 -209v-45q-216 251 -216 269z" />
<glyph unicode="&#xac;" horiz-adv-x="1258" d="M115 480v34l776 23h20.5t29 -13.5t11.5 -25t-3 -21.5l-135 -310h-39l90 298z" />
<glyph unicode="&#xad;" horiz-adv-x="997" d="M156 477q0 26 52 36q13 2 30 1l507 -14q16 0 17 -8q0 -23 -69 -25l-519 -3q-18 0 -18 13z" />
<glyph unicode="&#xae;" horiz-adv-x="894" d="M213 927q0 131 91.5 216.5t202.5 85.5t177 -74t66 -170q0 -11 -1 -23q-13 -111 -99 -189t-197 -78t-175.5 72t-64.5 160zM231 932q0 -84 60.5 -151t162.5 -67q72 0 141 40q-38 5 -52.5 34.5t-18 90.5t-6.5 76q-18 -7 -43 -6h-3q-20 -161 -116 -161q-49 0 -64 34 q-7 16 -7 33.5t12 39.5q21 34 57 34l16 -11q-51 0 -64 -48q-3 -11 -3 -30t17.5 -27.5t28.5 -8.5q41 0 61.5 39.5t31.5 110.5q-33 13 -28.5 41.5t40.5 30.5q18 93 57 93q11 0 12 -8v-2q-33 0 -41 -87q33 -7 52 -39q51 36 51 97q0 21 -10 41q-18 33 -65 32q-98 0 -136 -83 q-15 -31 -15 -55.5t13 -42t33 -17.5q-3 -13 -18 -13q-51 0 -51 66.5t48.5 114t123 47.5t100.5 -41q15 -23 15 -46t-10 -44q-21 -51 -71 -76q10 -26 16.5 -77.5t17 -83.5t35.5 -37q120 85 120 223q0 85 -61.5 153t-164 68t-182.5 -72q-92 -84 -92 -205zM429 988q0 -13 17 -20 q3 29 6 45q-23 -4 -23 -25zM473 963q20 0 41 9q-9 27 -34 37z" />
<glyph unicode="&#xb0;" horiz-adv-x="571" d="M123 820q0 55 37.5 92.5t94 37.5t94.5 -37.5t38 -93.5t-38 -93.5t-94.5 -37.5t-94 38.5t-37.5 93.5zM164 820q0 -37 26 -63t62 -26t63 26t27 63t-26 63t-63.5 26t-63 -26t-25.5 -63z" />
<glyph unicode="&#xb1;" horiz-adv-x="1150" d="M156 188q0 26 52 36q13 2 30 2l507 -15q16 0 17 -8q0 -22 -69 -24l-519 -4q-18 0 -18 13zM195 447q3 26 52 35l30 1q54 0 211 -6q25 239 25.5 256t10.5 17q3 0 8 -3q25 -10 25 -59q0 -11 -2 -24l-26 -189q190 -7 256 -6q16 0 16 -9q0 -22 -69 -24l-209 -2l-18 -136 q-5 -25 -16.5 -10t-11.5 64q3 34 8 82q-93 -2 -272 -1q-20 0 -18 14z" />
<glyph unicode="&#xb2;" horiz-adv-x="876" d="M198 690q0 23 42 63t100 89t116 105t99 125.5t41 126t-19.5 79.5t-68.5 23q-84 0 -125 -95q-20 -48 -19.5 -82t13.5 -64.5t46 -30.5q-6 -21 -31 -21q-93 0 -94 113q0 64 48 126q66 88 178 88q74 0 112.5 -36t38.5 -90t-23 -102.5t-68 -95t-82 -79.5t-97.5 -79.5 t-81.5 -64.5h3q26 0 78.5 -28.5t100.5 -28.5q80 0 113 70q13 23 13 41t-10 25.5t-18 7.5q3 21 23 21q39 0 39 -73.5t-51.5 -125t-109.5 -51.5t-92.5 26t-57.5 52t-49 26t-42.5 -22t-16.5 -38q0 -13 -24 -13t-24 13z" />
<glyph unicode="&#xb3;" horiz-adv-x="815" d="M190 793q0 38 23 77q44 75 133 75q18 0 27 -9t9 -18v-9q-13 7 -39.5 7t-52.5 -25q-41 -36 -41 -101q0 -13 3.5 -38t33.5 -49.5t88.5 -24.5t108.5 43q92 75 92 208q0 67 -29 110q-51 -33 -120 -33t-69 43q0 33 46 50q26 10 59.5 10t71.5 -11q39 56 39 101q0 108 -90 108 q-70 0 -95 -65q-8 -23 -8 -42.5t11.5 -30.5t23.5 -11q-7 -21 -33 -21q-56 0 -56 71q0 49 46 91.5t128 42.5t117 -42.5t35 -90.5q1 -77 -65 -139q64 -52 63 -156q0 -138 -116 -219q-72 -51 -178.5 -51t-147.5 75q-18 36 -18 74zM388 1050q0 -15 42 -15t81 35q-23 13 -49 13 q-59 0 -72 -25q-2 -5 -2 -8z" />
<glyph unicode="&#xb4;" horiz-adv-x="635" d="M238 854q0 18 38.5 77.5t92.5 120.5q20 25 37.5 24.5t34 -7.5t16.5 -22.5t-13 -35.5q-49 -61 -110.5 -118t-78.5 -57t-17 18z" />
<glyph unicode="&#xb6;" horiz-adv-x="1238" d="M-7 65.5q0 52.5 20 99.5q48 115 157 115q33 0 46 -23l4 -8q-77 0 -120 -85q-25 -49 -25 -95t18 -89q57 -123 246 -123q138 0 233.5 73t142.5 185.5t81.5 260t50.5 283.5q41 341 125 480q-118 48 -195 47q-167 0 -279 -167q-92 -138 -92 -295q0 -167 105 -214 q33 -16 76 -17q-3 -26 -38 -26q-170 0 -243 144q-36 74 -36 149.5t23 148.5q57 179 218 264q102 52 220.5 52.5t261.5 -55.5l5 5q61 300 183 300q23 0 31 -20l2 -8q-116 0 -170 -230q52 33 109 33q80 0 97 -54q5 -11 5 -21q0 -34 -35 -59t-80.5 -25t-115.5 26 q-18 -111 -32 -295.5t-25.5 -328.5t-32.5 -287q-48 -298 -187 -298q-18 0 -24.5 11.5t-3.5 32.5q105 0 153 259q34 190 60 458t43 375q-51 -144 -95 -487q-16 -126 -55 -266t-92 -241.5t-154 -168t-240 -66.5q-233 0 -313 141q-33 57 -33 109.5zM1032 1153 q62 -25 115.5 -24.5t63.5 38.5q2 7 1 11q0 21 -27 31q-14 5 -30 5q-75 0 -123 -61z" />
<glyph unicode="&#xb7;" horiz-adv-x="604" d="M203 367q15 0 21.5 32t20.5 64t45 32q38 0 38 -51t-49 -82q-25 -16 -43 -16q-26 0 -33 21z" />
<glyph unicode="&#xb8;" horiz-adv-x="555" d="M-38 -228q0 25 22 35q7 3 14 3q18 0 22 -15v-5q-21 0 -25 -19q-3 -28 33 -36l21 -2q95 0 136 70q16 26 16.5 47.5t-15.5 39t-52.5 17.5t-89.5 -27h-3q-15 0 -15 15q0 34 80 148h35l-72 -128q39 21 92 21q80 0 95 -61q2 -11 1 -22q0 -48 -54 -94.5t-147.5 -46.5t-93.5 60z " />
<glyph unicode="&#xb9;" horiz-adv-x="704" d="M228 920.5q0 39.5 23 81.5t68 76q64 51 177 107q70 152 135 152q41 0 41 -41q0 -33 -32 -60t-98 -61q-51 -146 -70 -326q-5 -59 -5 -99q0 -84 26 -86q-5 -28 -38 -28q-64 0 -63 134q0 157 83 369q-88 -49 -140.5 -106.5t-52.5 -139.5q0 -20 8 -25t10 -5 q0 -20 -20.5 -19.5t-36 19t-15.5 58zM559 1216q85 46 85 75q0 15 -13 15q-34 0 -72 -90z" />
<glyph unicode="&#xba;" horiz-adv-x="688" d="M172 868q0 88 43 177q57 118 132 118q29 0 38 -19l2 -9q-54 0 -95 -99t-41 -203t55 -104q43 0 79 54q72 105 90 266q-38 20 -50 50t-12 47t5 30q10 31 37.5 31.5t42.5 -35t15 -64v-35.5q15 -5 42 -5t47.5 22t20.5 34.5t5.5 14t11.5 -1t6 -7.5q0 -34 -29 -64.5 t-63.5 -30.5t-43.5 2q-11 -126 -69 -236t-138 -110q-131 0 -131 177z" />
<glyph unicode="&#xbb;" horiz-adv-x="912" d="M125 111v41l227 176l-142 209v45q216 -251 216 -269q0 -10 -10 -16zM416 111v41l228 176l-143 209v45q216 -251 217 -269q0 -10 -10 -16z" />
<glyph unicode="&#xbc;" horiz-adv-x="1563" d="M200 603q0 39 23 81t69 76q64 51 177 107q70 152 134 152q41 0 41 -41q0 -33 -32 -60t-98 -61q-51 -146 -68 -326q-7 -59 -7 -98q0 -84 26 -87q-4 -28 -37 -28q-64 0 -64 134q0 157 83 369q-88 -49 -140.5 -106.5t-52.5 -139.5q0 -20 8 -24.5t10 -4.5q0 -20 -20.5 -20 t-36 19t-15.5 58zM360.5 -142.5q-0.5 24.5 31 90t140.5 302.5t230 503t139 305q20 34 44 35q29 0 30 -41q0 -44 -35 -110q-5 -11 -242.5 -484t-296.5 -601q-11 -24 -24 -24q-16 0 -16.5 24.5zM531 898q85 46 85 75q0 15 -13 15q-34 0 -72 -90zM721 175q0 29 41 46 q23 10 50 10t50 -5q33 62 51 153t18 172t-28 81q7 28 39 28q64 0 64 -124q0 -62 -24.5 -154t-75.5 -166q133 -38 151 -41q21 128 72.5 240.5t97.5 112.5q23 0 23 -17v-5q-33 0 -69 -106.5t-54 -230.5h5q59 0 76 41q13 29 -10 36q-3 2 -7 1q3 23 31 23t28 -45.5t-47 -72.5 q-28 -15 -69 -14h-10q-5 -46 -5 -77q0 -75 25 -76q-3 -28 -38 -28q-59 0 -59 112q0 34 5 77q-10 2 -164 44q-51 -59 -109 -59t-58 44zM757 182q0 -18 26 -21q34 0 62 41q-23 3 -31 3q-49 0 -57 -23z" />
<glyph unicode="&#xbd;" horiz-adv-x="1551" d="M200 603q0 39 23 81t69 76q64 51 177 107q70 152 134 152q41 0 41 -41q0 -33 -32 -60t-98 -61q-51 -146 -68 -326q-7 -59 -7 -98q0 -84 26 -87q-4 -28 -37 -28q-64 0 -64 134q0 157 83 369q-88 -49 -140.5 -106.5t-52.5 -139.5q0 -20 8 -24.5t10 -4.5q0 -20 -20.5 -20 t-36 19t-15.5 58zM360.5 -142.5q-0.5 24.5 31 90t140.5 302.5t230 503t139 305q20 34 44 35q29 0 30 -41q0 -44 -35 -110q-5 -11 -242.5 -484t-296.5 -601q-11 -24 -24 -24q-16 0 -16.5 24.5zM531 898q85 46 85 75q0 15 -13 15q-34 0 -72 -90zM747 -3q0 41 200 203 q74 61 136 148.5t62 167.5q0 46 -19.5 69t-68.5 23q-84 0 -125 -95q-20 -48 -19.5 -82.5t13.5 -64.5t46 -30q-7 -21 -32 -21q-93 0 -93 113q0 64 48 126q67 87 178 88q74 0 112.5 -36t38.5 -90t-23 -102.5t-68 -95t-82 -79.5t-97.5 -79.5t-81.5 -64.5h3q26 0 78.5 -28.5 t99.5 -28.5q80 0 114 70q13 23 13 41t-10 25.5t-18 7.5q3 21 23 21q39 0 39 -73.5t-51.5 -125.5t-109.5 -52t-92.5 26.5t-57.5 52.5t-46 26t-38.5 -15.5t-23.5 -44.5q0 -13 -24 -13t-24 13z" />
<glyph unicode="&#xbe;" horiz-adv-x="1567" d="M92 467q0 38 23 77q44 75 132 75q18 0 27 -9t9 -17v-10q-13 7 -39 7t-52 -25q-41 -36 -41 -101q0 -13 3 -38t33.5 -49.5t88.5 -24.5t109 41q92 77 92 210q0 67 -30 110q-51 -33 -119.5 -33t-68.5 43q0 33 46 50q26 10 59.5 10t71.5 -11q39 56 39 101q0 108 -90 108 q-70 0 -95 -65q-8 -23 -8 -42.5t11.5 -30.5t22.5 -11q-7 -21 -33 -21q-56 0 -55 70q0 49 45.5 92t127.5 43t117.5 -42.5t35.5 -90.5q0 -77 -66 -139q64 -52 64 -156q0 -138 -116 -219q-72 -51 -178.5 -51t-147.5 75q-18 36 -18 74zM290 724q0 -15 42 -15t81 35 q-23 13 -49 13q-59 0 -72 -25q-2 -5 -2 -8zM359 -142.5q0 24.5 31 90t140 302.5t230 503t139 305q20 34 45 35q29 0 29 -41q0 -44 -34 -110q-5 -11 -242.5 -484t-296.5 -601q-12 -24 -25 -24q-16 0 -16 24.5zM719 175q0 29 41 46q23 10 50 10t50 -5q33 62 51 153t18 172 t-28 81q7 28 39 28q64 0 64 -124q0 -62 -24.5 -154t-75.5 -166q133 -38 151 -41q21 128 73 240.5t98 112.5q23 0 22 -17v-5q-33 0 -68.5 -106.5t-53.5 -230.5h4q59 0 76 41q13 29 -10 36q-3 2 -7 1q3 23 31 23t28 -45.5t-47 -72.5q-28 -15 -69 -14h-10q-5 -46 -5 -77 q0 -75 25 -76q-3 -28 -38 -28q-59 0 -59 112q0 34 5 77q-10 2 -164 44q-51 -59 -109 -59t-58 44zM755 182q0 -18 27 -21q34 0 62 41q-23 3 -31 3q-49 0 -58 -23z" />
<glyph unicode="&#xbf;" horiz-adv-x="768" d="M229 -10q23 0 30 64q2 25 14.5 44.5t37.5 19.5q39 0 39.5 -51t-47.5 -82q-23 -16 -41 -16q-26 0 -33 21zM290 264q0 149 172 316l141.5 141.5t121.5 165t50 194.5q0 149 -143 149q-123 0 -190 -132q-38 -79 -37 -153q0 -29 6 -59q18 -85 82 -85q0 -23 -36 -23 q-102 0 -131 100q-10 33 -10 66q0 74 44 154q97 174 297 173q111 0 168.5 -53t57.5 -136t-29.5 -151t-76 -122t-102.5 -106.5t-112.5 -103t-103.5 -101.5q-105 -114 -105 -234q0 -21 -32 -21.5t-32 21.5z" />
<glyph unicode="&#xc0;" horiz-adv-x="1646" d="M-10 172q0 46 10 93q34 159 156 227q64 36 142 36q169 0 228 -132q25 -54 25 -110.5t-23 -113.5q-56 -138 -182 -138q-20 0 -33 9t-20 27q44 0 84 23q66 39 103 143q10 34 10 56.5t-3.5 51t-21.5 66t-62 60.5t-105 23q-156 0 -229 -137q-43 -79 -43 -149.5t15 -126.5 q43 -156 179 -214q64 -28 140 -28q221 0 400 200q-79 84 -108 201q-18 69 -18 123q0 170 98 270q72 72 176.5 72.5t187.5 -50.5q146 339 236 470q-11 3 -84 31t-93 34l-79 27q-138 46 -242 46q-213 0 -315 -161q-59 -90 -59 -187q0 -28 7 -57q18 -106 95 -128q15 -5 31 -5 q-10 -36 -54 -36q-100 0 -141 107q-20 51 -20 113t33 139q69 165 243 226q82 28 153 28t118 -7.5t112.5 -28t95.5 -30t118 -43.5t101 -39q141 187 308 187q13 0 19.5 -8t8.5 -23q-170 0 -299 -169q85 -31 166 -49q88 115 162 115q16 0 27.5 -9t16.5 -27q-64 0 -132 -90 q11 -2 34 -2q162 0 228 97q28 38 28 64q0 74 -66 73q15 23 48 23q64 0 83 -64q5 -20 5 -37q0 -54 -46 -107q-80 -88 -247 -88q-49 0 -89 6q-110 -175 -177 -498q-48 -224 -47 -377q0 -66 8 -118q93 72 178.5 182t122.5 184l38 74h44q-13 -34 -56.5 -109t-83.5 -131.5 t-104 -125.5t-129 -116q21 -62 60 -62q-16 -33 -47 -33q-52 0 -87 49q-118 -61 -229 -61q-162 0 -280 86q-172 -197 -414.5 -197t-352.5 172q-61 97 -61 208zM696 356q0 -167 94 -281q105 134 201 343q35 77 89 200q-62 44 -145 44t-147 -62q-92 -93 -92 -244zM847 21 q102 -80 249 -80q105 0 211 57q-28 66 -27.5 160t-39 218t-114.5 202q-149 -393 -279 -557zM1142 619q102 -90 151 -262q26 193 91.5 386t149.5 317q-69 16 -166 51q-77 -115 -154 -303q-23 -59 -72 -189zM1438.5 1615.5q0.5 16.5 10 33t25.5 16.5t32 -15q59 -54 112 -119 t53 -80.5t-17 -15.5t-74.5 41t-118.5 100q-23 23 -22.5 39.5z" />
<glyph unicode="&#xc1;" horiz-adv-x="1646" d="M-10 172q0 46 10 93q34 159 156 227q64 36 142 36q169 0 228 -132q25 -54 25 -110.5t-23 -113.5q-56 -138 -182 -138q-20 0 -33 9t-20 27q44 0 84 23q66 39 103 143q10 34 10 56.5t-3.5 51t-21.5 66t-62 60.5t-105 23q-156 0 -229 -137q-43 -79 -43 -149.5t15 -126.5 q43 -156 179 -214q64 -28 140 -28q221 0 400 200q-79 84 -108 201q-18 69 -18 123q0 170 98 270q72 72 176.5 72.5t187.5 -50.5q146 339 236 470q-11 3 -84 31t-93 34l-79 27q-138 46 -242 46q-213 0 -315 -161q-59 -90 -59 -187q0 -28 7 -57q18 -106 95 -128q15 -5 31 -5 q-10 -36 -54 -36q-100 0 -141 107q-20 51 -20 113t33 139q69 165 243 226q82 28 153 28t118 -7.5t112.5 -28t95.5 -30t118 -43.5t101 -39q141 187 308 187q13 0 19.5 -8t8.5 -23q-170 0 -299 -169q85 -31 166 -49q88 115 162 115q16 0 27.5 -9t16.5 -27q-64 0 -132 -90 q11 -2 34 -2q162 0 228 97q28 38 28 64q0 74 -66 73q15 23 48 23q64 0 83 -64q5 -20 5 -37q0 -54 -46 -107q-80 -88 -247 -88q-49 0 -89 6q-110 -175 -177 -498q-48 -224 -47 -377q0 -66 8 -118q93 72 178.5 182t122.5 184l38 74h44q-13 -34 -56.5 -109t-83.5 -131.5 t-104 -125.5t-129 -116q21 -62 60 -62q-16 -33 -47 -33q-52 0 -87 49q-118 -61 -229 -61q-162 0 -280 86q-172 -197 -414.5 -197t-352.5 172q-61 97 -61 208zM696 356q0 -167 94 -281q105 134 201 343q35 77 89 200q-62 44 -145 44t-147 -62q-92 -93 -92 -244zM847 21 q102 -80 249 -80q105 0 211 57q-28 66 -27.5 160t-39 218t-114.5 202q-149 -393 -279 -557zM1142 619q102 -90 151 -262q26 193 91.5 386t149.5 317q-69 16 -166 51q-77 -115 -154 -303q-23 -59 -72 -189zM1673 1460q0 18 38.5 77.5t92.5 120.5q20 25 38 25t34 -7.5t16 -23 t-13 -35.5q-49 -61 -110.5 -118t-78.5 -57t-17 18z" />
<glyph unicode="&#xc2;" horiz-adv-x="1646" d="M-10 172q0 46 10 93q34 159 156 227q64 36 142 36q169 0 228 -132q25 -54 25 -110.5t-23 -113.5q-56 -138 -182 -138q-20 0 -33 9t-20 27q44 0 84 23q66 39 103 143q10 34 10 56.5t-3.5 51t-21.5 66t-62 60.5t-105 23q-156 0 -229 -137q-43 -79 -43 -149.5t15 -126.5 q43 -156 179 -214q64 -28 140 -28q221 0 400 200q-79 84 -108 201q-18 69 -18 123q0 170 98 270q72 72 176.5 72.5t187.5 -50.5q146 339 236 470q-11 3 -84 31t-93 34l-79 27q-138 46 -242 46q-213 0 -315 -161q-59 -90 -59 -187q0 -28 7 -57q18 -106 95 -128q15 -5 31 -5 q-10 -36 -54 -36q-100 0 -141 107q-20 51 -20 113t33 139q69 165 243 226q82 28 153 28t118 -7.5t112.5 -28t95.5 -30t118 -43.5t101 -39q141 187 308 187q13 0 19.5 -8t8.5 -23q-170 0 -299 -169q85 -31 166 -49q88 115 162 115q16 0 27.5 -9t16.5 -27q-64 0 -132 -90 q11 -2 34 -2q162 0 228 97q28 38 28 64q0 74 -66 73q15 23 48 23q64 0 83 -64q5 -20 5 -37q0 -54 -46 -107q-80 -88 -247 -88q-49 0 -89 6q-110 -175 -177 -498q-48 -224 -47 -377q0 -66 8 -118q93 72 178.5 182t122.5 184l38 74h44q-13 -34 -56.5 -109t-83.5 -131.5 t-104 -125.5t-129 -116q21 -62 60 -62q-16 -33 -47 -33q-52 0 -87 49q-118 -61 -229 -61q-162 0 -280 86q-172 -197 -414.5 -197t-352.5 172q-61 97 -61 208zM696 356q0 -167 94 -281q105 134 201 343q35 77 89 200q-62 44 -145 44t-147 -62q-92 -93 -92 -244zM847 21 q102 -80 249 -80q105 0 211 57q-28 66 -27.5 160t-39 218t-114.5 202q-149 -393 -279 -557zM1142 619q102 -90 151 -262q26 193 91.5 386t149.5 317q-69 16 -166 51q-77 -115 -154 -303q-23 -59 -72 -189zM1442 1439q133 110 173 141.5t50.5 31.5t15.5 -11l82 -162h-39 l-63 104l-178 -104h-41z" />
<glyph unicode="&#xc3;" horiz-adv-x="1646" d="M-10 172q0 46 10 93q34 159 156 227q64 36 142 36q169 0 228 -132q25 -54 25 -110.5t-23 -113.5q-56 -138 -182 -138q-20 0 -33 9t-20 27q44 0 84 23q66 39 103 143q10 34 10 56.5t-3.5 51t-21.5 66t-62 60.5t-105 23q-156 0 -229 -137q-43 -79 -43 -149.5t15 -126.5 q43 -156 179 -214q64 -28 140 -28q221 0 400 200q-79 84 -108 201q-18 69 -18 123q0 170 98 270q72 72 176.5 72.5t187.5 -50.5q146 339 236 470q-11 3 -84 31t-93 34l-79 27q-138 46 -242 46q-213 0 -315 -161q-59 -90 -59 -187q0 -28 7 -57q18 -106 95 -128q15 -5 31 -5 q-10 -36 -54 -36q-100 0 -141 107q-20 51 -20 113t33 139q69 165 243 226q82 28 153 28t118 -7.5t112.5 -28t95.5 -30t118 -43.5t101 -39q141 187 308 187q13 0 19.5 -8t8.5 -23q-170 0 -299 -169q85 -31 166 -49q88 115 162 115q16 0 27.5 -9t16.5 -27q-64 0 -132 -90 q11 -2 34 -2q162 0 228 97q28 38 28 64q0 74 -66 73q15 23 48 23q64 0 83 -64q5 -20 5 -37q0 -54 -46 -107q-80 -88 -247 -88q-49 0 -89 6q-110 -175 -177 -498q-48 -224 -47 -377q0 -66 8 -118q93 72 178.5 182t122.5 184l38 74h44q-13 -34 -56.5 -109t-83.5 -131.5 t-104 -125.5t-129 -116q21 -62 60 -62q-16 -33 -47 -33q-52 0 -87 49q-118 -61 -229 -61q-162 0 -280 86q-172 -197 -414.5 -197t-352.5 172q-61 97 -61 208zM696 356q0 -167 94 -281q105 134 201 343q35 77 89 200q-62 44 -145 44t-147 -62q-92 -93 -92 -244zM847 21 q102 -80 249 -80q105 0 211 57q-28 66 -27.5 160t-39 218t-114.5 202q-149 -393 -279 -557zM1142 619q102 -90 151 -262q26 193 91.5 386t149.5 317q-69 16 -166 51q-77 -115 -154 -303q-23 -59 -72 -189zM1391 1439q3 10 20.5 35t33.5 40q43 41 100 41q31 0 77 -32t73 -32 t46.5 14.5t36.5 44.5h36q-5 -13 -16 -33t-48.5 -51.5t-77.5 -31.5t-89 36.5t-74 36.5q-41 0 -80 -68h-38z" />
<glyph unicode="&#xc4;" horiz-adv-x="1646" d="M-10 172q0 46 10 93q34 159 156 227q64 36 142 36q169 0 228 -132q25 -54 25 -110.5t-23 -113.5q-56 -138 -182 -138q-20 0 -33 9t-20 27q44 0 84 23q66 39 103 143q10 34 10 56.5t-3.5 51t-21.5 66t-62 60.5t-105 23q-156 0 -229 -137q-43 -79 -43 -149.5t15 -126.5 q43 -156 179 -214q64 -28 140 -28q221 0 400 200q-79 84 -108 201q-18 69 -18 123q0 170 98 270q72 72 176.5 72.5t187.5 -50.5q146 339 236 470q-11 3 -84 31t-93 34l-79 27q-138 46 -242 46q-213 0 -315 -161q-59 -90 -59 -187q0 -28 7 -57q18 -106 95 -128q15 -5 31 -5 q-10 -36 -54 -36q-100 0 -141 107q-20 51 -20 113t33 139q69 165 243 226q82 28 153 28t118 -7.5t112.5 -28t95.5 -30t118 -43.5t101 -39q141 187 308 187q13 0 19.5 -8t8.5 -23q-170 0 -299 -169q85 -31 166 -49q88 115 162 115q16 0 27.5 -9t16.5 -27q-64 0 -132 -90 q11 -2 34 -2q162 0 228 97q28 38 28 64q0 74 -66 73q15 23 48 23q64 0 83 -64q5 -20 5 -37q0 -54 -46 -107q-80 -88 -247 -88q-49 0 -89 6q-110 -175 -177 -498q-48 -224 -47 -377q0 -66 8 -118q93 72 178.5 182t122.5 184l38 74h44q-13 -34 -56.5 -109t-83.5 -131.5 t-104 -125.5t-129 -116q21 -62 60 -62q-16 -33 -47 -33q-52 0 -87 49q-118 -61 -229 -61q-162 0 -280 86q-172 -197 -414.5 -197t-352.5 172q-61 97 -61 208zM696 356q0 -167 94 -281q105 134 201 343q35 77 89 200q-62 44 -145 44t-147 -62q-92 -93 -92 -244zM847 21 q102 -80 249 -80q105 0 211 57q-28 66 -27.5 160t-39 218t-114.5 202q-149 -393 -279 -557zM1142 619q102 -90 151 -262q26 193 91.5 386t149.5 317q-69 16 -166 51q-77 -115 -154 -303q-23 -59 -72 -189zM1443 1460q15 0 21.5 32t20.5 64t45 32q38 0 38 -51t-49 -82 q-25 -16 -43 -16q-26 0 -31 16zM1650 1460q15 0 21.5 32t20.5 64t45 32q38 0 37.5 -51t-49.5 -82q-25 -16 -42 -16q-26 0 -31 16z" />
<glyph unicode="&#xc5;" horiz-adv-x="1646" d="M-10 172q0 46 10 93q34 159 156 227q64 36 142 36q169 0 228 -132q25 -54 25 -110.5t-23 -113.5q-56 -138 -182 -138q-20 0 -33 9t-20 27q44 0 84 23q66 39 103 143q10 34 10 56.5t-3.5 51t-21.5 66t-62 60.5t-105 23q-156 0 -229 -137q-43 -79 -43 -149.5t15 -126.5 q43 -156 179 -214q64 -28 140 -28q221 0 400 200q-79 84 -108 201q-18 69 -18 123q0 170 98 270q72 72 176.5 72.5t187.5 -50.5q146 339 236 470q-11 3 -84 31t-93 34l-79 27q-138 46 -242 46q-213 0 -315 -161q-59 -90 -59 -187q0 -28 7 -57q18 -106 95 -128q15 -5 31 -5 q-10 -36 -54 -36q-100 0 -141 107q-20 51 -20 113t33 139q69 165 243 226q82 28 153 28t118 -7.5t112.5 -28t95.5 -30t118 -43.5t101 -39q141 187 308 187q13 0 19.5 -8t8.5 -23q-170 0 -299 -169q85 -31 166 -49q88 115 162 115q16 0 27.5 -9t16.5 -27q-64 0 -132 -90 q11 -2 34 -2q162 0 228 97q28 38 28 64q0 74 -66 73q15 23 48 23q64 0 83 -64q5 -20 5 -37q0 -54 -46 -107q-80 -88 -247 -88q-49 0 -89 6q-110 -175 -177 -498q-48 -224 -47 -377q0 -66 8 -118q93 72 178.5 182t122.5 184l38 74h44q-13 -34 -56.5 -109t-83.5 -131.5 t-104 -125.5t-129 -116q21 -62 60 -62q-16 -33 -47 -33q-52 0 -87 49q-118 -61 -229 -61q-162 0 -280 86q-172 -197 -414.5 -197t-352.5 172q-61 97 -61 208zM696 356q0 -167 94 -281q105 134 201 343q35 77 89 200q-62 44 -145 44t-147 -62q-92 -93 -92 -244zM847 21 q102 -80 249 -80q105 0 211 57q-28 66 -27.5 160t-39 218t-114.5 202q-149 -393 -279 -557zM1142 619q102 -90 151 -262q26 193 91.5 386t149.5 317q-69 16 -166 51q-77 -115 -154 -303q-23 -59 -72 -189zM1527 1613q0 45 31 76t78 31t78 -31t31 -77t-31 -77t-78 -31t-78 32 t-31 77zM1561 1613q0 -30 21.5 -52.5t52 -22.5t52.5 22.5t22 52.5t-22 51.5t-53.5 21.5t-52 -21.5t-20.5 -51.5z" />
<glyph unicode="&#xc6;" horiz-adv-x="2333" d="M-92 172q0 46 10 93q34 159 156 227q64 36 142 36q169 0 228 -132q25 -54 25 -110.5t-23 -113.5q-56 -138 -182 -138q-20 0 -33 9t-20 27q44 0 84 23q66 39 103 143q10 34 10 56.5t-3.5 51t-21.5 66t-62 60.5t-105 23q-156 0 -229 -137q-43 -79 -43 -149.5t15 -126.5 q43 -156 179 -214q64 -28 141 -28q221 0 399 200q-79 84 -108 201q-18 69 -18 123q0 170 98 270q72 72 176.5 72.5t187.5 -50.5q139 323 185 395t91 131t86 88q100 72 202 72q13 0 19.5 -8t8.5 -23q-82 0 -167 -44q-44 -23 -133 -125q-79 -92 -200 -403q-15 -38 -46 -118 q106 -92 152 -267q33 129 115 238t203 170q-26 54 -26 118t17 126.5t59 124.5t98.5 109.5t137 77t170.5 29.5q136 0 173 -92q11 -28 12 -57q0 -61 -49 -128q-97 -128 -298 -154l-91 -6l-1 41q190 0 298 118q64 69 64 134q0 15 -2 28q-20 77 -118 78q-123 0 -223.5 -92.5 t-141.5 -215.5q-25 -70 -25 -121.5t13 -89.5q100 36 212.5 36t136.5 -57q5 -13 5 -25q0 -34 -52.5 -68.5t-162 -34.5t-176.5 75q-146 -93 -215 -275q-46 -121 -46 -236q0 -57 12 -111q34 -167 160 -225v10q0 152 50 298t158 251.5t249 105.5t182 -127q15 -46 15 -95 q0 -90 -49 -197q-85 -182 -257 -264q-105 -49 -226 -49q-20 0 -53 3q5 -134 60.5 -217.5t160.5 -83.5q-7 -28 -41 -28q-110 0 -173 95t-72 246q-139 34 -210 143t-71 257q0 72 -42.5 183.5t-107.5 179.5q-149 -393 -279 -557q102 -80 249 -80l2 -38q-162 0 -280 86 q-172 -197 -414.5 -197t-352.5 172q-61 97 -61 208zM614 356q0 -167 94 -281q105 134 201 343q35 77 89 200q-62 44 -145 44t-147 -62q-92 -93 -92 -244zM1540 -152q21 -5 49 -5q239 0 382 185q105 136 105 277t-82 177q-23 11 -52 11q-110 0 -204.5 -102.5t-144.5 -250 t-53 -292.5zM1617 747q44 -69 148 -69t134 46q7 11 6 20q0 21 -28.5 32.5t-67.5 11.5q-102 0 -192 -41z" />
<glyph unicode="&#xc7;" horiz-adv-x="1078" d="M-275.5 1014q0.5 98 31.5 185t89 165t156.5 126t216.5 48q233 0 318 -180q10 -20 -23 -26q-39 -3 -49 18q-49 147 -248 147q-125 0 -224 -58q-185 -111 -218 -351q-5 -38 -5 -92t20 -121q28 -100 109 -180.5t202 -109.5q51 187 154 350t260.5 272t330.5 109 q151 0 184 -122q10 -31 10 -65q0 -100 -76 -221q-118 -195 -344 -297q-177 -80 -381 -80h-33q-33 -131 -33 -230t22 -176t85 -125t160 -48q180 0 303 158q97 121 97 239t-85 136q-13 3 -30 3l-15 44q136 0 168 -119q8 -33 8 -67q0 -90 -59 -194q-88 -159 -249 -216 q-66 -21 -135 -23l-50 -92q39 21 91 22q80 0 95 -61q2 -11 2 -23q0 -48 -54 -94.5t-142.5 -46.5t-98.5 49q-7 34 21 46q7 3 15 4q18 0 21 -15v-5q-21 0 -24 -20q-3 -28 33 -36l21 -1q95 0 136 70q16 26 16 47.5t-15.5 38.5t-52.5 17t-89 -26h-3q-18 13 -4 46t45 82 q-218 15 -295 196q-44 105 -44 216.5t24 219.5q-115 26 -198.5 95t-119.5 158q-48 116 -47.5 214zM216 570h23q321 0 541 205q146 136 178 293q7 34 7 62q0 85 -62 123q-31 20 -79 20q-93 0 -189 -61.5t-175 -161.5q-167 -213 -244 -480z" />
<glyph unicode="&#xc8;" horiz-adv-x="1076" d="M20 198q0 84 24.5 186.5t108 209.5t201.5 166q-26 56 -26 106t5 84q-74 34 -120 92q-62 80 -62 179q0 110 62 198q39 52 103 85.5t141 33.5q10 0 15.5 -7t5.5 -14v-6q-106 0 -183 -63q-108 -88 -108 -213q0 -54 23 -108q36 -88 132 -136q39 146 163 250t304 104 q136 0 174 -92q11 -28 12 -57q0 -61 -50 -128q-121 -161 -388 -160q-82 0 -142 14q-5 -31 -5 -65.5t11 -68.5q100 36 212 36t137 -57q5 -13 5 -25q0 -34 -52.5 -68.5t-162 -34.5t-177.5 75q-146 -93 -214 -275q-46 -121 -46 -236q0 -57 11 -111q34 -167 161 -225v10 q0 152 50 298t158 251.5t249 105.5t182 -127q15 -46 15 -95q0 -90 -50 -197q-85 -182 -257 -264q-105 -49 -226 -49q-20 0 -52 3q5 -134 60.5 -217.5t160.5 -83.5q-7 -28 -41 -28q-110 0 -173 95t-73 246q-118 29 -190 116q-88 105 -88 267zM364 -152q23 -5 49 -5 q239 0 382 185q105 136 104.5 277t-81.5 177q-24 11 -53 11q-110 0 -204 -102.5t-144 -250t-53 -292.5zM423 962q60 -13 132 -13q190 0 299 118q64 69 64 134q0 15 -2 28q-20 77 -118 78q-134 0 -238.5 -104.5t-136.5 -240.5zM441 747q44 -69 148 -69t134 46q7 11 6 20 q0 21 -29 32.5t-68 11.5q-102 0 -191 -41zM614 1615.5q0 16.5 10 33t26 16.5t32 -15q59 -54 112 -119t53 -80.5t-17 -15.5t-74.5 41t-118.5 100q-23 23 -23 39.5z" />
<glyph unicode="&#xc9;" horiz-adv-x="1076" d="M20 198q0 84 24.5 186.5t108 209.5t201.5 166q-26 56 -26 106t5 84q-74 34 -120 92q-62 80 -62 179q0 110 62 198q39 52 103 85.5t141 33.5q10 0 15.5 -7t5.5 -14v-6q-106 0 -183 -63q-108 -88 -108 -213q0 -54 23 -108q36 -88 132 -136q39 146 163 250t304 104 q136 0 174 -92q11 -28 12 -57q0 -61 -50 -128q-121 -161 -388 -160q-82 0 -142 14q-5 -31 -5 -65.5t11 -68.5q100 36 212 36t137 -57q5 -13 5 -25q0 -34 -52.5 -68.5t-162 -34.5t-177.5 75q-146 -93 -214 -275q-46 -121 -46 -236q0 -57 11 -111q34 -167 161 -225v10 q0 152 50 298t158 251.5t249 105.5t182 -127q15 -46 15 -95q0 -90 -50 -197q-85 -182 -257 -264q-105 -49 -226 -49q-20 0 -52 3q5 -134 60.5 -217.5t160.5 -83.5q-7 -28 -41 -28q-110 0 -173 95t-73 246q-118 29 -190 116q-88 105 -88 267zM364 -152q23 -5 49 -5 q239 0 382 185q105 136 104.5 277t-81.5 177q-24 11 -53 11q-110 0 -204 -102.5t-144 -250t-53 -292.5zM423 962q60 -13 132 -13q190 0 299 118q64 69 64 134q0 15 -2 28q-20 77 -118 78q-134 0 -238.5 -104.5t-136.5 -240.5zM441 747q44 -69 148 -69t134 46q7 11 6 20 q0 21 -29 32.5t-68 11.5q-102 0 -191 -41zM745 1460q0 18 38.5 77.5t93.5 120.5q20 25 37.5 25t34 -7.5t16.5 -23t-13 -35.5q-49 -61 -110.5 -118t-79 -57t-17.5 18z" />
<glyph unicode="&#xca;" horiz-adv-x="1076" d="M20 198q0 84 24.5 186.5t108 209.5t201.5 166q-26 56 -26 106t5 84q-74 34 -120 92q-62 80 -62 179q0 110 62 198q39 52 103 85.5t141 33.5q10 0 15.5 -7t5.5 -14v-6q-106 0 -183 -63q-108 -88 -108 -213q0 -54 23 -108q36 -88 132 -136q39 146 163 250t304 104 q136 0 174 -92q11 -28 12 -57q0 -61 -50 -128q-121 -161 -388 -160q-82 0 -142 14q-5 -31 -5 -65.5t11 -68.5q100 36 212 36t137 -57q5 -13 5 -25q0 -34 -52.5 -68.5t-162 -34.5t-177.5 75q-146 -93 -214 -275q-46 -121 -46 -236q0 -57 11 -111q34 -167 161 -225v10 q0 152 50 298t158 251.5t249 105.5t182 -127q15 -46 15 -95q0 -90 -50 -197q-85 -182 -257 -264q-105 -49 -226 -49q-20 0 -52 3q5 -134 60.5 -217.5t160.5 -83.5q-7 -28 -41 -28q-110 0 -173 95t-73 246q-118 29 -190 116q-88 105 -88 267zM364 -152q23 -5 49 -5 q239 0 382 185q105 136 104.5 277t-81.5 177q-24 11 -53 11q-110 0 -204 -102.5t-144 -250t-53 -292.5zM423 962q60 -13 132 -13q190 0 299 118q64 69 64 134q0 15 -2 28q-20 77 -118 78q-134 0 -238.5 -104.5t-136.5 -240.5zM441 747q44 -69 148 -69t134 46q7 11 6 20 q0 21 -29 32.5t-68 11.5q-102 0 -191 -41zM639 1439q133 110 173 141.5t50 31.5t16 -11l82 -162h-39l-62 104l-179 -104h-41z" />
<glyph unicode="&#xcb;" horiz-adv-x="1076" d="M20 198q0 84 24.5 186.5t108 209.5t201.5 166q-26 56 -26 106t5 84q-74 34 -120 92q-62 80 -62 179q0 110 62 198q39 52 103 85.5t141 33.5q10 0 15.5 -7t5.5 -14v-6q-106 0 -183 -63q-108 -88 -108 -213q0 -54 23 -108q36 -88 132 -136q39 146 163 250t304 104 q136 0 174 -92q11 -28 12 -57q0 -61 -50 -128q-121 -161 -388 -160q-82 0 -142 14q-5 -31 -5 -65.5t11 -68.5q100 36 212 36t137 -57q5 -13 5 -25q0 -34 -52.5 -68.5t-162 -34.5t-177.5 75q-146 -93 -214 -275q-46 -121 -46 -236q0 -57 11 -111q34 -167 161 -225v10 q0 152 50 298t158 251.5t249 105.5t182 -127q15 -46 15 -95q0 -90 -50 -197q-85 -182 -257 -264q-105 -49 -226 -49q-20 0 -52 3q5 -134 60.5 -217.5t160.5 -83.5q-7 -28 -41 -28q-110 0 -173 95t-73 246q-118 29 -190 116q-88 105 -88 267zM364 -152q23 -5 49 -5 q239 0 382 185q105 136 104.5 277t-81.5 177q-24 11 -53 11q-110 0 -204 -102.5t-144 -250t-53 -292.5zM423 962q60 -13 132 -13q190 0 299 118q64 69 64 134q0 15 -2 28q-20 77 -118 78q-134 0 -238.5 -104.5t-136.5 -240.5zM441 747q44 -69 148 -69t134 46q7 11 6 20 q0 21 -29 32.5t-68 11.5q-102 0 -191 -41zM634 1460q15 0 21.5 32t20.5 64t45 32q38 0 38 -51t-50 -82q-25 -16 -42 -16q-26 0 -31 16zM840 1460q15 0 21.5 32t20.5 64t45 32q38 0 38 -51t-49 -82q-25 -16 -43 -16q-26 0 -31 16z" />
<glyph unicode="&#xcc;" horiz-adv-x="1061" d="M21.5 272q42.5 154 160.5 215q56 28 121 27q174 0 238 -134q28 -59 28 -113t-20 -103q-43 -113 -139 -113q-29 0 -43 23l-3 8q70 0 109 100q20 49 20 99t-21 102q-41 100 -172 100t-208 -127q-51 -85 -51 -181q0 -39 8 -82q34 -154 177 -209q64 -25 159 -25t178 43.5 t134.5 120.5t87.5 170.5t59.5 209.5t40.5 220q46 293 83 404q-152 11 -159 12q-233 0 -326 -153q-43 -69 -42 -141q0 -34 10 -68q29 -98 108 -99q0 -13 -13.5 -24.5t-32.5 -11.5q-93 0 -133 97q-18 48 -18 103.5t33 124.5q72 156 264 198q61 13 110.5 13t211.5 -15 q74 187 212 187q11 0 20 -7.5t14 -20.5q-120 0 -170 -164h33q169 0 235 107q26 41 27 70q0 77 -54 77q10 29 37 30q48 0 64 -59q5 -21 5 -41q0 -59 -46 -116q-87 -105 -270 -105h-41q-29 -115 -44 -279.5t-32 -272t-39.5 -197.5t-66 -177t-102 -146.5t-152 -96.5t-211.5 -37 q-244 0 -344 170q-77 133 -34.5 287zM955 1615.5q0 16.5 10 33t25.5 16.5t31.5 -15q59 -54 112.5 -119t53.5 -80.5t-17.5 -15.5t-74.5 41t-118 100q-23 23 -23 39.5z" />
<glyph unicode="&#xcd;" horiz-adv-x="1061" d="M21.5 272q42.5 154 160.5 215q56 28 121 27q174 0 238 -134q28 -59 28 -113t-20 -103q-43 -113 -139 -113q-29 0 -43 23l-3 8q70 0 109 100q20 49 20 99t-21 102q-41 100 -172 100t-208 -127q-51 -85 -51 -181q0 -39 8 -82q34 -154 177 -209q64 -25 159 -25t178 43.5 t134.5 120.5t87.5 170.5t59.5 209.5t40.5 220q46 293 83 404q-152 11 -159 12q-233 0 -326 -153q-43 -69 -42 -141q0 -34 10 -68q29 -98 108 -99q0 -13 -13.5 -24.5t-32.5 -11.5q-93 0 -133 97q-18 48 -18 103.5t33 124.5q72 156 264 198q61 13 110.5 13t211.5 -15 q74 187 212 187q11 0 20 -7.5t14 -20.5q-120 0 -170 -164h33q169 0 235 107q26 41 27 70q0 77 -54 77q10 29 37 30q48 0 64 -59q5 -21 5 -41q0 -59 -46 -116q-87 -105 -270 -105h-41q-29 -115 -44 -279.5t-32 -272t-39.5 -197.5t-66 -177t-102 -146.5t-152 -96.5t-211.5 -37 q-244 0 -344 170q-77 133 -34.5 287zM1121 1460q0 18 38.5 77.5t92.5 120.5q20 25 37.5 25t34 -7.5t16.5 -23t-13 -35.5q-49 -61 -110.5 -118t-78.5 -57t-17 18z" />
<glyph unicode="&#xce;" horiz-adv-x="1061" d="M21.5 272q42.5 154 160.5 215q56 28 121 27q174 0 238 -134q28 -59 28 -113t-20 -103q-43 -113 -139 -113q-29 0 -43 23l-3 8q70 0 109 100q20 49 20 99t-21 102q-41 100 -172 100t-208 -127q-51 -85 -51 -181q0 -39 8 -82q34 -154 177 -209q64 -25 159 -25t178 43.5 t134.5 120.5t87.5 170.5t59.5 209.5t40.5 220q46 293 83 404q-152 11 -159 12q-233 0 -326 -153q-43 -69 -42 -141q0 -34 10 -68q29 -98 108 -99q0 -13 -13.5 -24.5t-32.5 -11.5q-93 0 -133 97q-18 48 -18 103.5t33 124.5q72 156 264 198q61 13 110.5 13t211.5 -15 q74 187 212 187q11 0 20 -7.5t14 -20.5q-120 0 -170 -164h33q169 0 235 107q26 41 27 70q0 77 -54 77q10 29 37 30q48 0 64 -59q5 -21 5 -41q0 -59 -46 -116q-87 -105 -270 -105h-41q-29 -115 -44 -279.5t-32 -272t-39.5 -197.5t-66 -177t-102 -146.5t-152 -96.5t-211.5 -37 q-244 0 -344 170q-77 133 -34.5 287zM962 1439q133 110 173 141.5t50.5 31.5t15.5 -11l82 -162h-39l-63 104l-178 -104h-41z" />
<glyph unicode="&#xcf;" horiz-adv-x="1061" d="M21.5 272q42.5 154 160.5 215q56 28 121 27q174 0 238 -134q28 -59 28 -113t-20 -103q-43 -113 -139 -113q-29 0 -43 23l-3 8q70 0 109 100q20 49 20 99t-21 102q-41 100 -172 100t-208 -127q-51 -85 -51 -181q0 -39 8 -82q34 -154 177 -209q64 -25 159 -25t178 43.5 t134.5 120.5t87.5 170.5t59.5 209.5t40.5 220q46 293 83 404q-152 11 -159 12q-233 0 -326 -153q-43 -69 -42 -141q0 -34 10 -68q29 -98 108 -99q0 -13 -13.5 -24.5t-32.5 -11.5q-93 0 -133 97q-18 48 -18 103.5t33 124.5q72 156 264 198q61 13 110.5 13t211.5 -15 q74 187 212 187q11 0 20 -7.5t14 -20.5q-120 0 -170 -164h33q169 0 235 107q26 41 27 70q0 77 -54 77q10 29 37 30q48 0 64 -59q5 -21 5 -41q0 -59 -46 -116q-87 -105 -270 -105h-41q-29 -115 -44 -279.5t-32 -272t-39.5 -197.5t-66 -177t-102 -146.5t-152 -96.5t-211.5 -37 q-244 0 -344 170q-77 133 -34.5 287zM970 1460q15 0 21.5 32t20.5 64t45 32q38 0 37.5 -51t-49.5 -82q-25 -16 -42 -16q-26 0 -31 16zM1176 1460q15 0 21.5 32t20.5 64t45 32q38 0 38 -51t-49 -82q-25 -16 -43 -16q-26 0 -31 16z" />
<glyph unicode="&#xd0;" horiz-adv-x="1359" d="M-150.5 61.5q-0.5 25.5 32.5 56.5t97 31q18 0 36.5 -2.5t32 -4t36 -9t32 -10t36.5 -13t31.5 -13t36.5 -15.5t34 -15q80 92 136 285q-244 16 -351 197q-57 100 -57 216q0 67 18 139q56 205 231 322q152 100 357 99q144 0 258 -47.5t182 -126.5t109 -183q43 -108 43 -224 t-19 -227t-72.5 -214t-122 -182.5t-166 -127t-220.5 -47.5t-270 57q-93 -70 -226 -70q-175 0 -223 82q-11 21 -11.5 46.5zM-102 49q0 -31 44.5 -51.5t126.5 -20.5t155 61q-164 70 -235 70t-87 -41q-4 -10 -4 -18zM61 801q0 -223 152 -337q82 -61 188 -72q21 85 76 352h-241 q-20 0 -18 15q3 26 52 34l30 2q80 0 187 -5q39 188 93 289.5t146 101.5q23 0 31 -21l2 -7q-87 0 -127 -108q-34 -90 -59 -259q177 -7 235 -6q18 0 16 -10q-7 -23 -69 -23q-116 0 -186 -2q-41 -282 -56 -352q115 16 192.5 87t108.5 170q2 8 11 10t14.5 -3t4.5 -15 q-36 -111 -123 -189.5t-218 -96.5q-52 -221 -159 -325q123 -43 228 -42.5t183.5 44.5t136 119.5t103 173t63.5 204.5t18 214.5t-33.5 205t-90.5 173t-155.5 119.5t-224.5 44q-269 0 -411 -190q-100 -131 -100 -295z" />
<glyph unicode="&#xd1;" horiz-adv-x="1808" d="M-8 172q0 46 10 93q34 159 155 227q64 36 143 36q169 0 228 -132q25 -54 24.5 -110.5t-23.5 -113.5q-56 -138 -182 -138q-20 0 -33 9t-19 27q44 0 83 23q66 39 102 143q11 34 11.5 56.5t-3 51t-21.5 66t-62.5 60.5t-104.5 23q-156 0 -230 -137q-43 -79 -42.5 -149.5 t15.5 -126.5q43 -156 178 -214q64 -28 141 -28q141 0 252.5 77t180 194t130 274.5t99.5 301.5q98 365 192 519q-8 2 -43.5 13.5t-48 14.5t-44 11.5t-49.5 11.5t-46 8q-49 8 -108 8q-213 0 -315 -160q-59 -90 -59 -187q0 -28 7 -57q18 -106 95 -128q15 -5 31 -5 q-10 -36 -54 -36q-100 0 -141 106q-20 51 -20 113.5t33 139.5q105 254 439 254q116 0 342 -76q75 105 172 105q13 0 20 -8t8 -23q-90 0 -159 -85q52 -13 105 -20q56 113 113 113q26 0 31 -16l2 -7q-39 0 -74 -93q95 2 130 75q11 23 11 43.5t-14 34.5t-32 14q8 25 35 25 q48 0 62 -56q5 -16 5 -33q0 -49 -47.5 -95.5t-142.5 -46.5h-20q-48 -156 -66.5 -374.5t-18.5 -364.5q0 -369 65 -369q28 0 69 132.5t92.5 321t115 378t156.5 322t200 132.5q23 0 38.5 -11.5t22.5 -35.5q-121 0 -220.5 -137t-163.5 -333.5t-117 -392.5t-106.5 -332.5 t-105.5 -136.5q-82 0 -121.5 134t-39.5 308q0 200 35.5 417t89.5 348q-59 10 -112 25q-92 -141 -175 -521q-33 -149 -88.5 -311.5t-123.5 -285.5t-187 -203t-276 -80q-241 0 -351 172q-61 97 -60 208zM1520 1493q3 10 20.5 35t34.5 42q43 39 99 39q31 0 77 -32t73 -32t47 15 t36 44h36q-5 -13 -15.5 -32.5t-48 -51.5t-78 -32t-89.5 36.5t-74 36.5q-41 0 -80 -68h-38z" />
<glyph unicode="&#xd2;" horiz-adv-x="1123" d="M78.5 377.5q0.5 128.5 32.5 264.5q72 300 259 499t418 199q13 0 21.5 -8t9.5 -26q-226 0 -406 -254q-159 -224 -208 -523q-16 -100 -17 -185q0 -165 67.5 -278.5t204.5 -113.5q184 0 348 250q144 220 196 494q20 102 20 179q0 121 -48 183q-38 44 -93 45 q-146 0 -242 -199q-86 -173 -86 -347q0 -244 136 -244q-5 -31 -54 -31q-118 0 -159 149q-16 64 -16 151.5t38 210.5q69 221 214 310q72 44 154 44q157 0 192 -189q10 -52 10 -109q0 -162 -77 -372q-105 -290 -279 -448q-126 -116 -255 -116q-241 0 -333 223 q-48 113 -47.5 241.5zM688 1615.5q0 16.5 10 33t25.5 16.5t31.5 -15q59 -54 112.5 -119t53.5 -80.5t-17.5 -15.5t-74.5 41t-118 100q-23 23 -23 39.5z" />
<glyph unicode="&#xd3;" horiz-adv-x="1123" d="M78.5 377.5q0.5 128.5 32.5 264.5q72 300 259 499t418 199q13 0 21.5 -8t9.5 -26q-226 0 -406 -254q-159 -224 -208 -523q-16 -100 -17 -185q0 -165 67.5 -278.5t204.5 -113.5q184 0 348 250q144 220 196 494q20 102 20 179q0 121 -48 183q-38 44 -93 45 q-146 0 -242 -199q-86 -173 -86 -347q0 -244 136 -244q-5 -31 -54 -31q-118 0 -159 149q-16 64 -16 151.5t38 210.5q69 221 214 310q72 44 154 44q157 0 192 -189q10 -52 10 -109q0 -162 -77 -372q-105 -290 -279 -448q-126 -116 -255 -116q-241 0 -333 223 q-48 113 -47.5 241.5zM855 1460q0 18 38.5 77.5t92.5 120.5q20 25 38 25t34.5 -7.5t16.5 -23t-13 -35.5q-49 -61 -110.5 -118t-79 -57t-17.5 18z" />
<glyph unicode="&#xd4;" horiz-adv-x="1123" d="M78.5 377.5q0.5 128.5 32.5 264.5q72 300 259 499t418 199q13 0 21.5 -8t9.5 -26q-226 0 -406 -254q-159 -224 -208 -523q-16 -100 -17 -185q0 -165 67.5 -278.5t204.5 -113.5q184 0 348 250q144 220 196 494q20 102 20 179q0 121 -48 183q-38 44 -93 45 q-146 0 -242 -199q-86 -173 -86 -347q0 -244 136 -244q-5 -31 -54 -31q-118 0 -159 149q-16 64 -16 151.5t38 210.5q69 221 214 310q72 44 154 44q157 0 192 -189q10 -52 10 -109q0 -162 -77 -372q-105 -290 -279 -448q-126 -116 -255 -116q-241 0 -333 223 q-48 113 -47.5 241.5zM696 1439q133 110 173 141.5t51 31.5t16 -11l81 -162h-39l-62 104l-179 -104h-41z" />
<glyph unicode="&#xd5;" horiz-adv-x="1123" d="M78.5 377.5q0.5 128.5 32.5 264.5q72 300 259 499t418 199q13 0 21.5 -8t9.5 -26q-226 0 -406 -254q-159 -224 -208 -523q-16 -100 -17 -185q0 -165 67.5 -278.5t204.5 -113.5q184 0 348 250q144 220 196 494q20 102 20 179q0 121 -48 183q-38 44 -93 45 q-146 0 -242 -199q-86 -173 -86 -347q0 -244 136 -244q-5 -31 -54 -31q-118 0 -159 149q-16 64 -16 151.5t38 210.5q69 221 214 310q72 44 154 44q157 0 192 -189q10 -52 10 -109q0 -162 -77 -372q-105 -290 -279 -448q-126 -116 -255 -116q-241 0 -333 223 q-48 113 -47.5 241.5zM662 1439q3 10 20.5 35t33.5 40q43 41 100 41q31 0 77 -32t73 -32t46.5 14.5t36.5 44.5h36q-5 -13 -16 -33t-48.5 -51.5t-77.5 -31.5t-89 36.5t-74 36.5q-41 0 -80 -68h-38z" />
<glyph unicode="&#xd6;" horiz-adv-x="1123" d="M78.5 377.5q0.5 128.5 32.5 264.5q72 300 259 499t418 199q13 0 21.5 -8t9.5 -26q-226 0 -406 -254q-159 -224 -208 -523q-16 -100 -17 -185q0 -165 67.5 -278.5t204.5 -113.5q184 0 348 250q144 220 196 494q20 102 20 179q0 121 -48 183q-38 44 -93 45 q-146 0 -242 -199q-86 -173 -86 -347q0 -244 136 -244q-5 -31 -54 -31q-118 0 -159 149q-16 64 -16 151.5t38 210.5q69 221 214 310q72 44 154 44q157 0 192 -189q10 -52 10 -109q0 -162 -77 -372q-105 -290 -279 -448q-126 -116 -255 -116q-241 0 -333 223 q-48 113 -47.5 241.5zM626 1460q15 0 21.5 32t20.5 64t45 32q38 0 37.5 -51t-49.5 -82q-25 -16 -42 -16q-26 0 -31 16zM832 1460q15 0 21.5 32t20.5 64t45 32q38 0 38 -51t-49 -82q-25 -16 -43 -16q-26 0 -31 16z" />
<glyph unicode="&#xd7;" horiz-adv-x="883" d="M85 14q0 17 30 52l247 294q-52 92 -180 307q-11 20 6 23q3 2 9 1q29 0 65 -60.5t128 -235.5l249 295q8 10 14.5 10t11.5 -8.5t5 -25.5t-45 -71t-212 -243q102 -190 149 -272q13 -20 -3 -19q-23 0 -51 49l-123 211q-216 -242 -277 -316q-8 -8 -15.5 -8t-7.5 17z" />
<glyph unicode="&#xd8;" horiz-adv-x="1123" d="M-1.5 391.5q-0.5 127.5 39.5 276.5q79 300 264 485.5t404 186.5q13 0 21.5 -8t9.5 -26q-226 0 -406 -254q-159 -224 -208 -523q-15 -100 -15 -183q0 -165 64 -273.5t185 -118.5q79 246 295 913t219.5 678t11.5 11q38 0 38 -42q0 -20 -8 -43l-112 -329q185 -39 185 -318 q0 -198 -113 -453.5t-288 -381.5q-97 -69 -192 -74q-41 -123 -50 -153.5t-15.5 -30.5t-15.5 6t-9 24.5t7 40.5l34 113q-226 16 -306 241q-39 108 -39.5 235.5zM406 -44q115 13 220.5 126t168 269.5t85.5 276t23 188.5t-13 124q-28 118 -110 138z" />
<glyph unicode="&#xd9;" horiz-adv-x="1087" d="M-139 855.5q0 80.5 34 179.5q64 188 205 266q70 38 149 38q151 0 231 -102.5t80 -271.5q0 -98 -35 -222t-79 -222q-113 -256 -113 -386t96 -130q111 0 277 215v14q0 129 29.5 260.5t87 222.5t127.5 91q56 0 56 -67q0 -41 -20 -107q-51 -161 -180 -351q-2 -28 -2 -54 q0 -136 28 -232q34 -113 113 -113q-8 -33 -46 -33q-85 0 -132.5 84.5t-57.5 220.5q-164 -192 -278 -192q-203 0 -203 220q0 92 38.5 212t86 219t86 223t38.5 228.5t-60.5 168.5t-167.5 64q-164 0 -267 -167q-80 -133 -80 -280q0 -187 109 -238q33 -15 71 -14q126 0 192 141 q3 7 10.5 7.5t13 -4.5t2.5 -12q-31 -77 -87 -123.5t-131 -46.5q-147 0 -200 149q-21 64 -21 144.5zM636 1248.5q0 16.5 9.5 33t25.5 16.5t32 -15q59 -54 112 -119t53 -80.5t-17 -15.5t-74.5 41t-117.5 100q-23 23 -23 39.5zM811 374q151 247 151 352q0 29 -20 29 q-43 0 -79.5 -112t-51.5 -269z" />
<glyph unicode="&#xda;" horiz-adv-x="1087" d="M-139 855.5q0 80.5 34 179.5q64 188 205 266q70 38 149 38q151 0 231 -102.5t80 -271.5q0 -98 -35 -222t-79 -222q-113 -256 -113 -386t96 -130q111 0 277 215v14q0 129 29.5 260.5t87 222.5t127.5 91q56 0 56 -67q0 -41 -20 -107q-51 -161 -180 -351q-2 -28 -2 -54 q0 -136 28 -232q34 -113 113 -113q-8 -33 -46 -33q-85 0 -132.5 84.5t-57.5 220.5q-164 -192 -278 -192q-203 0 -203 220q0 92 38.5 212t86 219t86 223t38.5 228.5t-60.5 168.5t-167.5 64q-164 0 -267 -167q-80 -133 -80 -280q0 -187 109 -238q33 -15 71 -14q126 0 192 141 q3 7 10.5 7.5t13 -4.5t2.5 -12q-31 -77 -87 -123.5t-131 -46.5q-147 0 -200 149q-21 64 -21 144.5zM732 1076q0 18 38.5 78t92.5 121q20 25 38 24.5t34.5 -7.5t16.5 -22.5t-13 -35.5q-49 -61 -110.5 -118.5t-79 -57.5t-17.5 18zM811 374q151 247 151 352q0 29 -20 29 q-43 0 -79.5 -112t-51.5 -269z" />
<glyph unicode="&#xdb;" horiz-adv-x="1087" d="M-139 855.5q0 80.5 34 179.5q64 188 205 266q70 38 149 38q151 0 231 -102.5t80 -271.5q0 -98 -35 -222t-79 -222q-113 -256 -113 -386t96 -130q111 0 277 215v14q0 129 29.5 260.5t87 222.5t127.5 91q56 0 56 -67q0 -41 -20 -107q-51 -161 -180 -351q-2 -28 -2 -54 q0 -136 28 -232q34 -113 113 -113q-8 -33 -46 -33q-85 0 -132.5 84.5t-57.5 220.5q-164 -192 -278 -192q-203 0 -203 220q0 92 38.5 212t86 219t86 223t38.5 228.5t-60.5 168.5t-167.5 64q-164 0 -267 -167q-80 -133 -80 -280q0 -187 109 -238q33 -15 71 -14q126 0 192 141 q3 7 10.5 7.5t13 -4.5t2.5 -12q-31 -77 -87 -123.5t-131 -46.5q-147 0 -200 149q-21 64 -21 144.5zM634 1132q133 110 198 162q29 23 41 0l82 -162h-39l-62 105l-179 -105h-41zM811 374q151 247 151 352q0 29 -20 29q-43 0 -79.5 -112t-51.5 -269z" />
<glyph unicode="&#xdc;" horiz-adv-x="1087" d="M-139 855.5q0 80.5 34 179.5q64 188 205 266q70 38 149 38q151 0 231 -102.5t80 -271.5q0 -98 -35 -222t-79 -222q-113 -256 -113 -386t96 -130q111 0 277 215v14q0 129 29.5 260.5t87 222.5t127.5 91q56 0 56 -67q0 -41 -20 -107q-51 -161 -180 -351q-2 -28 -2 -54 q0 -136 28 -232q34 -113 113 -113q-8 -33 -46 -33q-85 0 -132.5 84.5t-57.5 220.5q-164 -192 -278 -192q-203 0 -203 220q0 92 38.5 212t86 219t86 223t38.5 228.5t-60.5 168.5t-167.5 64q-164 0 -267 -167q-80 -133 -80 -280q0 -187 109 -238q33 -15 71 -14q126 0 192 141 q3 7 10.5 7.5t13 -4.5t2.5 -12q-31 -77 -87 -123.5t-131 -46.5q-147 0 -200 149q-21 64 -21 144.5zM659 1093q15 0 21 32t20 64t45 32q38 0 38 -51t-49 -82q-25 -16 -43 -16q-26 0 -31 16zM811 374q151 247 151 352q0 29 -20 29q-43 0 -79.5 -112t-51.5 -269zM865 1093 q15 0 21.5 32t20.5 64t45 32q38 0 38 -51t-50 -82q-25 -16 -42 -16q-26 0 -31 16z" />
<glyph unicode="&#xdd;" horiz-adv-x="1053" d="M-144.5 -361.5q0.5 74.5 18.5 133.5q43 147 162 208q57 28 123 28q174 0 237 -134q28 -59 28 -113t-19 -103q-43 -113 -140 -113q-15 0 -26 8t-18 23q74 0 115 100q20 49 20 99t-23 102q-44 100 -178.5 100t-211.5 -129q-52 -87 -53 -182q0 -39 10 -81q34 -154 177 -208 q64 -25 146.5 -24.5t155.5 26t128 66.5t101 104.5t78 129t59 152.5q41 134 79 330q-146 -162 -251 -163q-203 0 -203 220q0 92 37 206.5t80.5 207t80.5 211.5t37 223.5t-61 168.5t-167 64q-164 0 -267 -167q-80 -133 -81 -280q0 -187 110 -238q33 -15 71 -14q126 0 191 141 q3 7 10.5 7.5t13.5 -4.5t3 -12q-31 -77 -87 -123.5t-131 -46.5q-147 0 -200 149q-21 64 -21 144.5t34 179.5q64 188 205 266q70 38 149 38q151 0 231 -102.5t80 -271.5q0 -123 -53 -276t-106.5 -294t-53.5 -233q0 -123 97 -123q115 0 267 205q54 313 79 392q51 172 140 172 q59 0 59 -71q0 -39 -18 -98q-44 -151 -162 -331q-46 -377 -124 -570q-84 -205 -204 -302q-66 -54 -159 -88t-204 -34q-244 0 -343 168q-48 82 -47.5 156.5zM895 1070q0 18 38.5 78t92.5 120q20 25 37.5 25t34 -7.5t16.5 -23t-13 -35.5q-49 -61 -110.5 -118t-78.5 -57t-17 18 zM949 413q118 208 123 305q-1 35 -22 37q-41 0 -60.5 -80t-40.5 -262z" />
<glyph unicode="&#xde;" horiz-adv-x="892" d="M-79 596.5q0 42.5 39.5 89t108.5 79.5l16 -36q-71 -36 -100 -82q-16 -25 -16 -45t11 -38q26 -36 102 -45q67 360 95.5 488t51.5 160t46 32q29 0 26 -31q-11 -56 -62 -297.5t-72 -351.5q43 3 61 7q102 315 167 447q88 177 169 256q105 106 221 106q144 0 175 -124 q8 -33 8 -67q0 -108 -78 -243q-121 -206 -348 -323q-133 -69 -283 -90q-16 -48 -38.5 -115t-37 -109.5t-32.5 -95t-31.5 -83.5t-27.5 -60q-26 -56 -48 -56q-38 0 -37.5 68.5t67.5 442.5q-75 8 -114 41t-39 75.5zM129 315q1 -14 9 -14q18 0 75 182l-54 -5q-33 -152 -30 -163z M274 534q257 59 435 290q149 192 150 357q0 90 -63 105q-10 2 -21 2q-105 0 -198 -117q-93 -116 -167 -283q-74 -172 -136 -354z" />
<glyph unicode="&#xdf;" horiz-adv-x="638" d="M-686 -262.5q0 42.5 22 88.5q39 74 112 74q34 0 44 -23l5 -8q-72 0 -103 -75q-13 -33 -13 -70t24 -76q46 -72 158.5 -72t193.5 83.5t122 216t69.5 294t54.5 323t63 294t108.5 216t169.5 83.5t147.5 -45.5t49.5 -107t-31.5 -106t-75.5 -79t-90 -66.5q-106 -80 -106 -172 q0 -85 86 -166q34 -29 61.5 -78.5t27.5 -118t-52.5 -127.5t-146.5 -59t-127 75q-16 38 -16.5 75.5t19.5 78.5q36 77 102 77q41 0 41 -34q-64 -21 -92 -86q-11 -26 -12 -57q0 -93 87 -93q66 0 96 52.5t30 114.5t-22 107t-48 73q-72 77 -72 156q0 105 93 190q39 36 79 70 q93 85 93 171q0 51 -30 84.5t-84 33.5q-95 0 -154 -84t-85.5 -217.5t-46 -294t-47.5 -321.5t-74.5 -295t-144 -217.5t-241.5 -83.5q-174 0 -226 120q-18 39 -18 81.5z" />
<glyph unicode="&#xe0;" d="M-84 193q0 113 59 248q82 182 209 237q44 18 89 18t71 -26t26 -59q0 -15 -15.5 -14t-15.5 16t-15.5 27t-44.5 12q-103 0 -187 -185q-79 -172 -79 -326q0 -95 42 -95t101.5 71t110.5 166q110 200 129.5 257.5t42.5 57.5q41 0 41 -69q0 -21 -5 -49q-54 -262 -58 -303 t-4 -59q0 -79 38 -79q43 0 119.5 113t132.5 226l56 114h44q-10 -20 -25.5 -53.5t-61.5 -119.5t-87.5 -151.5t-93.5 -119t-89 -53.5q-121 0 -122 177q0 59 14 138h-12q-167 -312 -280 -312q-129 0 -130 195zM228 1009.5q0 16.5 9.5 32.5t25.5 16.5t32 -14.5q59 -54 112 -119 t53 -80.5t-17 -15.5t-74.5 41t-117.5 100q-23 23 -23 39.5z" />
<glyph unicode="&#xe1;" d="M-84 193q0 113 59 248q82 182 209 237q44 18 89 18t71 -26t26 -59q0 -15 -15.5 -14t-15.5 16t-15.5 27t-44.5 12q-103 0 -187 -185q-79 -172 -79 -326q0 -95 42 -95t101.5 71t110.5 166q110 200 129.5 257.5t42.5 57.5q41 0 41 -69q0 -21 -5 -49q-54 -262 -58 -303 t-4 -59q0 -79 38 -79q43 0 119.5 113t132.5 226l56 114h44q-10 -20 -25.5 -53.5t-61.5 -119.5t-87.5 -151.5t-93.5 -119t-89 -53.5q-121 0 -122 177q0 59 14 138h-12q-167 -312 -280 -312q-129 0 -130 195zM280 854q0 18 38.5 77.5t92.5 120.5q20 25 38 24.5t34.5 -7.5 t16.5 -22.5t-13 -35.5q-49 -61 -110.5 -118t-79 -57t-17.5 18z" />
<glyph unicode="&#xe2;" d="M-84 193q0 113 59 248q82 182 209 237q44 18 89 18t71 -26t26 -59q0 -15 -15.5 -14t-15.5 16t-15.5 27t-44.5 12q-103 0 -187 -185q-79 -172 -79 -326q0 -95 42 -95t101.5 71t110.5 166q110 200 129.5 257.5t42.5 57.5q41 0 41 -69q0 -21 -5 -49q-54 -262 -58 -303 t-4 -59q0 -79 38 -79q43 0 119.5 113t132.5 226l56 114h44q-10 -20 -25.5 -53.5t-61.5 -119.5t-87.5 -151.5t-93.5 -119t-89 -53.5q-121 0 -122 177q0 59 14 138h-12q-167 -312 -280 -312q-129 0 -130 195zM170 832q133 110 173 142t51 32t16 -11l82 -163h-40l-62 105 l-179 -105h-41z" />
<glyph unicode="&#xe3;" d="M-84 193q0 113 59 248q82 182 209 237q44 18 89 18t71 -26t26 -59q0 -15 -15.5 -14t-15.5 16t-15.5 27t-44.5 12q-103 0 -187 -185q-79 -172 -79 -326q0 -95 42 -95t101.5 71t110.5 166q110 200 129.5 257.5t42.5 57.5q41 0 41 -69q0 -21 -5 -49q-54 -262 -58 -303 t-4 -59q0 -79 38 -79q43 0 119.5 113t132.5 226l56 114h44q-10 -20 -25.5 -53.5t-61.5 -119.5t-87.5 -151.5t-93.5 -119t-89 -53.5q-121 0 -122 177q0 59 14 138h-12q-167 -312 -280 -312q-129 0 -130 195zM120 832q3 10 20 35.5t34 40.5q43 41 100 41q31 0 76.5 -32t73 -32 t47 14.5t35.5 44.5h36q-5 -13 -15.5 -33t-48 -52t-78 -32t-89 37t-73.5 37q-41 0 -81 -69h-37z" />
<glyph unicode="&#xe4;" d="M-84 193q0 113 59 248q82 182 209 237q44 18 89 18t71 -26t26 -59q0 -15 -15.5 -14t-15.5 16t-15.5 27t-44.5 12q-103 0 -187 -185q-79 -172 -79 -326q0 -95 42 -95t101.5 71t110.5 166q110 200 129.5 257.5t42.5 57.5q41 0 41 -69q0 -21 -5 -49q-54 -262 -58 -303 t-4 -59q0 -79 38 -79q43 0 119.5 113t132.5 226l56 114h44q-10 -20 -25.5 -53.5t-61.5 -119.5t-87.5 -151.5t-93.5 -119t-89 -53.5q-121 0 -122 177q0 59 14 138h-12q-167 -312 -280 -312q-129 0 -130 195zM198 854q15 0 21.5 32t20.5 63.5t45 31.5q38 0 38 -50.5t-49 -81.5 q-25 -16 -43 -17q-26 0 -31 17zM405 854q15 0 21.5 32t20.5 63.5t45 31.5q38 0 37.5 -50.5t-49.5 -81.5q-25 -16 -43 -17q-26 0 -31 17z" />
<glyph unicode="&#xe5;" d="M-84 193q0 113 59 248q82 182 209 237q44 18 89 18t71 -26t26 -59q0 -15 -15.5 -14t-15.5 16t-15.5 27t-44.5 12q-103 0 -187 -185q-79 -172 -79 -326q0 -95 42 -95t101.5 71t110.5 166q110 200 129.5 257.5t42.5 57.5q41 0 41 -69q0 -21 -5 -49q-54 -262 -58 -303 t-4 -59q0 -79 38 -79q43 0 119.5 113t132.5 226l56 114h44q-10 -20 -25.5 -53.5t-61.5 -119.5t-87.5 -151.5t-93.5 -119t-89 -53.5q-121 0 -122 177q0 59 14 138h-12q-167 -312 -280 -312q-129 0 -130 195zM262 961q0 45 31 76t78 31t78 -31t31 -77t-31 -77t-78 -31t-78 32 t-31 77zM297 961q0 -30 21 -52.5t51.5 -22.5t52.5 22.5t22 52.5t-22 51.5t-53 21.5t-51.5 -21.5t-20.5 -51.5z" />
<glyph unicode="&#xe6;" horiz-adv-x="937" d="M-84 193q0 113 59 248q82 182 209 237q44 18 89 18t71 -26t26 -59q0 -15 -15.5 -14t-15.5 16t-15.5 27t-44.5 12q-103 0 -187 -185q-79 -172 -79 -326q0 -95 41 -95q36 0 95 69q103 123 197 313q131 269 290 268q105 0 105 -114q0 -85 -66 -177q-92 -125 -215 -126 q-18 0 -23 16l-1 6q85 0 163 112.5t78 187.5q0 51 -40 51q-87 0 -160 -152q-64 -130 -64 -261q0 -198 141 -198q52 0 110.5 46.5t103.5 112.5q106 151 150 246l21 46h44q-28 -66 -82 -162t-103 -161.5t-116.5 -118.5t-127.5 -53q-133 0 -192 85q-49 72 -49 174q0 20 2 41 q-174 -298 -269 -299q-129 0 -130 195z" />
<glyph unicode="&#xe7;" horiz-adv-x="555" d="M-59 261q0 138 80 270q98 165 241 165q44 0 71 -24q31 -29 31 -68t-8.5 -71.5t-33.5 -58t-57 -25.5q-13 0 -19 18q13 0 35 46.5t22 92.5t-39 46q-85 0 -155 -142.5t-70 -276.5q0 -192 133 -192q52 0 110.5 46.5t105.5 112.5q105 151 148 246l21 46h44q-5 -10 -13 -28 t-34 -70t-53.5 -97.5t-68 -103t-80.5 -98.5q-97 -98 -180 -98l-47 -85q39 21 91 21q80 0 95 -61q2 -11 2 -23q0 -48 -54 -94.5t-142.5 -46.5t-98.5 50q-7 34 21 45q7 3 15 4q18 0 20 -15l1 -5q-21 0 -24 -20q-3 -28 33 -36l21 -1q95 0 136 70q16 26 16 47.5t-15.5 38.5 t-52.5 17t-89 -26h-3q-18 11 -6 42.5t43 80.5q-193 23 -193 261z" />
<glyph unicode="&#xe8;" horiz-adv-x="565" d="M-61 269q0 126 74 252q102 175 251 175q105 0 105 -114q0 -85 -66 -177q-92 -125 -215 -126q-18 0 -22 16l-2 6q85 0 163 112.5t78 187.5q0 51 -40 51q-87 0 -162 -152q-62 -130 -62 -261q0 -198 141 -198q52 0 110.5 46.5t105.5 112.5q105 151 148 246l21 46h44 q-28 -66 -82 -162t-103 -161.5t-116.5 -118.5t-127.5 -53q-242 0 -243 272zM100 1009.5q0 16.5 10 32.5t25.5 16.5t31.5 -14.5q59 -54 112.5 -119t53.5 -80.5t-17.5 -15.5t-74.5 41t-118 100q-23 23 -23 39.5z" />
<glyph unicode="&#xe9;" horiz-adv-x="565" d="M-61 269q0 126 74 252q102 175 251 175q105 0 105 -114q0 -85 -66 -177q-92 -125 -215 -126q-18 0 -22 16l-2 6q85 0 163 112.5t78 187.5q0 51 -40 51q-87 0 -162 -152q-62 -130 -62 -261q0 -198 141 -198q52 0 110.5 46.5t105.5 112.5q105 151 148 246l21 46h44 q-28 -66 -82 -162t-103 -161.5t-116.5 -118.5t-127.5 -53q-242 0 -243 272zM202 854q0 18 38.5 77.5t92.5 120.5q20 25 37.5 24.5t34 -7.5t16.5 -22.5t-13 -35.5q-49 -61 -110.5 -118t-78.5 -57t-17 18z" />
<glyph unicode="&#xea;" horiz-adv-x="565" d="M-61 269q0 126 74 252q102 175 251 175q105 0 105 -114q0 -85 -66 -177q-92 -125 -215 -126q-18 0 -22 16l-2 6q85 0 163 112.5t78 187.5q0 51 -40 51q-87 0 -162 -152q-62 -130 -62 -261q0 -198 141 -198q52 0 110.5 46.5t105.5 112.5q105 151 148 246l21 46h44 q-28 -66 -82 -162t-103 -161.5t-116.5 -118.5t-127.5 -53q-242 0 -243 272zM57 832q133 110 173 142t50 32t17 -11l81 -163h-39l-62 105l-179 -105h-41z" />
<glyph unicode="&#xeb;" horiz-adv-x="565" d="M-61 269q0 126 74 252q102 175 251 175q105 0 105 -114q0 -85 -66 -177q-92 -125 -215 -126q-18 0 -22 16l-2 6q85 0 163 112.5t78 187.5q0 51 -40 51q-87 0 -162 -152q-62 -130 -62 -261q0 -198 141 -198q52 0 110.5 46.5t105.5 112.5q105 151 148 246l21 46h44 q-28 -66 -82 -162t-103 -161.5t-116.5 -118.5t-127.5 -53q-242 0 -243 272zM102 854q15 0 21 32t20 63.5t45 31.5q38 0 38 -50.5t-49 -81.5q-25 -16 -43 -17q-26 0 -31 17zM308 854q15 0 21.5 32t20.5 63.5t45 31.5q38 0 38 -50.5t-50 -81.5q-25 -16 -42 -17q-26 0 -31 17z " />
<glyph unicode="&#xec;" horiz-adv-x="376" d="M-56 152q0 118 67 384q7 28 11 42.5t9 38.5t10 43q8 34 29 35q29 0 43 -43q7 -20 7 -47.5t-7 -58t-21.5 -89.5t-22.5 -96.5t-18 -91.5q-18 -90 -18.5 -160t37.5 -70q43 0 120 113t133 226l55 114h45q-10 -20 -25.5 -53.5t-61.5 -119.5t-88 -151.5t-93.5 -119t-88.5 -53.5 q-121 0 -122 157zM-44 1009.5q0 16.5 9.5 32.5t25.5 16.5t32 -14.5q59 -54 112 -119t53 -80.5t-17 -15.5t-74.5 41t-117.5 100q-23 23 -23 39.5z" />
<glyph unicode="&#xed;" horiz-adv-x="376" d="M-56 152q0 118 67 384q7 28 11 42.5t9 38.5t10 43q8 34 29 35q29 0 43 -43q7 -20 7 -47.5t-7 -58t-21.5 -89.5t-22.5 -96.5t-18 -91.5q-18 -90 -18.5 -160t37.5 -70q43 0 120 113t133 226l55 114h45q-10 -20 -25.5 -53.5t-61.5 -119.5t-88 -151.5t-93.5 -119t-88.5 -53.5 q-121 0 -122 157zM74 854q0 18 38.5 77.5t92.5 120.5q20 25 38 24.5t34 -7.5t16 -22.5t-13 -35.5q-49 -61 -110.5 -118t-78.5 -57t-17 18z" />
<glyph unicode="&#xee;" horiz-adv-x="376" d="M-70 832q133 110 173 142t50.5 32t15.5 -11l82 -163h-40l-62 105l-178 -105h-41zM-57 152q0 118 67 384q7 28 11 42.5t8.5 38.5t9.5 43q8 34 30 35q29 0 42 -43q7 -20 7 -47.5t-6.5 -58t-21.5 -89.5t-23 -96.5t-18 -91.5q-18 -90 -18 -160t38 -70q43 0 119.5 113 t132.5 226l56 114h44q-10 -20 -25.5 -53.5t-61.5 -119.5t-87.5 -151.5t-93 -119t-89.5 -53.5q-121 0 -121 157z" />
<glyph unicode="&#xef;" horiz-adv-x="376" d="M-56 152q0 118 67 384q7 28 11 42.5t9 38.5t10 43q8 34 29 35q29 0 43 -43q7 -20 7 -47.5t-7 -58t-21.5 -89.5t-22.5 -96.5t-18 -91.5q-18 -90 -18.5 -160t37.5 -70q43 0 120 113t133 226l55 114h45q-10 -20 -25.5 -53.5t-61.5 -119.5t-88 -151.5t-93.5 -119t-88.5 -53.5 q-121 0 -122 157zM-25 854q15 0 21.5 32t20.5 63.5t45 31.5q38 0 38 -50.5t-49 -81.5q-25 -16 -43 -17q-26 0 -31 17zM182 854q15 0 21.5 32t20.5 63.5t45 31.5q38 0 37.5 -50.5t-49.5 -81.5q-25 -16 -42 -17q-26 0 -31 17z" />
<glyph unicode="&#xf0;" horiz-adv-x="817" d="M-66 236q0 106 55 211q84 165 239 166q61 0 101 -30q69 -54 69 -175q0 -62 -20 -125q-8 -26 -31 -27q-13 -2 -6 16q23 59 23 108q0 188 -123 189q-103 0 -167 -146q-46 -103 -46 -207q0 -41 6 -82q26 -146 141 -145q70 0 133 62q113 113 162 372q18 90 18 146 q0 172 -39 258l-85 -45q-18 -11 -18 3q0 18 50 47q16 10 38 23q-48 85 -133 85l-11 43q121 0 200 -95l118 69q21 13 21 -3q0 -25 -59 -58l-60 -36q80 -120 80 -321q0 -306 -179 -483q-105 -103 -249 -104q-162 0 -210 166q-18 59 -18 118z" />
<glyph unicode="&#xf1;" horiz-adv-x="666" d="M-70 70q0 38 91 549q5 34 30 35q29 0 44 -43q8 -23 8 -50t-6 -58l-27 -131h10q147 331 282 331q52 0 80 -32t28 -87.5t-44 -241t-44 -257.5q0 -106 39 -106q0 -11 -14.5 -23t-34.5 -12q-95 0 -95 149q0 92 50 278t50 237.5t-41 51.5q-59 0 -142 -154t-133 -294 t-57.5 -176t-28.5 -36q-46 0 -45 70zM105 832q3 10 20.5 35.5t33.5 40.5q43 41 100 41q31 0 77 -32t73 -32t46.5 14.5t36.5 44.5h36q-5 -13 -16 -33t-48.5 -52t-77.5 -32t-89 37t-74 37q-41 0 -80 -69h-38z" />
<glyph unicode="&#xf2;" horiz-adv-x="643" d="M-59 242q0 103 48 222q62 154 154 191q48 16 65.5 5t22.5 -26q-75 0 -134 -141t-59 -277q0 -172 91 -172q62 0 117 77q103 144 126 380q-57 25 -80 81q-15 34 -15 58t6 42q15 44 54.5 44t60 -50t20.5 -127v-12q20 -7 58 -6.5t67.5 31.5t29.5 57q0 7 8.5 9.5t16 -1 t7.5 -9.5q0 -48 -40.5 -90.5t-107.5 -42.5q-16 0 -42 3q-10 -111 -47 -220t-102.5 -188.5t-140.5 -79.5q-143 0 -176 152q-8 44 -8 90zM154 1009.5q0 16.5 10 32.5t25.5 16.5t31.5 -14.5q59 -54 112.5 -119t53.5 -80.5t-17.5 -15.5t-74.5 41t-118 100q-23 23 -23 39.5z" />
<glyph unicode="&#xf3;" horiz-adv-x="643" d="M-59 242q0 103 48 222q62 154 154 191q48 16 65.5 5t22.5 -26q-75 0 -134 -141t-59 -277q0 -172 91 -172q62 0 117 77q103 144 126 380q-57 25 -80 81q-15 34 -15 58t6 42q15 44 54.5 44t60 -50t20.5 -127v-12q20 -7 58 -6.5t67.5 31.5t29.5 57q0 7 8.5 9.5t16 -1 t7.5 -9.5q0 -48 -40.5 -90.5t-107.5 -42.5q-16 0 -42 3q-10 -111 -47 -220t-102.5 -188.5t-140.5 -79.5q-143 0 -176 152q-8 44 -8 90zM223 854q0 18 38.5 77.5t92.5 120.5q20 25 38 24.5t34 -7.5t16 -22.5t-13 -35.5q-49 -61 -110.5 -118t-78.5 -57t-17 18z" />
<glyph unicode="&#xf4;" horiz-adv-x="643" d="M-59 242q0 103 48 222q62 154 154 191q48 16 65.5 5t22.5 -26q-75 0 -134 -141t-59 -277q0 -172 91 -172q62 0 117 77q103 144 126 380q-57 25 -80 81q-15 34 -15 58t6 42q15 44 54.5 44t60 -50t20.5 -127v-12q20 -7 58 -6.5t67.5 31.5t29.5 57q0 7 8.5 9.5t16 -1 t7.5 -9.5q0 -48 -40.5 -90.5t-107.5 -42.5q-16 0 -42 3q-10 -111 -47 -220t-102.5 -188.5t-140.5 -79.5q-143 0 -176 152q-8 44 -8 90zM128 832q133 110 173 142t49.5 32t16.5 -11l82 -163h-39l-63 105l-178 -105h-41z" />
<glyph unicode="&#xf5;" horiz-adv-x="643" d="M-59 242q0 103 48 222q62 154 154 191q48 16 65.5 5t22.5 -26q-75 0 -134 -141t-59 -277q0 -172 91 -172q62 0 117 77q103 144 126 380q-57 25 -80 81q-15 34 -15 58t6 42q15 44 54.5 44t60 -50t20.5 -127v-12q20 -7 58 -6.5t67.5 31.5t29.5 57q0 7 8.5 9.5t16 -1 t7.5 -9.5q0 -48 -40.5 -90.5t-107.5 -42.5q-16 0 -42 3q-10 -111 -47 -220t-102.5 -188.5t-140.5 -79.5q-143 0 -176 152q-8 44 -8 90zM79 832q3 10 20 35.5t34 40.5q43 41 100 41q31 0 77 -32t73 -32t46.5 14.5t35.5 44.5h36q-5 -13 -15.5 -33t-48 -52t-78 -32t-89 37 t-73.5 37q-41 0 -81 -69h-37z" />
<glyph unicode="&#xf6;" horiz-adv-x="643" d="M-59 242q0 103 48 222q62 154 154 191q48 16 65.5 5t22.5 -26q-75 0 -134 -141t-59 -277q0 -172 91 -172q62 0 117 77q103 144 126 380q-57 25 -80 81q-15 34 -15 58t6 42q15 44 54.5 44t60 -50t20.5 -127v-12q20 -7 58 -6.5t67.5 31.5t29.5 57q0 7 8.5 9.5t16 -1 t7.5 -9.5q0 -48 -40.5 -90.5t-107.5 -42.5q-16 0 -42 3q-10 -111 -47 -220t-102.5 -188.5t-140.5 -79.5q-143 0 -176 152q-8 44 -8 90zM118 854q15 0 21.5 32t20.5 63.5t45 31.5q38 0 37.5 -50.5t-49.5 -81.5q-25 -16 -42 -17q-26 0 -31 17zM324 854q15 0 21.5 32t20.5 63.5 t45 31.5q38 0 38 -50.5t-49 -81.5q-25 -16 -43 -17q-26 0 -31 17z" />
<glyph unicode="&#xf7;" horiz-adv-x="1060" d="M102 503q0 26 52 36q13 2 30 2l661 -15q16 0 17 -8q0 -23 -69 -25l-673 -3q-18 0 -18 13zM359 262q23 0 29 64q2 25 15 44.5t38 19.5q39 0 39 -51t-47 -82q-23 -16 -41 -16q-26 0 -33 21zM444 675q23 0 29 64q2 25 15 44.5t38 19.5q39 0 39 -51t-47 -82q-23 -16 -41 -16 q-26 0 -33 21z" />
<glyph unicode="&#xf8;" horiz-adv-x="648" d="M-57 247q0 131 65 263q85 167 208 183l40 252q3 18 13 18q3 0 6 -3q25 -10 25 -56q0 -13 -5 -46.5t-29 -172t-57.5 -333.5t-51.5 -304q80 25 131 154t51 242q0 159 -78 159q15 43 52 43q92 0 92 -155t-74.5 -312.5t-179.5 -176.5q-15 -85 -30 -190q-3 -16 -8 -17 q-23 0 -23 44q0 14 21 161q-169 11 -168 247zM43 218q0 -159 75 -174l92 605q-74 -44 -120.5 -179.5t-46.5 -251.5z" />
<glyph unicode="&#xf9;" horiz-adv-x="765" d="M-70 143q0 103 88 411q20 70 29.5 105.5t31.5 35.5q29 0 42 -43q7 -18 7 -45t-8.5 -59t-34.5 -122q-70 -242 -70 -326q0 -54 33 -54q41 0 96 74q59 77 97 149t60.5 118t45.5 95.5t37 82.5t27 63.5t13 31.5q15 34 33 35q29 0 43 -43q7 -20 6.5 -47.5t-7 -58t-21 -89.5 t-23 -96.5t-19.5 -91.5q-16 -90 -16.5 -160t37.5 -70q43 0 120 113t132 226l56 114h44q-10 -20 -25.5 -53.5t-61 -119.5t-87.5 -151.5t-93.5 -119t-97.5 -53.5t-75 28q-36 36 -36 126t31 238h-12q-188 -387 -313 -387q-110 0 -109 143zM128 1009.5q0 16.5 9.5 32.5 t25.5 16.5t32 -14.5q59 -54 112 -119t53 -80.5t-17 -15.5t-74.5 41t-117.5 100q-23 23 -23 39.5z" />
<glyph unicode="&#xfa;" horiz-adv-x="765" d="M-70 143q0 103 88 411q20 70 29.5 105.5t31.5 35.5q29 0 42 -43q7 -18 7 -45t-8.5 -59t-34.5 -122q-70 -242 -70 -326q0 -54 33 -54q41 0 96 74q59 77 97 149t60.5 118t45.5 95.5t37 82.5t27 63.5t13 31.5q15 34 33 35q29 0 43 -43q7 -20 6.5 -47.5t-7 -58t-21 -89.5 t-23 -96.5t-19.5 -91.5q-16 -90 -16.5 -160t37.5 -70q43 0 120 113t132 226l56 114h44q-10 -20 -25.5 -53.5t-61 -119.5t-87.5 -151.5t-93.5 -119t-97.5 -53.5t-75 28q-36 36 -36 126t31 238h-12q-188 -387 -313 -387q-110 0 -109 143zM282 854q0 18 38.5 77.5t92.5 120.5 q20 25 38 24.5t34 -7.5t16 -22.5t-13 -35.5q-49 -61 -110.5 -118t-78.5 -57t-17 18z" />
<glyph unicode="&#xfb;" horiz-adv-x="765" d="M-70 143q0 103 88 411q20 70 29.5 105.5t31.5 35.5q29 0 42 -43q7 -18 7 -45t-8.5 -59t-34.5 -122q-70 -242 -70 -326q0 -54 33 -54q41 0 96 74q59 77 97 149t60.5 118t45.5 95.5t37 82.5t27 63.5t13 31.5q15 34 33 35q29 0 43 -43q7 -20 6.5 -47.5t-7 -58t-21 -89.5 t-23 -96.5t-19.5 -91.5q-16 -90 -16.5 -160t37.5 -70q43 0 120 113t132 226l56 114h44q-10 -20 -25.5 -53.5t-61 -119.5t-87.5 -151.5t-93.5 -119t-97.5 -53.5t-75 28q-36 36 -36 126t31 238h-12q-188 -387 -313 -387q-110 0 -109 143zM123 832q133 110 173 142t50.5 32 t15.5 -11l82 -163h-39l-63 105l-178 -105h-41z" />
<glyph unicode="&#xfc;" horiz-adv-x="765" d="M-70 143q0 103 88 411q20 70 29.5 105.5t31.5 35.5q29 0 42 -43q7 -18 7 -45t-8.5 -59t-34.5 -122q-70 -242 -70 -326q0 -54 33 -54q41 0 96 74q59 77 97 149t60.5 118t45.5 95.5t37 82.5t27 63.5t13 31.5q15 34 33 35q29 0 43 -43q7 -20 6.5 -47.5t-7 -58t-21 -89.5 t-23 -96.5t-19.5 -91.5q-16 -90 -16.5 -160t37.5 -70q43 0 120 113t132 226l56 114h44q-10 -20 -25.5 -53.5t-61 -119.5t-87.5 -151.5t-93.5 -119t-97.5 -53.5t-75 28q-36 36 -36 126t31 238h-12q-188 -387 -313 -387q-110 0 -109 143zM134 854q15 0 21.5 32t20.5 63.5 t45 31.5q38 0 38 -50.5t-49 -81.5q-25 -16 -43 -17q-26 0 -31 17zM341 854q15 0 21.5 32t20.5 63.5t45 31.5q38 0 37.5 -50.5t-49.5 -81.5q-25 -16 -42 -17q-26 0 -32 17z" />
<glyph unicode="&#xfd;" horiz-adv-x="661" d="M-247 -495q0 93 70 202q102 159 272 209q61 18 126 18q11 0 11.5 -22.5t-11.5 -22.5q-193 0 -324 -153q-97 -115 -97 -221t82 -123l26 -1q136 0 218 114q57 82 86 166.5t43 135t32 133.5t28.5 140.5t31 164.5t31.5 170h-9q-198 -415 -326 -415q-110 0 -110 143 q0 103 88 411q20 70 30 105.5t31 35.5q29 0 43 -43q7 -18 6.5 -45t-8.5 -59t-35 -122q-70 -242 -70 -326q0 -54 33 -54q39 0 97 73.5t114 180.5q102 193 166 360q13 34 32 35q28 0 41 -43q7 -23 7 -51t-27 -160.5t-54 -253.5t-70.5 -285t-82 -244.5t-93.5 -164t-122 -115.5 t-151 -32q-156 0 -155 159zM233 854q0 18 38.5 77.5t92.5 120.5q20 25 37.5 24.5t34 -7.5t16.5 -22.5t-13 -35.5q-49 -61 -110.5 -118t-78.5 -57t-17 18z" />
<glyph unicode="&#xfe;" horiz-adv-x="784" d="M-135.5 -558q-0.5 91 25.5 310t87.5 563.5t110.5 549.5q15 62 45.5 96t51.5 34q41 0 30 -33q-82 -274 -154 -632t-102.5 -563.5t-30.5 -224.5t2 -19q23 0 52 121.5t66 295t84.5 347t123 295t163.5 121.5q52 0 80.5 -32t28.5 -87.5t-44.5 -241t-44.5 -257.5 q0 -106 39 -106q0 -11 -14.5 -23t-34.5 -12q-95 0 -95 149q0 92 50 278t50 237.5t-41 51.5q-67 0 -129 -135t-109 -328.5t-89.5 -386.5t-87 -328.5t-84.5 -135.5q-29 5 -29.5 96z" />
<glyph unicode="&#xff;" horiz-adv-x="661" d="M-247 -495q0 93 70 202q102 159 272 209q61 18 126 18q11 0 11.5 -22.5t-11.5 -22.5q-193 0 -324 -153q-97 -115 -97 -221t82 -123l26 -1q136 0 218 114q57 82 86 166.5t43 135t32 133.5t28.5 140.5t31 164.5t31.5 170h-9q-198 -415 -326 -415q-110 0 -110 143 q0 103 88 411q20 70 30 105.5t31 35.5q29 0 43 -43q7 -18 6.5 -45t-8.5 -59t-35 -122q-70 -242 -70 -326q0 -54 33 -54q39 0 97 73.5t114 180.5q102 193 166 360q13 34 32 35q28 0 41 -43q7 -23 7 -51t-27 -160.5t-54 -253.5t-70.5 -285t-82 -244.5t-93.5 -164t-122 -115.5 t-151 -32q-156 0 -155 159zM151 854q15 0 21.5 32t20.5 63.5t45 31.5q38 0 37.5 -50.5t-49.5 -81.5q-25 -16 -42 -17q-26 0 -32 17zM357 854q15 0 21.5 32t20.5 63.5t45 31.5q38 0 38 -50.5t-49 -81.5q-25 -16 -43 -17q-26 0 -31 17z" />
<glyph unicode="&#x152;" horiz-adv-x="1943" d="M-2 377.5q0 128.5 33 264.5q72 300 259 499t418 199q13 0 21 -8t10 -26q-226 0 -406 -254q-159 -224 -208 -523q-16 -100 -17 -185q0 -165 67 -278.5t205 -113.5q184 0 347 250q144 220 197 494q20 102 20 179q0 121 -48 183q-38 44 -93 45q-146 0 -243 -199 q-85 -173 -85 -347q0 -244 136 -244q-5 -31 -54 -31q-118 0 -159 149q-16 64 -16 151.5t37 210.5q69 221 215 310q72 44 161.5 44t141 -76t51.5 -195t-34 -267q80 97 186 151q-26 56 -26 106t5 84q-75 34 -121 92q-61 80 -61 180q0 111 62 197q39 52 103.5 85.5t141.5 33.5 q10 0 15.5 -7t5.5 -14v-6q-106 0 -184 -63q-108 -90 -108 -213q0 -54 22 -108q38 -88 134 -136q39 146 163 250t304 104q136 0 173 -92q11 -28 12 -57q0 -61 -49 -128q-121 -161 -389 -160q-80 0 -142 14q-5 -31 -5 -65.5t12 -68.5q100 36 212 36t136 -57q5 -13 5 -25 q0 -34 -52 -68.5t-162 -34.5t-177 75q-146 -93 -215 -275q-46 -121 -46 -236q0 -57 12 -111q34 -167 160 -225v10q0 152 50 298t158.5 251.5t249 105.5t181.5 -127q15 -46 15 -95q0 -90 -49 -197q-85 -182 -257 -264q-105 -49 -226 -49q-20 0 -53 3q5 -134 60.5 -217.5 t160.5 -83.5q-7 -28 -41 -28q-110 0 -173 95t-72 246q-149 36 -220 156q-61 105 -61 235q0 21 2 43q-88 -152 -199 -244t-229 -92q-241 0 -332 223q-48 113 -48 241.5zM1150 -152q21 -5 49 -5q239 0 382 185q105 136 105 277t-82 177q-23 11 -52 11q-110 0 -204.5 -102.5 t-144.5 -250t-53 -292.5zM1209 962q61 -13 133 -13q190 0 298 118q64 69 64 134q0 15 -2 28q-20 77 -118 78q-134 0 -238 -104.5t-137 -240.5zM1227 747q44 -69 148 -69t134 46q7 11 7 20q0 21 -29 32.5t-68 11.5q-102 0 -192 -41z" />
<glyph unicode="&#x153;" horiz-adv-x="943" d="M-59 247q0 136 72 274q92 174 223 174q16 0 27.5 -7.5t16.5 -22.5q-102 0 -172 -150.5t-70 -296.5q0 -174 91 -174q87 0 148.5 136t61.5 267q0 156 -80 156q15 43 52 43q72 0 87 -115q103 165 243 165q105 0 104 -114q0 -85 -65 -177q-92 -125 -215 -126q-18 0 -23 16 l-1 6q85 0 163 112.5t78 187.5q0 51 -40 51q-87 0 -160 -152q-64 -130 -64 -261q0 -198 141 -198q52 0 110 46.5t104 112.5q106 151 149 246l22 46h44q-28 -66 -82 -162t-103 -161.5t-116.5 -118.5t-127.5 -53q-190 0 -231 178q-87 -175 -203 -175q-184 0 -184 247z" />
<glyph unicode="&#x178;" horiz-adv-x="1053" d="M-144.5 -361.5q0.5 74.5 18.5 133.5q43 147 162 208q57 28 123 28q174 0 237 -134q28 -59 28 -113t-19 -103q-43 -113 -140 -113q-15 0 -26 8t-18 23q74 0 115 100q20 49 20 99t-23 102q-44 100 -178.5 100t-211.5 -129q-52 -87 -53 -182q0 -39 10 -81q34 -154 177 -208 q64 -25 146.5 -24.5t155.5 26t128 66.5t101 104.5t78 129t59 152.5q41 134 79 330q-146 -162 -251 -163q-203 0 -203 220q0 92 37 206.5t80.5 207t80.5 211.5t37 223.5t-61 168.5t-167 64q-164 0 -267 -167q-80 -133 -81 -280q0 -187 110 -238q33 -15 71 -14q126 0 191 141 q3 7 10.5 7.5t13.5 -4.5t3 -12q-31 -77 -87 -123.5t-131 -46.5q-147 0 -200 149q-21 64 -21 144.5t34 179.5q64 188 205 266q70 38 149 38q151 0 231 -102.5t80 -271.5q0 -123 -53 -276t-106.5 -294t-53.5 -233q0 -123 97 -123q115 0 267 205q54 313 79 392q51 172 140 172 q59 0 59 -71q0 -39 -18 -98q-44 -151 -162 -331q-46 -377 -124 -570q-84 -205 -204 -302q-66 -54 -159 -88t-204 -34q-244 0 -343 168q-48 82 -47.5 156.5zM777 1117q15 0 21 32t20 64t45 32q38 0 38 -50.5t-49 -82.5q-25 -16 -43 -16q-26 0 -32 21zM949 413 q118 208 123 305q-1 35 -22 37q-41 0 -60.5 -80t-40.5 -262zM983 1117q15 0 21.5 32t20.5 64t45 32q38 0 38 -50.5t-50 -82.5q-25 -16 -42 -16q-26 0 -33 21z" />
<glyph unicode="&#x2c6;" horiz-adv-x="488" d="M90 832q133 110 173 142t50.5 32t15.5 -11l82 -163h-39l-62 105l-179 -105h-41z" />
<glyph unicode="&#x2dc;" horiz-adv-x="630" d="M111 832q3 10 20.5 35.5t33.5 40.5q43 41 100 41q31 0 77 -32t73 -32t47 14.5t36 44.5h36q-5 -13 -15.5 -33t-48 -52t-78 -32t-89.5 37t-74 37q-41 0 -80 -69h-38z" />
<glyph unicode="&#x2000;" horiz-adv-x="860" />
<glyph unicode="&#x2001;" horiz-adv-x="1720" />
<glyph unicode="&#x2002;" horiz-adv-x="860" />
<glyph unicode="&#x2003;" horiz-adv-x="1720" />
<glyph unicode="&#x2004;" horiz-adv-x="573" />
<glyph unicode="&#x2005;" horiz-adv-x="430" />
<glyph unicode="&#x2006;" horiz-adv-x="286" />
<glyph unicode="&#x2007;" horiz-adv-x="286" />
<glyph unicode="&#x2008;" horiz-adv-x="215" />
<glyph unicode="&#x2009;" horiz-adv-x="344" />
<glyph unicode="&#x200a;" horiz-adv-x="95" />
<glyph unicode="&#x2010;" horiz-adv-x="999" d="M156 477q0 26 52 36q13 2 30 1l507 -14q16 0 17 -8q0 -23 -69 -25l-519 -3q-18 0 -18 13z" />
<glyph unicode="&#x2011;" horiz-adv-x="999" d="M156 477q0 26 52 36q13 2 30 1l507 -14q16 0 17 -8q0 -23 -69 -25l-519 -3q-18 0 -18 13z" />
<glyph unicode="&#x2012;" horiz-adv-x="999" d="M156 477q0 26 52 36q13 2 30 1l507 -14q16 0 17 -8q0 -23 -69 -25l-519 -3q-18 0 -18 13z" />
<glyph unicode="&#x2013;" horiz-adv-x="1159" d="M120 354q0 26 52 36q13 2 30 2l653 -15q16 0 17 -8q0 -23 -69 -25l-665 -3q-18 0 -18 13z" />
<glyph unicode="&#x2014;" horiz-adv-x="1400" d="M120 354q0 26 52 36q13 2 30 2l888 -15q16 0 16 -8q0 -23 -69 -25l-899 -3q-18 0 -18 13z" />
<glyph unicode="&#x2018;" horiz-adv-x="339" d="M0 1088q0 13 2 28q13 90 68 150q31 33 53 35q33 0 36 -16v-5q-31 0 -49 -62.5t-18 -124.5t-46 -62t-46 57z" />
<glyph unicode="&#x2019;" horiz-adv-x="362" d="M203 1047v5q31 0 49 62t18 124.5t46 62.5t46 -57q0 -13 -2 -28q-13 -90 -68 -151q-31 -33 -53 -34q-33 0 -36 16z" />
<glyph unicode="&#x201a;" horiz-adv-x="339" d="M48 -131q31 0 49 62t18 124.5t45.5 62.5t45.5 -57q0 -13 -1 -28q-13 -90 -69 -151q-31 -33 -52 -34q-33 0 -35 16z" />
<glyph unicode="&#x201c;" horiz-adv-x="512" d="M0 1088q0 13 2 28q13 90 68 150q31 33 53 35q33 0 36 -16v-5q-31 0 -49 -62.5t-18 -124.5t-46 -62t-46 57zM200 1088q0 13 2 28q13 90 68 150q31 33 53 35q33 0 36 -16v-5q-31 0 -49 -62.5t-18 -124.5t-46 -62t-46 57z" />
<glyph unicode="&#x201d;" horiz-adv-x="553" d="M203 1047v5q31 0 49 62t18 124.5t46 62.5t46 -57q0 -13 -2 -28q-13 -90 -68 -151q-31 -33 -53 -34q-33 0 -36 16zM403 1047v5q31 0 49 62t18 124.5t46 62.5t46 -57q0 -13 -2 -28q-13 -90 -68 -151q-31 -33 -53 -34q-33 0 -36 16z" />
<glyph unicode="&#x201e;" horiz-adv-x="581" d="M48 -131q31 0 49 62t18 124.5t45.5 62.5t45.5 -57q0 -13 -1 -28q-13 -90 -69 -151q-31 -33 -52 -34q-33 0 -35 16zM247 -131q32 0 50 62t18 124.5t45.5 62.5t45.5 -57q0 -13 -1 -28q-13 -90 -69 -151q-31 -34 -53 -34q-33 0 -34 16z" />
<glyph unicode="&#x2022;" horiz-adv-x="653" d="M154 541.5q0 49.5 35 84t85 34.5t84.5 -34.5t34.5 -84t-34.5 -85t-84.5 -35.5t-85 35.5t-35 85z" />
<glyph unicode="&#x2026;" horiz-adv-x="1027" d="M77 -10q15 0 21.5 32t20.5 64t45 32q38 0 38 -51t-50 -82q-25 -16 -42 -16q-26 0 -33 21zM419 -10q15 0 21.5 32t20.5 64t45 32q38 0 38 -51t-49 -82q-25 -16 -43 -16q-26 0 -33 21zM762 -10q15 0 21.5 32t20.5 64t45 32q38 0 37.5 -51t-49.5 -82q-25 -16 -42 -16 q-26 0 -33 21z" />
<glyph unicode="&#x202f;" horiz-adv-x="344" />
<glyph unicode="&#x2039;" horiz-adv-x="588" d="M62 380q0 10 10 16l292 186v-41l-228 -176l143 -209v-45q-216 251 -217 269z" />
<glyph unicode="&#x203a;" horiz-adv-x="616" d="M125 111v41l227 176l-142 209v45q216 -251 216 -269q0 -10 -10 -16z" />
<glyph unicode="&#x205f;" horiz-adv-x="430" />
<glyph unicode="&#x20ac;" horiz-adv-x="892" d="M-54 364q0 31 82 31h88q16 93 58 190h-172q-20 0 -18 11q3 23 60 28l22 2q84 0 124 -2q74 157 187 258t242 101q62 0 93.5 -32.5t31.5 -75.5t-31 -51q-29 -5 -31 18v10q0 36 -21.5 62t-67.5 26q-90 0 -168.5 -88.5t-132.5 -228.5q87 -2 293 -2q18 0 16 -10 q-7 -23 -69 -23l-253 -1q-34 -95 -50 -194q190 -3 318 -3q18 0 17 -10q-7 -23 -69 -23l-271 -1q-7 -56 -6.5 -125.5t23.5 -137.5q36 -105 131 -104q115 0 205 139q13 21 36 5q11 -11 8 -20q-110 -161 -257.5 -161t-211.5 114q-48 87 -47 204q0 41 5 84h-146q-18 0 -18 10z " />
<glyph unicode="&#x2122;" horiz-adv-x="989" d="M267 907q0 19 15 43q21 38 57 38q15 0 18 -15q-51 0 -67 -51q-5 -15 -5 -33.5t15.5 -28.5t30.5 -10q43 0 65 50t26 111t22 110.5t54 49.5q11 0 12 -8v-1q-48 0 -55 -166q-3 -61 -31 -112.5t-82 -51.5t-68 40q-7 16 -7 35zM270 1091q0 48 38 85.5t80.5 37.5t83.5 -11.5 t77 -11.5t33 21l-4 5q2 11 16.5 11.5t13.5 -20.5q-13 -29 -54 -35q-34 0 -79.5 12.5t-73.5 12.5q-74 0 -98 -69q-8 -23 -8 -47.5t18 -43.5t41 -19q-2 -10 -12 -10q-72 0 -72 82zM452 834q48 0 79 59t43.5 128.5t38.5 128.5t65 59q8 0 12 -10q-39 0 -63 -59.5t-34 -131.5 t-42.5 -132t-88.5 -60zM624 970q0 72 23 150.5t58 78.5l8 -8q-20 0 -37 -84.5t-17 -151.5t13 -78q8 0 23.5 79t45 159.5t70.5 80.5q11 0 11 -7v-3q-43 0 -69.5 -83.5t-45 -168t-39.5 -84.5q-44 0 -44 120zM752 916q0 92 28 178.5t57 86.5l10 -6q-25 0 -47 -120 q-16 -93 -16.5 -157t20.5 -64q-2 -10 -8 -10q-44 0 -44 92z" />
<glyph unicode="&#x25fc;" horiz-adv-x="696" d="M0 0v696h696v-696h-696z" />
</font>
</defs>
</svg>
